<?xml version="1.0" encoding="UTF-8" standalone="no"?>
<svg
   xmlns:dc="http://purl.org/dc/elements/1.1/"
   xmlns:cc="http://creativecommons.org/ns#"
   xmlns:rdf="http://www.w3.org/1999/02/22-rdf-syntax-ns#"
   xmlns:svg="http://www.w3.org/2000/svg"
   xmlns="http://www.w3.org/2000/svg"
   id="svg4"
   version="1.1"
   height="413"
   width="694"><metadata
   id="metadata10">
  <rdf:RDF>
    <cc:Work
       rdf:about="">
      <dc:format>image/svg+xml</dc:format>
      <dc:type
         rdf:resource="http://purl.org/dc/dcmitype/StillImage" />
      <dc:title></dc:title>
    </cc:Work>
  </rdf:RDF>
</metadata>
<defs
   id="defs8" />
<path
   id="path2"
   d="m 263,258 c -4.80062,-0.25298 -3.1756,9.35104 0,7.62435 -2.20097,-7.12758 10.07685,-6.85346 5,-1.2487 2.14581,7.15066 5.87039,7.77263 9,7 2.14539,3.79478 2.14341,15.79375 4.97273,6.65162 C 281.42079,275.42906 281.67825,267.65429 286,268 c -2.21609,-2.56164 -0.40534,-8.9954 -5.97273,-8.02727 -1.67097,-4.94057 -0.85557,-11.16663 2.94546,-7.94546 2.78286,7.83418 0.30091,-6.2314 -1.30637,-3.36184 -0.75636,-12.09051 7.77098,7.83262 10.33364,0.95892 -2.45807,-1.66977 9.96395,1.63092 12.61521,4.60606 1.78559,4.1168 4.23965,7.94377 0.38479,13.14524 -10.88293,5.359 3.15786,-5.97204 -4.37565,-4.37565 5.00305,-2.82258 -5.98364,-1.91529 -8.59708,-2.02727 C 289.79361,254.15324 287.81902,254.3359 286,254 c 4.48898,4.88186 12.22061,2.05993 10.22182,-4.44728 C 293.81252,242.0627 283.57291,242.55975 277,242 c -8.73504,2.11939 -2.62168,7.20199 -0.62435,10 6.03331,0.89867 -5.23987,5.35608 -9.34838,2.02727 2.93187,-3.78085 9.11881,-1.87471 -1.02727,-5.02727 2.38858,-8.48315 -8.99663,3.30078 -8,4 9.55209,1.97447 -5.41341,8.45631 -3,1 -4.52874,5.2472 -7.96941,-7.12179 -3,-6 5.10786,5.16249 5.42655,-8.528 4.38479,-8.23041 -1.76263,-0.45815 -0.66315,-12.44684 -6.33025,-3.82413 7.16097,9.39068 -4.84853,8.63082 -4.70561,11.78475 6.82648,-0.5938 18.04413,-7.32342 17.65107,4.26979 1.27156,2.37589 2.26851,4.57782 10,6 6.21746,4.14614 -2.39928,6.85507 -5.28921,9.52614 C 265.33928,276.43943 277.9269,264.40821 278,265 c 2.28166,7.20971 8.30056,-1.17586 1,-3 3.3789,-6.08933 11.13429,-2.43363 11.02727,0.97273 0.26615,1.9073 2.49135,10.80962 5.94546,7.05454 1.90227,-4.93477 3.0042,2.94627 3.02727,4.97273 -5.69411,7.09504 -5.10266,-5.66131 -6,5 4.2345,1.78174 4.22279,4.03026 10,-1 1.48901,9.34574 0.13453,-5.4856 3.97273,-3.97273 2.89648,-7.89502 -8.73643,-1.47864 -5.84276,3.58283 -9.06889,0.96536 3.17137,9.15197 2.84276,9.41717 3.19571,-4.46075 9.09689,-7.28425 12,-8.05454 -2.65269,5.80572 12.87244,2.84103 2.02727,7.02727 -1.23687,7.91573 -8.57007,-12.06112 -11,-6.62435 3.39529,2.97906 16.62441,-10.3818 7.02727,-5.40292 0.74127,-3.69701 -7.1404,-4.36924 -3.02727,-8.97273 -2.39719,-4.85409 6.50972,2.24731 7.97273,4.97273 2.97305,2.51479 8.68028,9.03394 1.02727,10.02727 0.0729,-5.42069 2.41101,-13.67218 5,-16 7.44812,-1.59189 6.44761,4.87378 7.37565,8 5.26328,-5.53203 -1.06124,-7.73112 -1.37565,-14 -6.70738,-10.18383 -6.74703,4.27662 -5,10 6.12854,4.75823 -5.86786,5.06938 5,7 -3.09877,5.55422 -9.95381,8.84373 1.37565,5 2.22894,-7.31787 8.96708,0.5051 7.65162,-7.97273 3.55735,-3.86845 -9.13846,-4.08645 -1.41206,-9.25768 3.54472,1.00156 2.80524,-9.06291 6.38479,-5.76959 4.12434,-2.66473 -3.33904,-12.58938 3,-6 4.40572,-0.1046 9.48907,-2.57829 12,-3.37565 2.54979,3.98635 6.20406,-3.78251 10.97273,1.34838 3.60977,4.96171 2.64202,10.04504 7.40292,3.02727 6.47969,-7.23819 -12.36726,-1.01633 -0.14524,-7.61521 0.90089,-4.71345 -5.51802,12.43377 -10.60606,11.61521 -4.70839,2.77163 3.29971,9.72972 2.24568,4.3899 C 368.32217,255.88584 360.00395,261.09225 359,257 c 2.7949,-5.33999 -6.83791,-7.87486 -2,-11 6.04928,-2.63814 12.54597,12.91136 4,9 -2.28636,10.76304 5.06874,3.99919 2,11 -3.0267,-0.52752 -5.99113,-5.33981 -10,-4 -2.3269,2.28554 -3.6142,5.14531 -8,5 3.27264,8.11451 11.70142,2.97799 8,-3 7.73853,6.71661 5.71496,5.32707 3,-4 -2.71428,1.19351 -10.52897,-8.4049 -4.02727,-5.02727 C 354.89129,253.79151 348.26917,246.17665 343,247 c -4.90889,5.84732 0.86315,15.93572 -8,10 0.22237,9.79677 9.0922,5.36682 11.97273,3.02727 4.83983,6.96147 -0.0924,-9.93242 -3.04877,3.1248 -0.51238,7.48709 -0.15674,15.94571 -9.31275,8.48291 -6.70616,-2.41735 -13.26042,-9.57429 -19.84162,-9.01977 -5.75441,-6.83095 4.27651,6.51591 4.23041,-2.61521 -7.09348,1.98607 -18.42253,3.52735 -22.23041,6.38479 -2.97231,-8.86698 -2.88492,4.40476 -8.76959,-2.76044 -1.08465,-7.72153 1.07972,6.47633 -2.02727,8.34838 6.44952,-3.1783 5.56001,-0.7817 3,5 2.82259,8.71443 -9.12274,-6.92896 -1.97273,5.02727 3.42983,6.95005 10.09916,5.76034 5,0 9.85962,10.99237 -6.39698,1.21028 -11.69124,-0.84562 -13.78796,-1.94421 5.16636,-12.15037 -5.60555,-17.52537 -3.9916,-9.89832 -12.66862,6.587 -19.31842,-2.85942 5.55112,-2.79328 16.47703,-2.80715 24.08889,-4.53477 C 283.19846,252.06143 274.42782,241.6208 277,236 c -0.33702,-7.34039 4.34617,-15.14848 -2,-18 -1.94918,8.57538 5.03154,-6.9993 2,-10 3.17593,-4.05752 -6.14326,3.19062 -5,8 -5.51583,-4.77073 -8.90993,6.62948 -15.37565,1 2.56071,-9.36674 2.30451,3.66034 8.32111,-3.94546 -10.88346,-0.88842 1.59521,-11.13138 4.48956,-4.74949 -1.17611,3.60198 -6.78992,18.73157 -11.30505,12.08485 -3.95463,-0.73149 -11.98044,16.99849 -8.74193,7.72359 0.50506,-10.93407 9.52014,-11.87557 18.49108,-12.86888 11.82821,0.79546 13.61918,-5.69003 10.30278,-15.88039 C 274.84984,177.56718 271.38321,155.78963 268,134 c 8.22389,-0.68984 6.56843,-8.73934 11.97273,-9.02727 0.73894,6.89526 7.25156,-6.41827 0.0273,-7.97273 1.86478,-2.31702 0.43778,-11.79135 4,-7.62435 9.37802,-0.45485 -6.90989,6.69815 5,8.62435 -2.21915,-6.06202 6.43831,-7.10676 4,-13 -1.96815,-1.21769 -5.75125,-6.552613 -10.37565,-4 -9.79773,-1.627075 -0.45128,4.20393 5.37565,4 8.74373,1.48409 6.35681,-14.568228 1,-12 -7.51142,-6.426894 9.28354,-0.689517 -1.97273,-6.972728 C 282.48603,85.34301 281.12562,79.147614 276,82 c -3.65797,0.01866 -0.98661,-4.082047 -6.97273,-6.972728 C 269.73164,67.773251 262.32362,67.842021 260.62435,73 257.03432,75.220475 254.5181,66.255419 254.97273,67.027272 249.44003,62.886073 251.84663,74.711514 245,73 c 0.0276,4.197497 -4.72365,1.360391 -7,-2 -6.27681,3.864704 1.15954,6.085999 1,12 0.81082,-4.724434 11.98365,-2.485371 10,0 -1.59399,7.513171 -3.83723,1.946075 -4.97273,7.972728 -0.88178,1.670822 8.21316,3.890662 4,8 -2.11432,6.439842 4.5252,2.684612 5.91819,3.081812 2.30934,-3.545955 7.19303,-10.792306 8.43933,-1.82413 C 261.8559,101.60927 254.80202,108.53934 259,99 c -9.17072,-0.958043 -6.68916,-4.751892 -4,-7 -0.68208,-10.513963 3.55766,6.914143 6,-1 0.41475,-2.368018 -4.01382,-7.454763 -8,-5 -5.18854,-3.737701 3.60947,-3.007472 6,-7 2.65382,-6.801452 5.27182,1.175997 5.97273,-5.972728 C 268.92017,70.769796 265.41868,85.302448 271,79 c 5.24726,-1.65152 11.43939,-10.521033 12,-2 -5.50045,-0.09125 -10.97963,5.856623 -3,8 1.26822,7.232156 -8.38403,-3.561409 -9,4 1.64599,-6.161222 -2.2543,-5.747056 -5.97273,-8.027272 C 260.38253,87.538497 258.05542,80.366354 255,78 c 2.07576,-4.104758 -5.22749,-11.112066 -3,-1.624355 -3.58771,-2.699885 -5.93188,5.283405 -9.97273,-0.348373 C 238.88557,84.018745 232.4979,76.227285 232,83 c 5.59883,-0.455371 1.3522,8.335319 8,2 7.10024,0.240198 7.45141,-7.355163 13,-7.375645 0.15189,2.690575 -1.03421,13.147029 -2.97273,12.402917 4.49659,5.20366 -7.74747,8.299419 -4.65162,11.972728 -0.50196,0.4666 -11.61149,-2.732482 -1.40292,-6.972728 -9.73352,-5.581516 -4.18698,-6.134574 -2.02953,-6.907939 -5.172,-6.331643 -11.80816,0.177871 -15.91593,-4.146605 C 223.97102,78.697534 218.53007,83.722001 219,81 c -0.026,-5.857289 -6.03217,-7.457396 -5,-2 5.8238,2.273175 -0.045,3.007526 -1,5 5.69693,1.30972 4.01334,3.427516 5,8 2.66689,3.029527 8.56204,7.084847 1,9 -3.49688,-8.035035 -4.35882,7.09647 -6,-3 5.42559,0.245515 0.44855,-13.432045 -2,-9 -1.79697,-0.58597 -5.20262,11.86853 0,11 -0.87769,-9.733821 1.9955,2.51983 7,-2 1.8683,-0.265644 -2.13954,-3.458789 2,-8 7.09049,1.318119 -0.0889,-11.098075 1,-3 5.50941,3.168681 3.92309,10.247106 -1.284,1.596666 C 212.24902,84.144178 212.36324,99.9793 209,88 c 6.92369,-5.609316 -10.88438,0.202487 -4,-5 -3.94586,-5.590768 3.03824,-6.07862 2.37565,-11 3.78078,6.264505 -5.9805,-1.539922 -8.37565,1 -6.08066,-1.880555 -9.20091,6.32375 0,3 5.34504,-2.795005 1.5301,13.553369 -1,6 4.34284,-4.644528 -4.24369,-3.419589 -5.28921,-4.473858 C 187.10137,77.055229 194.41257,84.064799 192,85 c -5.03448,3.419147 -3.93098,0.597392 -5,-4 -3.91539,-1.626803 -7.39827,-5.019294 -1.02727,-3.027272 C 190.82908,77.627544 191.6686,69.676828 186,70 c 1.77868,5.71487 -1.22748,0.765322 -4,-4 -4.90331,-6.052766 -9.69061,1.940674 -13,-1 -7.09977,0.340593 2.96835,4.705112 -1,9 4.40664,-1.310892 8.12805,1.139866 5,4 3.35826,6.999755 6.47807,-1.452457 10,-4 -5.24493,-1.834533 -8.78696,5.1844 -9,8 2.29296,3.843169 -8.21776,1.325954 -2,5 -2.7218,7.189903 6.55183,0.646197 4,-3 9.12028,-3.758729 1.03653,2.955835 3.97273,3.027272 C 186.23905,85.625051 186.45099,98.872256 187,88 c 3.25865,7.291551 5.56156,-4.752046 10.97273,1.972728 C 198.39112,87.66316 197.91402,82.780731 204,88 c 6.07225,0.640396 -2.54736,6.006665 -6,5 -2.13715,4.965054 -9.30892,-6.137869 -10,3 -1.93106,-4.596337 -3.8421,5.42326 -10,1 -1.91119,-4.385963 -11.39456,-5.773401 -9,0 -3.57109,8.01224 -1.87679,-4.259039 -4,-6 -7.75065,1.381138 -0.67067,5.641553 -1.97273,7.972728 C 161.52979,103.81463 163.78895,105.97086 158,107 c 0.17444,1.70915 0.47408,12.73766 -5,3 -5.02813,-1.22105 -0.79028,-14.241115 -6.97273,-5.02727 C 142.08111,106.09546 142.46074,98.733917 143,96 c -3.14061,0.550622 -9.50268,1.034168 -1.62435,-3 -2.42048,-2.656262 4.57885,-9.627824 -2.37565,-6 -6.652,-2.721974 -3.01687,-7.029166 -7.37565,-9 -5.87637,-5.888891 1.9004,6.631822 -2.85476,8.615207 -3.98304,-4.946876 -16.34837,-0.154787 -5.10045,3.052079 0.2259,5.164628 14.59797,-4.497202 9.71565,4.563129 C 130.70949,94.773336 141.34104,100.4814 139,105 c 4.58488,7.56816 15.20441,-3.04795 12,-9 -0.71001,-5.072554 -1.30144,-10.004591 4,-7 -4.54544,4.808892 2.7266,6.737086 0,11 -2.75516,7.86443 5.30582,1.13993 2.97273,-0.972728 -0.72839,-3.683814 -0.60893,-6.961948 0.0273,-11.402917 -5.83668,-2.839353 3.32811,0.08305 6,-2.624355 9.53687,-0.557027 -1.03378,-6.478969 6,-7 -2.99656,-3.800455 -9.70098,2.971464 -5,-5 5.12782,2.204877 -9.13635,-5.118301 -9,-4.375645 C 159.91876,59.184968 149.44095,61.068962 146,59 139.48957,64.715941 142.91911,53.187565 138.02727,57.027272 138.08867,53.776273 138.98448,47.626989 141,44 c -6.26591,1.098018 -2.43603,-11.883979 0,-6 -1.64776,3.588992 7.79585,7.356459 7,1 -6.69407,-4.424871 -2.20908,-7.038773 4,-5 2.51119,10.855502 -7.83567,-3.000713 1,-2 -0.0493,-0.421872 7.53108,8.624781 4.05454,0.05454 -2.51335,-5.166186 1.74849,-5.162893 -0.0273,-9.027272 C 155.77523,14.340389 154.41038,31.216247 150,27 c -3.6416,1.449908 -11.69378,-0.09711 -5,4 0.88643,4.16506 -8.29036,1.405094 -9,-1.375645 4.44197,1.082981 6.64483,-1.811462 2.02727,-4.651627 C 135.87042,22.316338 123.78249,28.829131 131,32 c 3.03339,6.570772 6.95994,1.807189 10.30505,2.435017 C 147.59115,42.763181 145.3009,26.231866 154,29 c 1.59106,3.323343 11.38388,2.852518 10.97273,-0.972728 -4.40812,-6.143258 -9.6709,4.683068 -2.53771,-1.332324 C 166.09045,23.936693 170.15417,26.565326 170,31 c -4.82726,1.905214 -13.40264,1.87936 -1.49742,3 2.42589,-3.631569 10.65075,-7.876877 6.49742,1 -5.77952,-2.129251 0.52922,-13.853967 0,-14 -2.56745,-7.496276 -5.36834,-2.190252 -8,2 -1.80135,2.628379 8.76148,-0.276353 0,-4 -4.55015,-2.492563 -5.28502,2.167923 -6,6 0.0697,-9.582295 -9.77674,-6.16341 -14,-3.624355 0.84114,6.379958 9.78608,0.825098 0.85539,2.387426 -5.89391,-0.363413 -4.81089,1.116258 -12.46549,-3.633106 -8.29293,-6.208781 -3.77175,10.609899 -11.36263,2.897307 C 120.87207,23.160257 118.65784,12.13564 122.75129,13 130.59759,12.703922 117.76442,8.9553189 116.02727,7.0272718 108.08397,4.9168552 115.15533,0.2829664 119,3 c 2.07188,4.5417763 11.15466,3.7319464 8.97273,7.972728 C 135.27497,14.134281 132.20662,14.487882 126,19 c 0.21959,7.620589 -8.41353,6.820985 -3,14 0.61649,4.368446 0.59567,9.583839 5,11 4.72327,8.795355 -7.54348,-2.010514 -3,6 -6.67215,6.348394 -13.03113,-12.066201 -13,-2 -0.60289,10.443527 -8.95586,0.267862 -6.94546,-5.945456 -6.422818,1.569987 -4.41805,-9.618845 -12.284955,-6.439337 C 91.303641,35.186788 86.063516,27.302191 84.027272,34.972728 81.694824,43.254468 88.089714,34.019939 89,37 90.87342,42.758399 86.875404,39.827908 83.027272,40.972728 78.399067,47.32785 85.297422,42.486759 89,43 c -1.245803,8.181854 -0.138136,-2.217878 5,2 8.44363,-8.060991 -4.035582,-4.909597 -3.027272,-7.972728 C 93.183791,31.955781 94.105938,22.18701 89,29 86.608063,25.189759 97.031854,24.053394 94.375645,20 95.638104,13.287924 88.245154,19.276746 88,23 c -1.526669,1.035325 6.646898,-0.253583 12,2 -4.204352,-3.235879 -4.923588,-10.823349 2,-8 -1.19124,5.610817 7.7276,9.460161 2.62435,12 -0.53928,9.815989 4.89179,-0.738937 6.37565,-4.375645 6.16308,-7.605831 -4.74133,-0.455891 -6.33364,-5.958927 C 106.39035,12.318789 95.814104,5.2170632 105.37565,5 111.89097,1.3518246 100.92298,-2.9288329 101,3 95.904134,1.8768276 89.455787,-0.33083692 92,5 c 3.652171,-3.4121139 6.798835,1.7581801 2,4 -5.239335,-0.8446216 -7.056976,5.294829 -6,-3 -3.842807,-0.9853439 -1.858528,9.81861 -1.435017,6.305052 0.433782,3.355229 3.493439,5.443955 6.407745,2.72222 -2.013559,-6.928787 5.15012,-1.612665 8.000002,-1.054544 C 100.0685,10.613585 91.069607,2.2393891 93.564983,9.3050519 92.618239,15.603521 98.867884,23.083617 104.69124,17.154378 108.66533,14.888549 120.11074,17.240905 113,18 c 7.4405,-5.029806 -0.62916,-8.9951969 -3.61521,-8.7695853 -5.25673,6.6620293 -5.78401,-5.7300858 1.23042,-4 C 107.22633,15.42047 121.8277,14.936805 118.43502,24.305052 123.24724,36.812341 113.17471,28.691907 114,36 c 3.50974,1.092081 13.35601,10.297248 4,8 -0.99122,4.477237 6.2942,-12.978043 10,-8 6.09685,-0.522099 -6.27462,7.847447 4.37565,5 3.64439,-6.590598 -0.71278,4.147483 2.62435,3 1.6577,1.156601 -2.99568,7.796949 -3,12 -0.29834,2.94468 -2.26241,5.700292 -4.23041,11.615207 0.82804,5.713294 -3.5244,11.347982 -10.37969,13.254828 C 115.46757,90.205091 107.35873,87.091983 107,78 104.18377,72.775036 107.77827,66.843026 103.15191,70.632768 100.53893,62.448847 111.2863,59.427421 116,63 c 3.70003,4.679994 0.38336,9.534958 2,14 7.56856,-6.634852 -12.77707,-4.129691 -4,-11.751291 5.42733,-7.288813 1.46865,-9.523729 11.14461,-11.01178 C 127.42595,48.961284 131.83354,57.289116 136,60 c 2.92935,9.612054 -3.91961,9.811622 -4.37565,4 -6.96921,0.0243 -12.34586,-2.947342 -20.23725,-7.306452 C 104.64127,53.578074 96.495228,45.721744 90,49 c -1.962528,5.999511 -2.198189,5.224264 -6,9 0.993961,4.142638 7.846059,5.49005 5.624355,9 C 85.537255,75.205828 85.398136,59.391486 82,66 77.077977,60.368513 82.100976,60.888897 78,57 73.294493,51.941355 72.172408,61.348753 76.972728,61.972728 75.046804,63.795034 67.611492,61.244132 75,66 c 0.07132,1.552645 -4.298799,9.348509 0,13 -5.013113,4.117666 -2.976867,-6.010436 2,1 3.276925,-0.823264 12.896102,-5.500142 3,-6 -3.178738,4.107619 -5.664617,-4.776935 -2.027272,-7.972728 C 79.132901,59.705097 74.687184,68.131593 81,68 c 4.344509,-3.573576 4.895705,3.047377 7.027272,5.972728 C 82.677327,72.783794 88.9197,79.624484 84,82 c -5.660798,-1.349897 -5.447562,0.460246 -5,7 5.932524,-3.963889 3.291228,6.104415 -1,2 6.4469,7.846006 -9.327158,-0.379106 -2.027272,-0.02727 C 79.48875,80.361481 71.924743,92.472079 70,90 62.442668,86.566722 61.581057,97.577996 59,98 57.421636,91.229096 61.613326,89.725549 58,84.624355 62.943597,85.041379 68.756704,86.466433 70,80 68.133715,74.578563 71.916908,68.209572 67.624355,66 66.551536,58.534896 64.663451,65.544319 62,66 c -2.323421,0.293446 -14.392564,5.055204 -5,5 7.94823,-0.382242 6.414556,16.045684 1.027272,8.027272 -4.600449,-5.010005 -3.26847,-6.275766 3.073244,-2.852659 7.537429,-1.912144 3.053312,-13.987283 6.769519,-6.564509 2.135401,8.037455 -5.250236,1.773009 -7.515467,-1.365942 C 54.030648,62.375535 47.104914,72.741268 49,63 53.344367,56.320771 36.778571,67.813767 48.945456,62.054544 52.676236,56.985087 57.868889,60.396912 61,56 c 3.47753,-4.533999 4.04397,6.805219 8,3 8.602471,1.789147 -1.171865,-9.558835 4,-5 1.345045,-2.846182 2.173182,-8.681538 6.972728,-8.027272 -7.511431,7.572617 4.3225,0.08577 4.642479,0.257687 2.45574,4.820808 11.697949,8.312055 8.21018,5.870101 C 95.37925,56.431243 87.652676,65.105707 86,57 c -3.796243,6.56042 -9.497009,-6.119494 -3,-3 -2.406748,9.389035 5.094015,7.030157 -2.052283,14.578425 -5.299507,4.226799 2.748682,3.265097 2.052283,10.172866 1.258864,10.933612 0.229323,4.236286 6,2.873064 C 86.732405,78.941458 94.930732,65.491351 83.036525,75.431302 79.015743,78.507073 74.848135,82.110543 74,85 69.472322,89.524362 70.040374,77.820124 74.269786,80.651069 74.465848,74.843055 68.197862,71.83629 73,68 67.960312,66.125661 68.354898,58.359807 71,60 70.005366,51.584695 64.006986,59.220771 60,59 c -4.375179,3.598785 -9.817938,-8.975415 0,-10 3.025043,-3.573339 10.916069,-5.410639 4,-8 -1.955367,3.039894 -4.473956,4.178916 -9.751291,2 -1.58159,2.158688 -11.960834,7.921944 -2.248709,5 2.512116,1.359599 9.883842,-4.103805 8,4 0.203917,2.604073 14.438261,1.950941 9.129965,-0.610104 C 69.224087,48.205033 79.925812,47.438979 71,45 c -7.561,1.634808 2.915704,2.860315 0,-4 -1.496653,-3.695074 -1.98749,-6.631093 0,-12 2.848461,-1.606606 0.604421,-8.557283 5.972728,-8.027272 8.126098,4.82622 -4.159713,2.557653 1,8 C 71.943776,29.765157 74.4258,30.404009 77,35 c 6.395748,2.657445 2.852463,5.54422 -1,10 -2.892206,-8.877764 -9.150784,0.806432 -8.384793,-6.230415 -2.241996,-6.33856 8.584932,1.665453 5.412065,-3.796857 -2.988828,-3.680038 6.938944,-12.793664 0,-11.945456 C 73.546774,19.166064 70.311901,14.4211 72,11 74.884021,7.3516833 69.715734,-1.6444007 67,3 c -6.224567,-3.38156092 0.575257,8.802641 -6,5 -1.553764,0.6610973 -4.285657,-9.3145391 3,-7 6.304994,-2.2673881 10.191318,-0.76486545 11,4 -0.04008,1.2227915 0.688226,5.087431 0,10 6.289028,5.920845 -4.20386,0.677193 -5.615207,6.230415 C 65.607606,22.888583 59.382469,30.425366 68,27 c 1.851343,-8.368445 4.649351,3.767089 -2,3 -3.723234,7.282848 -6.147778,0.473858 -2.972728,-0.972728 6.860174,2.500449 2.103319,6.342422 0,8.945456 C 68.785723,41.643204 65.82311,51.590006 66,52 c 6.863451,-3.236059 16.316971,6.960587 11,-2 6.488764,2.051072 13.137826,4.47263 5,0 3.95548,-0.373577 -9.419834,-13.811953 -2,-15 2.122739,-3.175976 -7.025703,-2.221719 3,-4 -2.393058,-4.808306 -3.002214,-3.277222 3,-5 -2.117503,8.202015 2.401038,-3.918922 -3,-6 -2.682443,-1.627366 -0.0936,10.128762 -5,-1 1.735691,-6.87458 6.932992,-5.154693 6,-2 -0.81142,-1.762959 3.217051,7.882894 3.201033,0.349225 C 93.078579,12.280383 89.146999,7.3562107 88,2 84.270849,3.4482177 80.011743,11.463758 80.972728,3.0272718 79.51916,-1.7029929 84.299217,1.0196203 89,1 93.825186,2.5733134 82.52773,5.8695506 83,12 80.050734,15.365906 76.895367,0.48291016 79.236929,9.1446062 77.251355,19.274852 75.598749,10.871827 70,14 c -8.631821,-0.08863 0.420934,8.331088 -3,-3 -0.03582,-3.8931324 2.993205,-8.7365934 3,0 8.957548,-1.2530382 -8.385545,-3.9914728 -7,3 -4.707591,-7.8158326 6.345771,-1.685822 1,4 0.188491,-1.792829 -6.071631,4.80204 -3.972728,-3.972728 -7.133077,-1.4337 6.267183,3.180952 6,6.945456 -7.773422,-3.581953 -3.450093,13.32347 -6.767341,1.807064 7.499648,1.99846 5.22212,-12.576953 -0.870035,-12.9097574 0.68549,-10.80847616 6.278728,-4.4757452 9.840519,-5.485242 C 73.653872,-1.1759135 75.561436,0.94150765 80,2 87.409667,3.5655808 79.481198,5.7554755 92.676577,2.3308557 106.29625,-2.6974554 99.063702,4.3648264 100.17162,12.745933 101.7721,21.273644 100.68888,27.013 97,30 c 0.522517,3.894531 6.5737,7.722723 11.76307,7.855394 C 109.15784,32.476281 97.126576,28.26976 91,31 c -8.405749,8.34e-4 -13.845986,6.885501 -14.305228,14.49411 -1.310234,6.829724 2.706059,19.288974 -7.488025,13.88021 -6.96831,-2.98696 -15.420076,-7.297895 -20.495959,-6.900462 0.275056,5.136897 4.745178,15.886416 6.628536,23.175076 -0.164897,10.190534 16.330904,1.032684 11.355624,11.786083 -10.025756,3.566387 6.886133,5.163744 4.332324,8.537711 C 67.856081,94.459777 65.070447,103.1972 71.375645,102 75.925453,98.773507 69.12773,113.97216 76.972728,107.02727 86.080616,107.82361 74.031471,105.95652 78,102 73.499037,100.69569 69.246791,96.231951 74.615207,96.230415 78.065644,96.390443 78.733905,103.10886 83,97 c 4.902977,9.92217 -7.400025,2.56958 2,7 4.599394,-0.54065 -0.975449,-12.703882 3,-17 -3.427614,6.839063 -15.573406,13.21509 -11.349225,21.20103 C 75.592457,115.41262 83.737032,115.09715 83,109 c -2.798102,-6.42272 10.616997,4.35417 -0.230415,5.61521 1.121804,6.38066 -4.737911,4.91213 -5.796857,6.35752 1.793307,8.4532 8.16388,-1.3106 9.027272,2.02727 3.504738,7.7385 -4.784325,9.20581 -6,6 -5.314204,0.37699 -2.097502,5.59042 -3,10 -5.049289,-1.00149 -6.102606,0.43601 -10,-4 2.295869,-3.03004 3.857938,-0.67444 3.972728,-7.97273 4.786258,1.49106 -1.499122,11.75822 9,7 5.400686,1.8834 6.932511,-3.68963 7,5.94546 C 82.035852,139.50608 85.965909,153.29042 88,144 c -0.07978,7.82191 5.332245,13.60645 -1.972728,15.97273 C 83.959426,155.27996 86.517853,156.67747 85,151 c -8.019384,-1.06091 0.564557,-11.06055 -3.972728,-12.97273 -5.102542,5.70741 -4.835665,8.14147 -2.049076,10.52724 C 77.210919,152.76999 78.241372,162.31805 72,157 c 1.942253,-5.25304 -7.108928,-5.39895 -8.615207,0.23041 C 57.35448,160.6463 61.083235,148.90359 66,151 c 0.05064,-4.07241 -7.021654,-6.19821 0,-11 0.680457,-1.82067 8.335105,2.88871 7.027272,5.97273 -6.45649,-1.14923 -7.547207,-3.50241 -3.642479,2.25768 C 78.403407,154.97785 68.696556,143.46789 68,156 c -2.263008,5.24803 11.316696,7.22088 2.624355,10 -4.84877,0.331 2.608841,-11.948 5.375645,-2 -1.333178,0.58503 -2.209794,9.17333 4,5 -7.090286,-9.31864 1.937393,-3.72781 2,-7 -3.062439,-6.90462 -0.672484,-8.6184 2.972728,-0.0273 C 89.227505,164.16705 96.724317,166.50005 91,171 c -9.928983,-0.60915 6.982115,-8.03231 2.467294,1.83176 -0.01532,9.24851 -4.062528,3.67086 -8.440022,11.14097 C 89.497005,190.12187 75.353662,190.58871 81,185 c 0.165942,-4.97568 4.773493,-2.17791 2,-8 2.778008,-4.85036 -13.718042,-0.59246 -5.769585,3.61521 C 81.396245,189.17082 63.964244,186.11856 74,184 c 4.784135,-3.65257 -10.371279,1.47989 -5,6 2.109496,4.86697 7.246308,8.25697 4,1 0.703666,-4.95443 8.062825,3.29001 4.027272,7.97273 -8.537913,-1.81526 6.911,5.20638 2.972728,9.40292 3.431801,-2.06742 8.740056,-3.10203 10,-9.37565 -2.027819,-3.71604 10.13325,1.14187 3.027272,-5.97273 C 97.797337,195.28332 103.15221,193.75629 96,190 c 0.240464,-5.61782 0.794806,-11.57175 4,-1 2.49477,5.78527 0.35443,11.48886 5,16 0.0412,8.45936 -5.237457,6.2276 -4,-1.75129 -4.506081,-2.7223 -6.095915,5.20286 -11,0.75129 3.826851,4.95713 6.494063,12.27276 9,6 -3.496551,-6.15899 -4.081294,-13.74369 3.6101,-10.87003 5.71066,-1.23243 3.04223,-10.74392 9.3899,-3.12997 3.18797,-2.79861 5.32495,-9.84696 5,0 1.58333,9.43953 9.50521,-1.98836 1.34923,-6.20103 -0.0595,-7.91371 -11.87134,-9.42593 -6.40377,-0.85351 5.0821,1.99053 14.86958,-7.96286 4.05454,-7.94546 -2.84895,-3.72356 -9.45555,-14.21177 -10,-4.87306 6.92841,8.69301 -10.934401,8.17635 -9.615207,-0.35735 C 93.652532,178.30335 91.612506,187.91019 87,185 c -2.060055,2.9846 -7.745632,7.24325 -3,11 5.776807,6.26136 -9.567414,8.18041 -1.027272,0.0273 5.89948,-2.94452 5.415412,-6.33959 8.150563,2.51155 C 90.906574,203.05874 91.692984,214.484 86,214 c -3.959216,-5.03259 9.636372,1.5327 14.23041,0.38479 4.14059,0.20726 5.30672,5.97789 9.76959,6.61521 7.77289,-4.34039 3.73453,2.63706 0,7 -3.30275,-7.95173 -11.029763,-0.80301 -3,3 5.89754,10.52083 -5.51774,3.8887 -0.43502,-3.30505 0.72964,-7.65077 -7.108251,-3.44342 -6.940625,-9.69495 4.981725,6.24803 7.670255,-7.84899 9.375645,-6.37565 0.55352,-6.42385 3.15512,-9.91573 6.23041,-2.00914 -0.56882,4.55284 -2.23376,9.516 5.76959,7.38479 2.2787,-6.04443 2.52005,10.47395 -2.76307,6.14461 -3.15015,5.31778 1.88476,10.23953 2.13872,13.85539 3.32006,2.84687 4.88551,12.128 8.62435,5 6.35275,-1.52838 0.216,-12.78081 2.37565,-15 8.07276,-2.2554 -4.46611,-12.4927 -4.32111,-2.05454 0.11552,0.5197 -5.4895,4.63209 -2.05454,9.05454 8.79377,1.72598 -0.76847,9.51487 -2.84562,-1.69124 C 120.38754,223.14346 109.26508,228.75681 112,237 c -5.61451,6.16509 13.05187,5.50659 4,10 -0.13673,8.01621 6.337,1.26761 10.14461,0.23693 5.31614,0.96891 12.42373,2.15195 13.85539,6.76307 -5.59285,6.7467 6.36333,10.03171 -0.38479,12.23041 4.43439,1.9887 10.93634,4.60924 13.38479,-1.23041 1.77881,-11.87603 7.20031,5.53275 3.02727,8.97273 6.66434,0.63002 -1.02423,8.19413 -4,5.05454 C 154.64571,268.37734 151.12019,271.04015 145,277 c 2.0362,6.15464 6.4796,6.52465 7.97273,12.97273 9.15018,3.53914 -2.5563,4.31961 -5.58283,-0.84276 C 148.31156,284.7049 138.00574,288.00972 142,280 c -3.13043,1.09235 -8.74194,-10.93694 -6.05454,-11.94546 1.82982,-4.62967 7.83935,8.85541 0.0545,9.94546 -0.82,0.45264 4.44613,7.59874 2,10 0.2776,6.90292 1.62388,7.13359 1.97273,11.97273 6.64351,1.38423 11.12991,4.69855 4.65162,9.02727 -6.69061,-0.7335 -7.71674,-7.46601 0.37565,-4 -4.60428,7.54946 -7.02404,2.92373 -13,3 0.0899,-2.74988 -10.29799,-11.3376 -4,-9 10.04405,1.99122 5.64675,3.22463 0,7 -2.54576,5.31807 7.81907,13.95806 7.02727,8.02727 6.58211,-2.35952 0.64343,11.49725 8.34838,3.97273 3.5402,-0.30376 2.64302,8.79676 -2.34838,7.97273 -2.68427,-0.51365 -11.37201,4.47976 -7.79686,-1.35752 3.9961,-1.63304 -10.0793,-14.935 3.27217,-12.61521 4.74164,0.22773 12.35177,3.96871 12.12177,0 -6.52558,3.0525 5.36897,10.5676 5.34838,15.97273 -2.16713,2.52963 -10.29037,-7.17934 -9,3 5.44571,-0.12419 3.20035,12.49121 7.02727,4.02727 5.94729,-2.03645 3.62589,10.68662 0.38479,12.23041 3.16481,2.3761 4.6142,15.93295 10.61521,7.76959 9.06659,-3.44998 -2.50032,-4.28602 0.43502,-9.30505 -3.32771,-6.27861 -8.77964,-1.25132 -2.05937,-10.69495 11.67065,-1.15311 1.35048,10.47749 7.62435,16 5.03199,2.39555 11.6897,4.81569 12.38479,11.23041 0.86737,3.53929 -11.75552,5.82263 -5.41206,12.74232 8.16389,4.7037 3.74153,-11.69117 6.97273,-6.02727 5.83539,5.25326 -2.37391,9.04713 -4.17587,10.66975 -8.03933,-3.69056 -0.78177,5.69585 -1.76959,8.38479 -4.30439,-7.00373 -8.14975,3.26511 -3,6 4.82248,2.55423 9.9329,-7.31177 13,1 4.49498,4.02282 -1.03221,-14.5322 5.97273,-6.02727 4.06872,5.39206 -5.07646,2.75238 0.0273,11.02727 1.87173,5.64032 0.13179,6.09487 2,12 5.30084,-1.64427 12.2046,-5.54873 5,-8 -9.30563,-3.95381 8.75326,-4.48702 -3,-8 0.13392,-5.2341 -2.8564,-13.95991 -9.6101,-11.12997 -7.12538,4.00078 3.2311,4.04898 -7.3899,4.12997 3.11343,-1.7539 0.43138,-9.31248 -8,-6 -1.08908,-4.76596 -5.29944,-10.33113 0.38479,-9.23041 C 167.08701,369.51687 164.75693,369.49297 161,364 c 1.75108,-3.64962 13.32914,-6.11009 11.38479,1.23041 -4.63048,-4.03702 -7.75849,-0.20568 -6.28941,8.1973 2.64034,6.99699 -5.97763,5.56858 -6.48017,-0.65812 -0.31737,-6.19255 -11.84276,-4.3493 -9,-10 3.73809,-5.6012 2.5798,-9.88417 -1.23042,-9.53918 C 144.22777,354.03089 141.05858,349.25622 144,346 c 5.47188,-8.62314 7.31282,-0.65675 1.73021,4.34893 C 143.026,358.98542 150.60919,361.29554 157,361 c 3.08426,7.10794 2.87045,12.91249 -5,7 1.06112,9.03636 -0.0939,10.11373 2,17.37565 0.77971,8.53579 12.74182,-4.0791 9,4.62435 5.65151,2.63904 5.86564,4.4209 10.94546,6.94546 -3.86654,7.33579 -7.79172,-3.82108 -11.17587,1.43933 -5.82806,1.1347 -3.27586,9.50562 -10.76959,7.61521 2.40718,-4.85353 0.81324,-5.41659 5,-10 7.97578,-8.23473 4.46776,5.4075 -3.94546,-1.94546 -0.33183,-4.95277 1.41088,-10.24511 7.17587,-12.43933 -1.6711,3.87825 8.99225,-5.10667 8.74232,4.35752 0.37691,-3.08648 -5.50824,7.46114 7.25768,5.41206 8.96672,1.84937 6.11887,8.655 0.53918,10.23042 0.87562,1.72102 5.64844,6.09568 9.20314,10.35752 3.50082,-3.36446 -5.41686,-6.00933 -1.94546,-10.94546 5.77557,-6.18264 6.35671,0.013 2.94546,3.94546 8.56181,-3.93721 0.17913,13.18774 10.17934,3.95123 1.52822,-5.53289 18.09991,-6.96293 7.84793,-7.92396 3.24308,-5.7061 -0.38776,-6.32633 -4,-8.75129 4.88835,-4.1477 -6.30601,-2.4508 -4,-10.24871 7.95766,-3.11742 8.82467,5.81259 -1.22021,2.25993 -4.72982,-2.84846 1.77478,-12.7447 -4.75252,-14.23266 -6.0177,-1.37761 5.99178,12.12839 -4.77856,9.97273 -0.38038,3.24023 -2.29238,-8.34956 -6.17451,-9.85936 12.41293,-9.78638 -8.20105,-5.21268 -6.0742,-12.51629 -3.72256,-5.73711 -18.32784,3.00802 -15,-8.62435 -4.69752,-2.86776 -21.95634,-2.26855 -15,-10 -6.56734,-5.70641 -0.13517,-7.846 -5,-10 -7.07964,5.12898 -0.62601,12.34216 6.86907,5.41335 C 153.31794,332.0025 157.00299,325.38507 160,323 c 2.27505,9.46722 0.65292,8.17455 3,-1 4.12005,-4.12972 2.47341,-8.56249 6.61521,-10.76959 4.05743,6.017 9.66581,6.97472 6.38479,-1.23041 -4.80109,-1.82002 -5.6257,-3.25106 -9,-9 -6.18696,1.45443 0.55808,9.99891 -2.37565,4 -3.90859,1.58261 -10.2064,-7.01279 -4.2487,-8 -2.67999,-4.69677 13.02908,0.32876 6.2487,-4 -7.18172,0.41302 -5.24103,-9.29533 -0.65162,-4.02727 4.49341,2.04351 1.99933,-9.61388 7.02727,-6.97273 6.39322,6.15067 6.14415,-2.42081 13.6101,-1.12997 5.03916,-3.32911 6.24276,-11.66974 12.3899,-2.87003 2.89101,7.70902 12.1621,5.99551 15.91818,-0.91818 9.70522,-8.75174 9.36311,-8.24337 0.0939,0.43302 C 211.00551,280.33629 202.2067,292.08608 201,288 c -1.28595,5.71124 -8.85456,4.52658 -4.62435,8 -2.25404,3.98093 -7.94927,1.71627 -4.37565,9.37565 -5.67651,4.1734 -0.70138,-0.12452 -2,9 -1.17044,3.73117 -1.48171,13.03366 0.62435,13.62435 -6.07439,6.96147 5.92248,2.41581 1.37565,-8.37565 -1.36131,-7.95234 8.99452,-10.17126 12,-4.2487 3.32708,-0.96048 5.46744,-6.76638 8.97273,-10.34838 3.16582,-10.5584 3.30791,11.25554 -2.97273,9.97273 -1.07599,-2.16251 -7.58072,7.74447 -2,9 3.27581,2.79984 4.25955,10.95895 9.37565,6 2.67897,5.30678 8.31042,2.93146 12.62435,5 7.32495,-2.61807 -4.11779,-1.39092 -2.97273,-5.97273 8.44325,4.34907 4.91804,-7.87937 10.27428,-2.55111 0.73695,1.58878 -2.49625,7.39174 2.67118,11.49657 2.30701,-2.54527 -2.85485,-4.86496 2,-9.94546 7.44583,-3.75744 -3.48198,9.16966 4.02727,6.97273 3.87318,-3.34112 7.21574,-4.18304 8,3 4.60152,3.48367 6.23411,5.14404 4,-2 -0.10533,-6.36134 7.218,-4.88292 2,1 4.64497,3.40468 6.7422,-0.38563 10,1 4.41007,-6.06104 4.68313,2.1839 1,4.37565 4.64116,4.71118 -4.67082,12.0229 0.97273,12.65162 7.05607,1.54663 2.44847,8.3688 4.02727,9.97273 -4.91411,5.87322 5.78885,5.38411 4.76959,9.61521 -4.69421,6.17907 9.09332,2.21086 8.20314,3.41206 C 289.94374,370.34968 278.68046,382.01491 278,378 c -5.80883,0.0811 -3.66923,-9.30977 -9.97273,-6.02727 C 264.02093,369.52599 259.39565,368.27635 255,367 c -6.74329,-1.12626 -7.63869,6.46974 0.37565,6 13.05642,-1.84086 -0.55758,6.58363 8.95892,8.33364 6.35053,5.96595 9.9718,2.7534 4.66543,-2.33364 -8.53703,-2.52039 4.65841,-9.62129 1,-2 10.62239,-0.10169 1.09716,-12.82004 -4.37565,-14 -8.7506,6.60069 -2.19215,-3.3531 -9.62435,-5 3.31389,-6.3645 -13.60023,-5.32397 -8.02727,-0.0273 -3.11383,4.32089 8.90981,7.77419 7.02727,3.02727 -3.04118,-8.14036 -3.97601,0.78382 -8.71872,5.1484 -4.96124,9.76595 -6.65705,-0.0186 -8.75744,-6.44995 -1.67589,-2.78249 9.55121,-5.6433 -0.52384,-8.69845 -0.57566,1.27035 -7.0258,-2.34381 -9.38479,0.23041 6.77853,2.9817 -2.61261,-14.13892 -1.64248,-6.25768 4.25818,-2.0311 8.95564,-2.31511 8.02727,-8.97273 7.03009,-3.76226 -6.54069,-0.18141 -5,2 -5.22684,6.6319 -4.06085,-4.8627 -12.37565,-2 -0.33871,2.55086 10.3587,10.87503 0.22725,4.28128 C 210.94727,332.83688 210.62084,336.31135 206,330 c 6.99142,-2.27821 9.28061,-7.93953 16.23041,-5.61521 5.87042,3.30294 -9.77552,12.19365 -4.23041,2.61521 6.36703,-8.92779 -11.96248,-5.98417 -11.12329,-2.46118 -4.83492,8.61601 -11.16935,-9.33044 -6.70914,-13.59649 C 201.82853,303.53308 190.37236,303.59485 188,296 c -4.66961,3.39548 -10.88958,-5.52725 -7.02727,-6.97273 2.73172,-12.0951 8.12951,6.03882 14.56609,-1.15056 C 197.16853,276.94167 187.23551,285.38662 184,292 c -5.33179,6.69652 -11.6458,2.06886 -12.97273,7.97273 C 168.71343,296.32278 174.30697,287.37995 169,289 167.54376,279.13899 156.30908,285.52267 158.23693,286.85539 155.74144,279.1524 148.08726,283.95358 149,278 c -7.62843,-7.27242 -5.08503,-8.38405 -2,-16.37565 11.2521,-0.36129 -5.51172,-6.94092 0,-8.62435 -5.16185,-7.3712 -2.86553,9.71753 -4,8 4.64552,-7.00109 4.86402,12.11529 11.48357,-1.16902 0.63162,-12.46813 1.41621,-3.11444 9.20376,3.79382 5.40291,1.14284 5.14305,13.99112 -1.68733,13.3752 2.51538,-4.99685 -3.90666,-10.80582 5.87823,-9 11.58209,1.22529 -3.86528,9.40142 5.12177,11 7.13131,1.38571 2.11875,-13.91061 2.67846,-5.92921 3.45986,8.46107 -5.07104,12.55313 -0.70573,19.90194 0.97578,-6.23007 5.01494,-4.59408 3.97683,6.37161 -6.34272,8.55281 2.04377,4.25401 5.42609,6.65566 0.40863,4.71013 8.20783,15.75164 -3.20076,13.85314 C 172.16769,323.23289 166.63269,309.16302 158,314 c -3.74691,-4.76689 -5.65248,-9.67387 -4,-16 -5.70876,2.31904 -7.38696,-7.40866 -13,-8 6.52961,6.59068 5.50872,12.07938 -3.33829,6.66543 C 136.88548,289.53713 126.90367,296.30107 131,289 c -7.87023,-10.3946 9.32323,-3.43125 0.27636,-0.61091 -9.89357,-4.12683 -6.44568,11.03537 -4.27636,3.85962 0.58322,-7.76206 -6.91229,-10.72953 1,-13.24871 4.9266,-7.02834 -6.96098,-0.22644 -5.23693,-4.14461 -3.3852,-7.32543 -3.22472,0.367 -0.76307,-8.85539 5.95213,-4.85206 -9.61094,-12.11917 1.30505,-10.56498 2.50956,-6.93914 5.75085,3.62391 10.69495,1.56498 -1.78424,-6.08979 7.48203,5.26352 -2,3 2.79778,7.29199 5.30695,0.12583 -2.84562,9.69124 -4.76252,-1.16902 -11.91102,-2.81301 -11.15438,-10.44253 -2.47166,-5.4946 -9.68965,-12.76215 -3.58744,-19.22068 0.4973,-3.38451 2.82198,-12.45641 9.34952,-18.33996 -0.18125,-11.56506 6.39456,-5.50118 8.23885,-10.69179 C 135.53481,206.41415 114.47189,206.48927 127,200 c -5.16877,-0.2165 -18.72032,4.79375 -13.62435,0 -2.2109,-6.42686 -7.46618,5.60939 4.23956,5.23041 1.12453,6.88377 -1.55508,1.20198 7.15607,9.77657 4.75079,5.83978 13.6454,11.1441 11.22872,17.99302 -2.38681,7.07886 4.69686,13.08123 4,0 -4.33624,1.9913 -6.62721,14.60283 -10.21219,20.4951 -8.48195,6.99002 7.52744,16.11578 1.75136,20.73531 -3.24901,7.68037 11.9344,7.13549 17.67703,8.85839 7.67784,5.50913 5.00599,3.06748 12.7838,-2.0888 6.26686,-5.57071 4.55562,4.37516 2.85451,11.58812 0.20205,7.43761 -9.80353,8.49171 -6.46972,14.64229 10.12475,2.89453 -3.90882,2.3401 -2.38479,8.76959 -0.71097,8.06567 -2.51253,-0.85649 3.11933,1.9432 -4.03413,-4.12349 -14.79508,-15.71864 -3.99429,-16.0682 9.62499,-0.29167 19.24997,-0.58333 28.87496,-0.875 -5.36539,11.68747 -13.65604,22.53159 -17.20078,34.74396 C 165.86615,348.49597 164.93307,361.24799 164,374 c -8.40574,1.41363 -9.38511,4.5945 -5.3899,13.83031 4.24181,5.08576 0.47104,16.84241 8.3899,15.16969 4.35475,4.59663 2.90335,11.09192 9.97273,7.97273 3.12181,-5.97444 -7.18278,-2.22486 -8.97273,-3.34838 -2.28066,-6.74342 -5.21927,11.3897 -9,0.37565 -1.8115,6.93899 -9.71131,1.78741 -5.82826,0.31087 6.18805,-5.29971 11.18118,-4.31645 15.28909,-7.08046 3.77334,8.87185 10.00991,-11.37461 10.21763,-1.15962 -1.00178,14.47598 9.51118,0.65403 15.7428,-2.64638 4.55307,-2.76197 16.86521,-12.7891 17.57874,-5.04876 4.90607,7.644 8.15582,-3.5088 -0.37565,-6.37565 -7.49315,1.64063 8.88449,-9.24283 -2.37564,-11 -4.84446,-5.65308 -15.35446,11.54279 -10.6335,-2.23041 0.18179,-12.64942 8.31559,-3.78719 16.62271,-1.42046 8.41554,0.47 12.31642,11.3027 16.76208,12.02652 -0.57965,7.19228 -8.8709,13.89212 -14.37565,17.62435 -6.73512,1.33105 -11.90747,-3.95583 -1.74612,-3 0.76127,7.6128 -1.57358,9.41576 3.41098,13.52614 C 225.97207,404.07527 208.86583,402.9487 207,408 c -4.38269,6.68201 12.54135,-4.1262 17.15882,-4.66353 C 236.76433,398.20447 249.50676,393.40304 262,388 c -12.51642,-2.20053 0.6983,-14.92399 -9.50258,-12 -12.55815,3.94639 1.42649,-12.47048 6.18835,-11.40316 13.28609,6.22923 4.36063,0.40448 11.31423,-4.59684 -10.31341,-4.13339 -9.21708,-8.10378 -4.87003,-11.6101 5.0115,-4.22453 -11.09113,-4.17988 -2.15724,-7.41717 9.28292,5.3538 -1.16836,-14.06135 1.02727,-4.97273 0.32963,4.38263 4.18748,-12.06115 7,-4 3.07514,4.79841 1.63987,-3.02054 0,-7.37565 -1.76093,-8.75509 -7.62523,6.52429 2,1.37565 3.12977,-4.21354 5.80971,7.18016 2.43502,7.30505 5.96863,4.32233 0.85456,6.90268 -1.43502,9.69495 8.12225,3.06341 7.59549,-8.62459 10.97273,-6.02727 3.40594,-8.25164 -9.09911,2.63636 -5.97273,-5.72402 2.94953,-3.43029 9.89442,0.47455 12.97273,3.72402 -3.25765,3.13401 3.13129,9.85381 -2.97273,5.02727 3.89863,-8.89724 -9.35306,0.86422 -2,1 2.13703,9.48301 14.49013,-2.80973 7.02727,-3.02727 C 290.03977,336.02894 301.0535,333.7491 297,329 c 5.92526,-4.05474 3.83112,-7.53044 -1.97273,-6.02727 -6.65127,1.79796 -8.74752,2.53554 -4.65162,7.02727 5.13174,-6.27694 2.26288,5.2434 8.62435,-2 2.87385,4.8068 2.0072,7.24006 7.97273,5.97273 -6.55084,6.1619 -0.85763,1.16753 3.02727,5.02727 -0.31497,10.37359 -4.30447,-2.02957 -5,2 -6.41316,-2.77464 -3.87664,9.55398 -7,-1 -2.9932,-7.09714 5.73159,-2.10952 5.38879,-2.36502 6.09988,1.62664 8.7371,-14.01427 10.61121,-4.63498 -1.38303,5.15789 6.74569,2.43578 6.37565,5 3.12261,2.61728 6.72269,-1.96156 2.62435,6 -7.00375,0.1835 -4.17464,-2.43153 -12,0 4.81789,-7.62188 -0.54287,-5.22633 4.61521,-11.23041 -3.11378,-5.26246 7.7775,-7.09076 7.41206,-1.79686 -3.3831,6.67404 0.39077,3.53091 5.97273,5.02727 3.05305,-1.08642 10.65234,5.96956 8,-3 -8.64048,6.30729 -4.71568,-9.72736 -9.94546,-3.05454 0.97987,4.44447 -9.44975,0.43956 -15.05454,2.05454 -6.1478,-4.88904 -5.55189,-6.89339 -9.97273,-11.97273 -5.6214,-7.33191 -11.06201,1.45945 -15.04907,3.52724 0.96348,7.44455 -8.73194,4.13753 -7.9782,-0.55451 1.04517,-4.39765 -13.30456,2.20467 -17,1 -3.59981,1.98689 12.59951,14.4292 3.24298,10.29226 -7.81298,-7.93431 -9.91687,1.80813 -10.11301,-1.90236 -4.58648,-4.57871 6.4538,-11.44642 2.49438,-5.3899 -6.60624,-1.66723 -6.60981,-3.64262 -9.62435,3 -4.01449,-0.54338 2.66921,9.67282 4,8 -1.28892,5.78877 -9.02089,-4.68936 -7,6 3.73076,-4.73408 2.83273,0.0123 8.37565,2 -0.97482,0.44591 12.20186,-0.51681 5.70617,3.91818 C 254.10993,356.88302 249.31075,341.51328 244,347 c -7.80062,4.81704 0.89566,-1.77503 -3.23041,-6.61521 C 234.24927,346.06055 240.68427,326.7115 243,339 c 8.54093,-1.6812 12.71685,-9.42751 5.76959,-15.61521 -7.55658,1.21672 -10.27348,3.695 -19.76959,1.61521 -6.26493,-7.48435 -2.44832,12.05713 -4.37215,16.21009 -2.65292,7.73913 1.54356,14.84987 7.37215,18.78991 -2.09653,-2.9621 1.94151,8.56466 9.99224,-0.6118 2.00397,-6.28092 7.99644,-10.17635 13.39255,-11.61861 -5.81267,-7.79012 2.37167,-8.28363 0.30197,-19.13134 -1.40141,-12.20068 10.748,4.06576 15.91195,5.65736 5.80415,5.19057 17.53413,8.10669 11.67186,17.77505 0.51812,7.88377 -2.87751,16.34823 -1.27057,17.92934 7.74786,8.80306 4.6374,-9.31807 11.41553,-1.64079 5.39411,2.63465 6.22872,10.23278 7.58447,12.64079 0.67827,2.46163 -8.41539,6.60727 -8,0 4.1036,-3.27738 -2.58458,-9.11982 1.23041,-5.53917 6.83387,5.56943 -4.46356,10.56974 -6.20314,7.56644 -6.95453,-4.62289 -8.14448,7.63906 -2.02727,2.97273 6.68567,1.98414 12.02824,4.51718 14.97273,-0.97273 3.68121,6.58639 10.30163,-3.91552 10,5.94546 6.06211,5.72719 3.61709,-5.20982 5.05454,-7.94546 C 313.23001,385.80819 315.08689,371.88834 311,380 c -3.63016,4.28147 -4.78781,-2.31979 -5.97273,-3.02727 -7.41714,4.77074 3.40059,-9.99945 -5.73503,-11.15234 -6.24394,-12.07071 8.77173,-0.85273 14.02985,0.88908 -1.07965,5.42846 0.67598,12.46589 5.65064,10.3178 -2.15537,5.57851 -0.19568,3.80044 5.02727,5.97273 4.33727,-2.52511 6.38927,0.12287 10.97273,3.97273 -3.30283,4.57021 -3.52445,1.87518 -9.97273,3.02727 0.98079,-0.80549 -6.59808,-0.41945 -8.37565,-5 -6.49393,2.64083 -3.90075,-9.33615 -7.62435,-12 7.90142,-3.47358 12.86664,8.08363 18.37565,4 0.92642,2.35723 -10.26027,5.93648 -0.37565,10 0.98573,-2.90512 2.87082,-7.99204 8.97273,-7.97273 -0.24824,-5.41713 4.70953,-5.87091 9.25768,-7.64248 1.79049,-3.19819 13.31262,-8.35986 12.79686,-1.41206 C 355.49881,378.0724 351.39074,369.40188 352,378 c -6.07965,-0.1496 -4.93483,2.66799 -1,7 8.83726,5.88869 -1.1858,-7.78792 7,-4 7.46842,3.01063 -0.33319,-8.98599 8.23041,-5.61521 C 364.78358,371.21669 361.88164,362.38086 367,371 c 6.66018,9.88613 2.97942,-0.60603 9.30505,-1.43502 7.69088,-4.2887 -4.48397,-8.7555 -1.68984,-12.79539 5.5428,-1.39575 3.23774,-8.38826 0.94977,-6.07464 -6.82552,-3.07627 -1.04392,-8.21368 -5.94063,-11.69495 -4.44777,2.81801 -11.0096,5.28805 -9.62435,-2 -4.16766,-2.77211 -4.11355,-7.41342 -2,-10 6.43842,-0.213 0.5218,12.65313 6,9 3.25374,5.64483 -3.61352,-13.54572 3,-5.62435 1.13643,0.6415 7.95509,-6.95733 4.02727,1.59708 -4.20415,6.93329 3.7815,6.37624 3.97273,0.0273 4.70221,-0.79441 2.4943,6.45353 8,4 1.83181,7.94317 1.61105,-0.57418 -2.97273,-4.97273 4.98346,-6.70076 -6.54624,2.23748 -5.02727,-6.02727 -6.15669,-2.33204 -9.49466,-0.83306 -14,-3 1.73312,5.20814 -8.86433,-0.53436 -7,5 0.96016,5.40607 -0.91221,10.31269 -3,2 -5.72094,-3.52819 -1.57433,9.61382 -6,2 -4.01753,0.7313 -8.86712,-5.48573 -5.02727,3.97273 1.26822,5.14301 3.48405,0.19534 8.02727,5.02727 2.15803,-5.50683 3.70491,-7.1576 -3.30505,-1.56498 -3.84954,6.69718 -9.21206,5.23279 -8.0706,1.56498 -7.6245,0.27414 -1.05616,2.48009 -8.62435,-1 2.09021,11.52923 -2.05984,0.54696 -9.12694,2 -5.37957,2.65494 -18.46517,-12.84966 -7.75828,-11.31652 7.44551,1.20087 19.25792,-5.31104 23.50043,1.54693 4.40116,-5.8811 9.70918,-1.62894 13.38479,-6.23041 5.3205,-7.20835 11.7267,-4.93006 19.12694,-4 7.22376,-0.32145 12.10257,4.84458 16.84579,3.97273 -0.31944,8.76565 3.79792,-4.78164 5.41206,2.25768 -3.91027,4.77786 0.28887,6.8086 3.61521,4.76959 0.93177,8.32993 1.38584,3.00544 4,-2 0.65872,4.39917 1.21218,5.77023 4.02727,5.97273 1.91067,6.75609 -9.72983,-1.2814 -2.72222,5.46229 3.83064,4.51552 3.01178,9.10316 -3.27778,7.53771 -3.1604,4.37462 -4.76645,12.63636 -10.02727,7.02727 3.97937,-2.22842 2.09635,-11.29291 -3,-13 -2.60859,-6.39962 -11.60177,-4.73576 -4.38479,0.23041 1.58112,2.52818 9.39819,4.32686 3.81981,12.07464 8.49472,7.4767 -6.43283,1.76707 -0.43502,8.69495 3.22224,5.06209 7.90338,-4.67526 16.87823,-1 8.93289,-0.24986 -3.48816,-13.56101 7.12177,-13 -1.84584,-4.62609 5.47763,-9.5164 0.0273,-13.97273 -0.20607,-1.77605 -2.13151,-11.73471 -4.02727,-6.27598 1.30997,10.81107 -6.775,-8.59053 -9,0.62436 3.10733,9.43856 -6.84089,6.57065 -4.69495,10.18933 4.24647,-0.35912 -1.72654,10.23227 5.69495,7.81067 -8.9156,6.47182 4.11805,-8.19126 -3.71872,-10.52405 -2.76253,-10.60275 -15.54796,5.51863 -16.94935,-4.05413 -2.06305,-12.33093 -11.81416,-4.12637 -15.17755,2.89377 -2.59526,-0.78327 -7.66963,2.50384 -5.84933,6.74378 1.52709,7.08942 9.57056,-11.50464 14.17111,-1.13347 7.84094,6.07509 2.86048,10.31148 5.52384,16.69845 -8.47666,-4.56415 -7.78147,11.73737 -10.97273,1.02727 5.84551,-11.38121 6.75033,0.59677 11.97273,4.97273 7.79093,-1.47706 -7.64791,4.92824 -11.6101,7.87003 -2.44876,6.4804 -1.23928,3.92549 -6.3899,5.12997 -3.54962,-8.15528 -10.51669,-4.40624 -11,3 3.02701,-3.16417 4.11069,11.67648 3.64307,4.77385 -6.58045,2.9622 -11.17821,-12.17957 -5.64307,-7.3982 -10.28546,0.17554 4.24321,14.21845 -2.30155,7.14819 C 331.6038,383.07049 332.1951,377.57073 327,373 c 2.49558,-0.57685 8.90801,-3.15666 8.23041,-6.38479 C 344.8101,371.4876 331.09982,371.42035 327,366 c -1.88866,-15.20168 -0.32125,5.17303 -1.35009,10.33035 -3.21282,7.01604 -0.95732,18.45199 -10.34115,19.51527 -8.71929,3.26962 -8.4946,-16.17468 -12.85521,-14.80389 -7.53539,2.35472 -15.33204,7.67076 -22.68396,8.34306 -3.37982,-10.09014 -6.62266,-4.88295 -6,2.23042 -5.30387,2.50086 13.17698,-2.31291 3.23041,8.38479 9.31978,0.59713 17.45074,-2.48334 24.73813,-8.1733 C 315.82542,383.2178 329.91271,374.6089 344,366 c -1.31548,-4.08237 12.66171,-5.10097 12.38479,-1.76959 -10.10536,8.82694 9.13697,11.18134 7.64248,17.74232 -2.74518,1.81341 -10.97609,11.01868 1.78183,8.05454 4.04257,-6.99454 8.08361,-4.20772 2.1909,-12.02727 -0.56101,5.93693 11.63868,-3.70895 12.02727,-5.97273 11.6079,4.95881 -6.74151,10.31368 5.01952,11.78209 4.01473,8.94418 -11.10366,9.16075 4.79653,3.26898 8.0093,-7.47312 14.36315,-3.12625 20.29731,4.21724 4.53019,-2.29957 14.04665,-0.48917 21.85937,2.70442 11.54942,3.06869 -4.02475,9.1144 9,8 2.20444,-4.37358 9.44854,4.02995 12.02727,-2.97273 C 451.61219,394.03246 442.11831,388.17583 445,395 c 9.86007,2.53144 10.30245,1.23536 11.47616,-5.30155 -0.055,-5.54204 -16.78857,3.22787 -8.47616,-5.69845 -8.98375,3.93161 -4.32992,-13.48353 -8,-4.24871 -1.7799,9.94655 -11.62621,-0.62771 -3,11.24871 4.45026,-8.20603 11.93,-12.38297 15.30505,-15.91516 C 452.07215,363.73004 464.8168,372.21983 467,367 c 5.8302,0.17763 -0.0439,-14.30153 11,-7 10.06631,6.04565 -5.50697,-5.75386 6.8091,-2.97273 0.64521,3.70779 14.99199,-0.83694 8.71474,6.27428 C 492.35466,369.91153 486.31737,373.87201 485,379 c -0.20366,3.80664 -4.85328,-10.93186 -7,3 -3.01337,8.41699 -11.44589,-8.60168 -10,1 4.95712,6.45362 -3.44361,13.14714 -3.97273,5.02727 -5.56831,-7.01342 -6.62365,-2.3559 -3.02727,-10.77856 3.49963,-9.01011 5.0463,-0.80019 11.61521,-2.47912 6.53477,4.5842 1.95948,-4.92383 3.6152,-7.15438 7.17435,1.94325 10.61192,-4.58262 13.10416,-8.9535 C 489.98396,351.96808 499.10636,345.6445 503,345 c 3.89517,-5.62812 -2.46687,-14.33216 0,-21.75645 3.77047,-3.76958 3.25381,-9.64998 8.04679,-12.05291 9.02116,6.91507 -9.3182,-1.31327 -13.77684,0.15062 -11.6138,-3.73805 -6.61627,8.46433 -13.19161,3.19791 -3.26264,-5.22849 -10.12862,-4.07354 -10.5545,-12.84072 2.88335,-7.23323 -6.77796,-3.61086 -2.29343,-9.31366 8.97444,-1.15827 -0.67142,-3.1916 -0.20314,-8.35752 -4.41441,-3.93279 6.24644,-2.51863 0.97273,-10.77856 -4.35206,-2.22391 -2.72867,10.22282 -8,4.75129 -0.77455,-1.31672 -7.26261,-11.53052 -6.23041,-1.53917 -7.21106,2.21126 -1.38984,13.72754 3.84051,6.66914 6.74648,-3.88354 -7.71358,9.32721 2.36263,8.84276 0.53207,2.35644 -2.44437,10.21123 -0.49887,12.31648 -5.76119,-4.17357 -4.88486,8.11493 -9.84951,0.71079 -3.29933,-5.86202 2.57996,-7.08819 6.99086,-8.23041 -2.18233,-8.70752 7.31918,1.73707 9.38479,5.23041 -5.0768,2.6444 2.71523,9.6093 -3.12694,9 -5.56116,0.10186 -11.81004,7.36831 -13.87306,-2 2.77982,-10.66364 13.86487,-1.56672 12,6 -11.56298,-0.71052 -6.71137,13.29588 0.32345,16.35555 9.67878,2.81862 2.91211,15.36556 8.0522,19.64445 9.85046,1.24104 17.05749,-1.19406 9.43414,-11.17623 -3.59763,-3.85874 -5.0821,-22.01424 2.10839,-14.90559 -8.24664,-4.91249 -3.63652,-12.10921 -1.27716,-19.7515 C 483.22217,301.16989 479.38988,297.09011 483,293 c -5.79538,-4.8065 6.76713,-7.22457 4.02727,-1.02727 -0.19209,4.93652 2.84006,11.22576 6.40775,5.72222 -0.0795,-8.70081 -7.44556,-7.33934 3.56498,-5.69495 9.84783,-1.41527 -8.75371,-7.31384 -1,-8 0.82942,-5.24446 2.10767,-11.88938 8,-7 2.57512,7.59497 5.48561,8.2681 7,-2 -6.44809,-6.26494 12.74057,-8.23581 2.02727,-8.97273 -4.58631,-1.48894 -8.22507,-14.33608 -10.46229,-4.72222 0.80322,4.8757 -15.0076,-1.95253 -10.18933,2.69495 11.36199,-0.74793 -3.11726,9.14422 4.23956,7.76959 C 509.41103,267.05852 498.99137,278.79041 505,267 501.14081,262.66582 494.99877,253.54812 496.23693,254.14461 492.25359,262.88834 487.44591,253.47634 483,261 c -2.16608,6.71796 12.33993,2.88458 4.79897,8.65077 -6.10855,5.00534 8.16803,5.69174 1.58582,11.57964 C 484.87981,281.0358 484.744,275.98524 480,272 c -4.47074,-4.91105 1.26564,6.94498 0.38479,11.23041 C 474.3461,281.26423 479.51443,293.45237 477,298 c 6.9301,-10.72797 8.36579,2.50924 14,7 6.86131,-4.39627 -3.91016,7.71969 6.55242,-4.05645 10.21821,-5.2053 1.61187,-11.74194 3.31761,-19.55365 C 502.49565,280.82428 511.00816,275.05955 516,271 c 6.82458,6.5142 0.88731,17.69851 -8.54863,15.24547 -8.55609,4.26977 -14.8363,-2.18091 -18.68178,-1.86068 -7.28152,2.15469 -7.09889,-2.98825 -16.60135,-4.9175 C 464.50797,274.08601 463.70837,270.12822 462,266 c -12.34434,-3.13 -10.30579,5.34193 -12.83106,12.71843 7.92591,8.83773 -7.27072,6.09687 -3.16894,13.28157 5.64571,1.10653 16.09369,6.67348 9,-4 5.19467,-2.16538 19.40533,4.89351 12,-2 4.52778,-5.85131 7.42907,-16.34214 10,-18 7.73428,-1.96344 3.96149,-9.9662 -0.64543,-10.24416 -12.01003,7.45666 0.95833,3.61055 5.68486,-4.10531 5.74671,-7.49319 15.35567,-8.80285 23.6839,-5.17591 6.15308,0.1098 9.09763,11.21653 0.27667,7.52538 -1.72968,-9.04992 14.65911,-12.5551 8.24871,-15 -5.06952,-1.53655 11.32447,10.07902 3.9259,15.10052 C 513.3845,261.96127 522.78065,244.38381 523,240 c 3.73663,-7.77365 5.23279,-13.08529 7,-17 1.45335,-5.06694 -0.32469,-7.37931 3,-13 -3.4211,0.15325 2.776,-13.88696 2,-4 3.14446,5.75202 11.83123,-2.28068 7.76959,-6.61521 -4.62837,5.80859 -9.78621,0.2945 -5.76959,-6.38479 2.88715,-5.48658 -1.58831,-12.15764 6.37565,-10 1.47872,3.13054 -5.53629,4.74895 3.85476,5.38479 6.5967,2.2002 8.73064,-1.90124 4.15438,-5.6152 -0.98719,-4.51971 10.88807,1.17209 7.31016,4.66543 0.007,2.44605 8.23874,7.63541 -1.58586,12.45589 -6.04119,5.10988 -14.4316,-4.92279 -15.3395,-9.35174 -0.012,-3.81394 15.38081,-6.33959 5.25768,-8.56644 C 546.55533,178.66412 551.86241,174.11066 547,171 c -0.60064,-3.02941 -4.31088,-9.30147 0,-10 0.86073,-4.59315 4.54101,-8.29702 3,-13.37565 4.88695,-3.02138 4.17753,-12.5896 -2,-5.62435 -6.15113,-1.97312 5.81178,-8.36924 4.02727,-8.97273 -3.11428,-9.84279 2.87493,-0.0188 3.81835,-5.71851 C 551.28377,121.24108 545.02376,125.80167 549,132 c -8.78659,4.96502 13.82602,9.17467 10.12997,4.3899 4.36119,-5.22328 4.13073,-10.01833 5.84276,-14.36263 C 557.4209,122.49081 561.8755,111.67224 558,111 c -4.65443,6.74674 -7.07409,-5.86487 -3.62435,-6 7.47097,-0.58432 2.29995,8.31534 4.62435,0 -4.90332,-4.67244 8.09233,-1.37772 5.38479,-6.230415 C 561.7279,97.603964 556.61923,93.441648 558,90 c 0.50371,-5.105486 8.38531,-3.37535 7,-10 -3.35857,1.080447 -8.94828,-5.226103 -6,-9 1.33719,-5.400082 -2.87307,-7.105328 5,-6 -4.07526,6.332438 1.67813,5.868128 5,10 4.82692,-2.460603 -1.23707,11.424724 5.61521,3.769585 C 572.51831,72.195809 580.02273,85.301144 585,78 c -2.83157,6.266927 -5.43589,12.31519 -7,15 -6.96572,-3.275441 -8.23961,5.359147 -2,8 -0.0633,0.066 -14.19376,6.54658 -6.02727,4.02727 5.37702,1.53064 17.22322,-1.22636 5.1631,-3.47633 -8.03389,-1.38935 -7.31335,-5.583421 -7.13583,-12.926585 -5.87049,-0.6142 2.42449,-11.052616 2,-1.624355 4.53406,7.922865 -13.72001,9.061295 -5.53917,3.769585 C 570.65127,85.444451 572.92129,84.474477 577,82 c -1.14065,13.341321 -9.43615,0.551604 -10,-6 -1.70932,0.260105 -10.50618,0.08309 -4,-4 2.56082,-9.62156 4.72147,1.754815 7.97273,-4.972728 C 568.19076,62.442369 561.29369,66.320843 567,61 c -2.86972,-1.195441 -4.77799,-2.961075 -8,-7 0.35164,-3.406226 3.05523,-7.797817 5.97273,-11.972728 C 569.49869,44.048284 563.57348,51.998751 570,53 c 5.53215,-2.317873 -1.74512,-0.257661 -2,6 -2.6923,-3.887819 -8.87237,-3.751721 -1,-6 -5.90436,-2.734466 -2.96263,-10.483699 -0.69495,-5.435017 C 577.04951,51.033338 568.31741,43.426979 567,40 c 2.41674,-4.045514 -8.61063,0.237745 -7,2 2.30946,8.955336 -3.86357,-2.389763 -6,-3 2.2051,-7.173531 5.61954,-2.430064 8,-7 -3.95643,-0.560106 -1.76521,-5.530536 -4.97273,-8.972728 5.98551,-7.680581 -11.31109,-3.564297 -1.05454,-3.054544 C 553.59991,23.663435 549.56425,26.85446 556,28 c 3.8612,3.289508 -1.63638,7.838653 -6,4 4.06094,-2.727334 -1.89688,-8.733213 -5,-10 -3.68779,-9.131058 -8.74125,3.931587 0,3 0.10022,0.993893 4.32144,9.724458 0,7 -6.24987,0.79269 6.20389,4.915462 -4,4 1.83282,8.599234 6.00477,4.140651 9,4 6.19517,0.564801 4.44088,6.492176 7,8 3.67925,-1.510519 8.88569,3.801298 1.05454,7.945456 5.1839,0.575556 0.005,9.928263 -3.05454,7.054544 4.28838,-5.715364 -0.98525,-2.794106 2,-9 -0.56644,-3.828718 -3.07814,-5.04263 -7,-9 -6.63871,-0.651732 -1.78996,3.110072 -0.23041,3.615207 C 547.04446,53.848413 539.84293,51.755446 543,46 c 0.56219,-0.257162 -3.2365,11.940997 4,10 5.83815,-3.85499 3.88486,9.468232 0.38479,8.230415 C 547.21092,67.987484 555.55152,74.144219 551,73 c -5.22158,3.920687 -1.97695,7.744011 2,2 8.13771,2.468536 -1.35523,3.268016 1,8 5.47086,0.97867 8.80627,-2.588438 3,-2 -3.65265,-5.764357 -9.22719,-0.140001 -10.02727,1.972728 C 546.47491,87.035091 547.95067,92.414356 544,94 c 3.09598,9.75883 3.82527,-5.455825 8,3 -4.26086,3.17477 -1.31298,5.44169 -2,11 -5.12006,3.40928 5.48242,5.57671 -1,9 -0.96308,-0.602 12.12071,-0.69802 10,7 -0.48024,0.56786 15.70256,8.09484 9,1 -0.96996,-5.37541 -4.60368,-10.44952 -6,-14 10.91572,-3.27053 4.16173,12.15562 9,-3 -5.82377,-8.187208 -2.48571,-3.91319 -10,-1 3.96759,-7.301654 -8.45488,-5.98926 -3,-12 -5.15415,-1.534038 -6.81638,-6.685593 -4,4 2.07046,6.90763 5.86227,-3.912725 -4.69786,1.46043 -10.31001,3.37143 8.60636,11.11579 -2.30214,12.91522 1.69376,5.29897 10.7236,14.85566 1.58447,11.26514 -3.41062,-4.81554 1.49672,13.79712 1.41553,18.35921 -6.94527,1.99183 -2.65234,10.40687 -3.97273,13.97273 -9.51604,0.65403 5.65488,12.26872 5.97273,2.02727 2.05204,-0.93812 9.83687,-8.26438 7.02727,-11.97273 0.91762,-2.09663 7.70378,1.75649 7.09206,-1.97047 -3.78459,8.92921 -8.56501,7.85659 -13.55435,9.24825 5.80004,5.52367 2.41774,12.00898 -1.94063,14.69495 -2.99621,-6.60996 -6.59518,0.36611 -5.85476,4.61521 -4.48906,2.11501 -4.4648,-1.86012 -3.76959,7.38479 1.73915,-4.05233 -12.26037,-2.77713 -14,3 -3.92375,6.23132 -0.018,12.88189 -7.61521,11.23041 -9.84009,9.38297 9.97172,2.53272 9.34542,3.11852 -0.96093,3.63608 -0.84448,17.43905 -6.26903,12.52778 -6.56296,-6.10856 -14.75951,-6.80731 -22.43391,-6.84944 -7.44759,-10.22443 -1.49628,9.8149 1.09602,13.51155 5.05549,13.89365 6.67656,-4.90721 9.69024,-10.4509 2.76038,-8.06429 7.64156,-16.22103 1.27555,-23.88749 9.92731,-3.64054 10.88385,2.31864 18.91092,3.79957 -2.66321,-5.45709 -0.91395,-16.24981 -2.75129,-15 0.42694,-10.65094 10.13682,-0.94663 -2.93566,3.75652 C 526.04524,167.09744 528.30694,155.66131 530,146 c 8.52117,3.50198 17.99395,2.20936 27,3 -1.75646,-7.05678 8.4678,-12.64118 11.93606,-19.00806 3.2476,-5.84259 17.54438,-12.26791 9.14576,-18.91012 C 570.38788,103.38788 562.69394,95.693938 555,88 c 5.08848,-8.287671 -3.31884,2.397686 -5,-4.375645 5.5794,-4.643177 -3.26183,11.35447 3,5.375645 -11.25103,-0.531355 -8.13369,-7.409805 -7,-15 -4.84612,-5.521561 6.14891,-7.396184 8,-4 -1.6211,6.437851 5.65349,-3.200771 1.76959,-1.615207 C 547.82055,65.294134 551.97282,64.153 554,61.624355 549.94087,56.605833 558.22651,53.485648 549,53 c -2.9561,-0.834307 0.71688,10.738683 -6,7.375645 C 541.66447,74.048676 547.14314,61.101967 539,56 530.18271,66.454332 528.32022,60.118279 528.29372,49.349774 524.71569,38.528383 519.26374,44.348331 519.24871,47 514.63734,47.92772 501.05848,50.410653 509,45 c -2.47667,-7.343269 -15.64301,-1.311859 -8.62435,-7 7.13747,-4.587691 -5.85576,-3.158442 -7.32111,1.945456 C 487.87881,39.763271 492.99951,33.380912 489,32.624355 486.50684,29.765003 487.24277,28.525059 486,24 c 2.9243,-3.288405 -3.57029,-13.027027 -3,-6 2.58153,5.065225 0.74422,5.377819 -2,8 -3.35542,0.759527 -10.63825,2.82947 -9,-5 0.27714,-2.246827 0.64924,-10.277589 4,-5 2.84501,-7.663064 -2.88447,-4.273144 -7,-2 4.88916,-5.412087 -3.28048,-4.412596 -6.97273,-3.972728 C 463.63453,8.1308557 456.23184,3.4095724 457,7 c -1.29643,2.3169403 6.56052,5.054698 -2,4 0.76966,-6.7165302 -6.49614,-2.2069513 -2,3 3.51109,-0.87161 4.11581,-1.483645 7,4 5.69575,-3.939229 6.96581,3.214652 -0.23041,3.615207 C 457.59141,14.433692 453.24223,25.632507 451,16 c -4.792,2.27623 -4.74875,-1.362747 -7,6 -3.5705,-2.980638 -11.63668,-3.279633 -10.97273,0.972728 -3.79792,6.225872 -3.24734,4.896703 -5,0.05454 C 424.85968,22.140271 420.9643,23.930737 417,26 c -1.13398,6.760948 0.9592,5.720109 7,6 2.01545,-5.185457 -9.41465,-0.798909 -3,-6 6.92182,-3.748826 1.95762,5.448311 10,3 7.08023,5.447648 -7.77615,0.528148 -5,6 -4.22995,-1.335607 -8.73144,-1.492369 -11,4 -6.00183,-3.578249 -5.26098,3.68403 -9.97273,4.972728 C 403.86108,40.886012 394.72466,36.134002 398,43 c -4.49209,1.178062 -6.05288,0.367388 -7.97273,5.972728 C 387.42991,52.543975 390.95693,57.752025 385,60 c 2.51622,1.646091 6.7593,8.861862 1.02727,10.027272 C 385.66761,78.095984 378.07613,62.845704 382,75 c -7.49426,-5.129965 -0.73652,7.210501 -10,4 -1.1606,-3.775806 1.12045,-13.319004 -5,-8 -2.88592,-6.265178 1.67815,-9.317706 1,-12 -5.90672,-6.017939 -1.92183,9.700673 -7.97273,4.027272 -4.28681,-0.201489 -8.96544,-0.461958 -1.05454,4.945456 4.62202,7.02708 5.07137,-5.019018 5.02727,5.402917 -3.16973,3.994891 -9.58982,2.231719 -11,-1.375645 0.10138,-6.418112 10.02086,3.659287 4,7 -2.84965,-3.294037 -8.88977,-1.422301 -11,-4 -2.1138,3.255404 -4.50346,11.002199 -5.66636,8.334572 C 345.7364,92.302298 345.02294,78.634357 349,84 c 4.30711,0.797735 5.58459,12.357268 7.02727,5.027272 -4.39042,2.48291 -12.20242,-5.433763 -8.02727,3.348373 7.57007,0.515299 -5.35057,7.087746 -4,-2.375645 -8.15496,-4.464702 -1.66244,8.652318 0,10 5.5681,-8.105642 11.88028,8.73398 1,5 -5.82588,0.98185 -4.1095,2.26293 5,7 -0.0868,5.36163 0.22106,19.77757 7.97197,11.58744 0.16609,-6.67494 5.97663,-15.60155 12.64324,-8.35703 4.65893,4.29905 7.98282,3.28624 14.38479,5.76959 6.38832,-3.5358 10.12206,6.03788 12.97273,-0.97273 0.21979,-3.45488 0.13071,-15.78804 6.02727,-7.02727 -0.77251,4.84179 -4.0673,10.97887 2,11 2.68614,-2.27728 13.78757,1.52856 9,-6 -2.55376,-0.41224 1.00367,-15.58504 -5,-6 0.87727,9.27175 -5.82392,5.48644 -1.47386,-2.28921 2.9986,-6.28791 7.46411,-1.8099 10.08907,-0.48038 2.80371,5.59247 2.91366,5.24249 0.38479,10.76959 5.30149,-1.72034 10.7772,3.53941 16.97273,1.02727 -1.2591,-1.86971 1.35872,-13.403 5,-13.05454 1.74209,-0.19432 7.90111,-9.730531 8.02727,-2.59708 -2.12616,1.88281 -0.90131,13.17075 2,6.62435 -1.65985,-8.44211 6.46969,-8.55873 2,-1 4.76962,2.6119 6.49467,3.9354 6.97273,9.02727 5.96696,-6.48241 2.3023,8.75562 6,-5 C 458.45182,110.61176 466.8372,109.3366 472,109 c -8.11092,-1.80218 2.47893,-5.17742 2,-5 4.19586,2.48455 1.83319,-8.360354 10,-5 4.78957,-1.115782 4.73657,-6.000252 6.37565,-9 -0.68804,-8.377463 -4.22957,4.931167 -8.34838,0.02727 C 480.52822,92.155601 478.85523,99.887651 475,95 c -2.072,-3.015224 7.86213,-6.275443 2,-7 -5.50819,4.353765 -4.08334,-0.147034 -9,0 -6.80222,6.423192 -2.69377,-3.668184 -2.97273,-6.972728 C 459.49837,80.039971 461.02334,87.67251 459,89 c 1.7555,7.370007 6.22699,0.09609 10,3 2.32331,0.604801 6.12542,10.48538 -0.97273,5.027272 C 463.52286,92.950573 464.88484,97.259121 458,96 456.44964,92.624267 451.03958,99.692847 450.97273,93.027272 454.19883,91.623326 455.83798,92.836509 454,85 c 3.10579,-3.595591 -5.81288,0.653646 -7,-6 -3.70443,2.124573 -9.39878,0.52712 -9,6 0.78013,1.441038 10.6166,-0.490451 4,4 1.69663,3.846447 5.43944,-0.813019 10,-3 3.14138,5.348815 -6.92784,4.387983 -5.23041,9.615207 C 443.73105,98.195608 436.61054,91.301772 438,98 c -3.08539,-2.797107 -5.98333,-9.56747 0,-9 4.05021,2.249824 -3.71961,-5.350519 -6,-4 -1.76213,9.899226 -0.48987,-0.34695 -4.97273,0.972728 C 428.08845,90.923302 422.12311,88.819146 421,84 c -4.29326,3.220292 3.06588,6.085504 0,10 -9.36215,-4.549697 2.15701,-1.639869 -3.97273,1.972728 C 406.63381,97.14316 420.28483,98.953027 419,99 c 1.20767,-3.723284 6.85907,0.290395 7.97273,-1.972728 3.97905,-0.781706 4.61552,7.135068 9.02727,4.972728 0.51336,5.74031 4.55259,1.33767 6,-3 6.27851,2.76082 5.0078,-2.90509 -2.75129,1 -6.56776,1.31023 -9.40054,-7.904313 -12.24871,-5 -7.75341,-0.965969 -0.87195,-5.284238 2,-5 7.28668,3.033853 0.30428,7.602705 5,4 6.15095,-3.398221 9.20992,-1.190274 13.10052,-0.174613 2.83022,6.194643 6.0326,8.741513 8.92675,11.147343 8.21786,-0.32545 1.93022,5.93884 0.97273,12.02727 -2.91587,8.30296 -4.32577,4.31615 -10,1 -9.05385,-7.14731 0.66529,-10.98388 -5,-1.62435 -4.33461,9.47697 5.70128,5.25124 5.85539,8.38742 -2.39511,0.10242 10.24344,-10.77257 16.58503,-10.24321 7.73688,0.43407 9.63621,-5.85635 16.78999,-9.13507 4.76768,-4.248 5.05036,5.88113 5.76959,-5.38479 10.02043,-8.272491 1.3993,8.16046 7.91818,0.0818 C 503.10127,96.700622 498.74606,95.27871 498,87 c 9.86593,-2.259463 -3.60681,-1.327315 -6,-6 -1.77816,-6.464403 -0.0213,-5.882667 -6.23041,-7.384793 C 483.95173,76.583996 485.38134,65.922254 485,63 c 0.81882,-4.565772 1.69408,-14.897648 6.97273,-7.027272 5.56753,-0.07842 -1.19419,-6.321912 2,-10.945456 C 486.41229,41.097904 490.81295,38.693668 488,48 c -0.23762,5.453791 -0.66206,20.529175 4.97273,12.027272 C 499.20454,56.123346 499.99305,62.329443 498,68 c -7.40048,4.568823 1.41292,-10.571444 -9.69124,-0.154378 3.32612,3.521691 10.53023,10.587927 11.92165,4.769585 3.79781,-1.039466 3.55546,-10.370502 -0.20314,-15.587935 -7.17913,-2.515907 -0.62515,-16.268868 3.91819,-12.081816 C 504.69197,34.790349 510.35215,42.64034 511,34 508.63948,25.38229 517.03297,18.944831 522,18.624355 520.3115,11.629241 535.27017,15.693074 527,10 526.72912,3.3700464 518.68731,0.8689873 519,9 515.13164,1.5555239 515.02141,0.68016401 508.73021,2.3489314 511.88898,9.9222301 507.21468,13.457071 500.29999,19.700011 496.88272,21.642185 504.6659,33.879107 496,29 c 1.37763,-1.700423 -9.85592,-4.4302 -4,1 5.97887,6.042891 -1.95871,-3.397456 2,-5 6.84913,-0.405225 -6.01254,-8.898982 -6,-2 2.11034,-1.1848 -10.49369,12.620484 0.23041,7.539171 C 490.46952,31.15345 500.31768,40.033642 499,28 c -4.3269,-3.473242 -11.17666,-15.964928 -12,-9 -1.22552,-12.1872472 -10.60365,3.140171 -5.87003,-5.610104 -11.44785,-4.8695434 2.52469,-9.5496938 2,-2.779792 C 483.553,13.937172 476.52352,26.044203 481,20 c -7.88598,0.658121 -8.04765,0.122077 -4.04447,3.104742 C 473.42776,18.56881 466.23128,13.921283 469,20 c -10.59714,3.076157 -2.15773,-3.986455 -3,-8 -1.49694,2.996317 -6.32838,-0.722241 -6,-9 -10.52768,1.2146859 -3.52836,-3.47490458 -8.97273,2.9727282 C 444.50836,3.4820433 450.88025,12.94185 446,10 c -0.90953,-0.093557 5.33227,9.414314 -1.97273,2.027272 C 442.07607,11.085055 434.50685,10.72104 436,14 c 4.35985,0.901516 8.72024,-1.02301 8,4 -4.94703,-2.678196 -10.14698,1.163854 -10,-3 -1.9784,-3.868999 -2.56799,10.198003 -3.97273,0.02727 C 429.29493,13.944861 425.01191,9.4430704 429.37565,6 432.94866,16.234567 430.21205,1.9242018 436,5 c 0.0489,7.896522 -5.27065,7.22086 -12,6 -1.29712,8.012834 -6.86964,0.263209 -7.02727,-1.9727282 5.55511,2.6845362 9.19097,-1.3494923 5.05454,-4.0545436 1.52398,2.9082136 7.74069,0.8219823 2.59708,10.0272718 1.4094,3.882613 -2.06118,9.797648 -1.62435,3 -9.24485,-6.277041 -1.68419,8.260771 -3,1 0.10603,-4.540629 -9.81848,-4.1235 -11.97273,-3.972728 C 402.65198,17.996846 413.05363,24.136509 407,24 c -2.60648,-0.830731 -5.90866,5.306432 -11,2 -4.47692,-4.899976 -3.31233,-7.168833 2,-3 5.08105,-4.636488 -2.39465,-10.513665 -1,-3 2.49558,-6.70441 -13.2795,6.946998 -7,-2 -4.96298,-6.542683 -13.75704,6.956614 -6.62435,5 5.75273,-1.134819 0.0193,8.420857 -3.37565,5 -1.70701,1.504588 -5.29944,9.018271 1,5 -2.2159,6.145205 8.82495,1.343851 2,-1 -6.22691,0.438614 5.09389,-5.382808 6.37565,-7 4.66074,0.551233 1.44121,11.587952 -1.37565,6 2.77998,0.828322 8.83979,5.620588 10,2 3.86096,2.085567 4.942,7.580729 7,3 7.53039,0.909926 5.76638,-4.009098 1.02727,-4.027272 C 399.80371,36.217443 402.6397,24.179683 407,27 c 8.54268,8.511258 -2.71385,-6.712846 4.23041,1.615207 C 413.63157,30.400063 415.05867,25.017522 416,23 c -3.33418,-5.382842 -7.89656,3.5913 -2,0 8.93189,2.0645 0.43407,-8.660372 -3,-5 -6.84296,-2.065853 9.56956,0.0041 -2.22021,3.740069 -4.78589,-0.402767 -9.0803,-6.232884 -6.80706,-9.712797 4.17708,9.979701 2.74481,-3.0548719 7,-0.05454 5.33157,-3.2937281 13.88733,7.153639 5.62394,-3.2567287 C 407.82011,7.3779626 395.403,10.240467 402,20 c -2.85225,4.531929 -4.9936,5.191692 -4.02727,10.972728 -1.04264,3.897483 13.58196,-1.637989 3.65162,-2.972728 5.1644,-9.346798 -8.64002,0.745156 -6.62435,3 -2.5066,2.39708 -12.08557,8.328365 -7,8 -4.42504,-4.856791 -10.13124,6.078408 -4.02727,3.027272 2.51916,5.928529 1.04546,4.388851 7.97273,6.918184 -2.24689,4.721539 9.63223,-6.161523 4.08181,3.027272 6.66755,-1.523692 8.03179,0.53762 9.97273,4.027272 7.03279,3.44802 4.08209,6.988483 0,4 -3.60097,0.318159 1.86905,8.614845 -2,6 -2.26095,-1.986108 -6.08911,4.132072 -3,-2.375645 6.27021,-5.279445 -7.89072,-5.767426 0,-9.624355 4.89737,7.653699 -5.5518,3.655679 -6.97273,5.972728 C 391.22434,68.268141 389.77453,62.534875 392,57 c 3.99648,-8.531951 6.40593,2.555235 -2,-1 -5.60275,-2.396713 -8.19264,-1.501599 -11,3 3.48132,11.983617 -5.88465,-6.405614 -3,5 3.13811,6.27641 -5.76481,8.025313 -3.02727,-0.972728 3.43241,8.252464 13.8872,-1.531906 15.04907,6.527238 C 390.01136,74.435376 386.10977,83.31742 383,77 c -2.97873,3.137718 -5.72676,8.504968 -7.61521,6.769585 C 369.04972,80.254448 375.66865,94.801724 370,92 c -3.36423,11.98444 -5.68724,-2.731502 -10,2.375645 -7.20949,5.530477 3.22109,-6.110586 8,-6.375645 -2.7594,-4.381717 -7.5778,0.772006 -10.97273,-2.027272 -1.9943,-4.736245 -6.55598,-7.206743 -5.12779,-2.798115 -6.05067,-5.148947 -4.22675,-15.069171 1.55066,-18.411076 8.24999,-7.878212 8.25035,-5.190348 16.16507,0.466878 C 370.39601,74.987253 364.17474,71.770767 369,78 c -6.99078,6.86114 11.87638,3.342046 4.62435,-2 -0.5935,-9.344345 10.38551,1.154127 12.37565,-1 7.14716,0.614298 5.34409,-8.958187 10.97273,-3.972728 C 405.76414,72.265712 393.86556,68.746648 396,65 c 5.64283,-5.531453 -7.33897,-1.089335 -2,7 -3.64595,4.32175 0.87176,10.771519 -6,10 -0.12244,-0.607998 -10.65617,-0.357432 -6,5 -2.71468,7.415545 -0.6474,8.678567 4,7 7.83652,-6.570233 -2.60515,-5.158972 -0.62435,-8 6.34862,-0.776878 4.09371,1.717742 8.62435,-2 4.66186,-1.44005 10.52962,1.509138 4.76959,3.384793 -7.90493,-5.21461 -0.0482,6.113217 -8.14524,5.615207 4.10378,-7.155959 -10.82131,-3.207419 -3.62435,5 6.00282,3.24959 4.24177,3.65639 7,9 -6.42431,1.80482 -4.44865,-0.4083 -8,-4 -0.68195,-7.575212 -12.79125,-7.630948 -8,-10 0.60144,-7.186965 -6.32495,-8.136288 -10,-1 11.68822,-3.626202 3.69139,9.91344 3,8 2.57255,2.25399 7.32737,2.99526 9,2 5.33545,3.99282 3.92838,11.58609 10.6101,13.87003 5.77142,-1.21138 -3.25738,-5.29773 6.69495,-9.30505 10.46573,-4.43788 -4.07216,-3.32753 -6.27778,-9.537708 C 392.42028,94.455003 402.39623,91.944661 406,88 c 5.62525,-6.776492 -1.51081,-0.809774 -1,-7 1.63696,-3.311994 3.343,-4.149367 -4,-6 -0.83694,7.797699 3.643,1.195236 -3,7 3.125,0.4723 10.46897,1.311186 13,-3 2.33339,0.148591 8.95937,2.61983 2,-4 -3.6178,-4.542773 -4.30897,-0.06636 -7,-2 -0.1219,-4.760767 4.00501,-5.209967 8,-6 -3.40328,-4.014218 -11.14246,-4.153367 -8.19064,-13.046794 C 410.57593,52.012734 409.74827,45.028144 411,43 c 9.13249,3.538641 -1.32449,5.082154 4,11 -3.85185,5.979037 6.10243,8.737162 3,2 -5.21428,-5.307366 5.08059,-3.268896 2,1 3.9447,2.002922 -4.09558,7.153112 -7,6 3.49007,-4.306387 -0.82687,-6.179784 -1.70776,-12.179606 C 407.33951,41.442643 403.60708,52.281225 400,49 401.14917,42.268328 399.15504,34.760811 395.3899,35.870035 389.16987,40.681738 396.19167,44.317562 394,37 c -5.92732,-2.604153 -4.21319,10.251024 -13.6101,8.870035 -0.50158,5.572935 -6.82439,-3.794837 -1.3899,-6.24568 -3.19518,-0.196653 -7.46138,2.166467 -7.02727,-0.597083 6.12324,-3.22077 -2.16202,-9.210914 3.40292,-11.027272 4.36301,4.422445 -1.54021,-9.632127 6.62435,-2 5.8903,7.95052 2.58195,3.762439 11.97273,-0.972728 0.22974,0.321747 10.14114,9.412693 13,13.945456 2.21489,4.980358 11.96315,-2.234449 12.40292,-0.972728 3.10066,-2.832752 7.14272,-0.702654 5.62435,5 -4.80771,4.98783 4.59272,2.865242 7,7 -1.48238,10.1571 -5.83287,-3.157216 0,6 -0.88584,3.356962 -7.89663,7.908639 -2,11 3.92061,0.827612 9.85436,-3.568035 8,3 -0.14696,6.680713 -9.52797,-1.269863 -7.02727,3.972728 C 436.286,77.129339 422.4239,76.031255 429,78 c 4.82593,2.428039 8.58569,4.911928 11,-1 -6.77672,-0.246653 -10.04688,1.624071 -1.62435,-2 0.84313,-2.499787 1.55299,-2.827193 7.62435,-4 -3.36334,3.762983 2.72673,6.875024 4,9 -3.12994,1.268478 7.85965,0.205114 7,7 -3.4746,2.830883 5.70281,7.526968 2,13 -2.21091,4.46513 7.48819,-3.052291 11,2 -10.58474,2.90129 6.72962,1.07861 4.38479,-5.230415 1.85675,-5.413659 -6.30575,-7.373274 -3.41206,-12.742313 C 471.22196,87.702541 480.94114,85.024921 478,81 c -4.5653,-6.511544 -5.59962,5.061157 2.04679,1.809359 C 489.07384,85.179537 490.57025,78.502783 482,78 c -4.65209,-2.303308 -2.40247,-9.315445 -6,-11.375645 -6.01728,-7.1235 8.01138,-1.816276 5.56498,2.680697 C 482.58572,73.904765 473.1435,78.053344 472,75 c -8.57676,-0.520494 3.77589,-10.455043 -4,-9 -6.03732,-0.589677 3.3543,7.616632 -5,4 -6.1051,-5.897121 -0.0776,3.969589 -4,7 5.7622,-0.154252 8.76949,-7.391504 9,2 -5.58685,-2.853154 -13.79312,4.266609 -9,3.624355 2.65635,-3.279888 8.8573,8.662432 7.14461,4.612574 C 467.74068,83.494113 472.16048,80.493001 472,73 c 7.47914,0.410521 0.29202,-11.167365 -5,-10 -6.34571,0.439732 -6.29539,2.629833 -9.97273,1.027272 2.67008,-3.820372 -9.15465,-4.267661 -2.05454,-7 C 452.57039,49.946058 449.14224,57.188584 447,60 c 1.87157,8.3418 5.70088,3.400924 3,0 7.11745,0.112174 0.24793,10.09055 6.97273,7.027272 -4.93914,-7.274564 -0.22835,8.407605 4.77856,5.972728 1.75832,6.093782 -7.31039,3.869226 -9.75129,3 -8.20333,-3.431225 1.59228,-4.880457 1.97273,-6.027272 C 456.805,78.55668 452.76925,71.029567 448,76 c 10.4232,3.581601 10.09113,3.129874 -0.72834,6.898128 -7.26941,-2.783306 4.4305,8.410974 -1.67039,-1.256354 C 441.52101,76.396872 439.71098,74.916286 446,69 c -1.20168,-7.02905 7.06473,5.39465 2.71079,-2.526142 -7.61728,-4.188582 -8.26288,-6.401994 -3.09558,-9.704273 C 445.98555,49.144807 436.85083,57.567036 436,51 c -2.55286,-4.947756 5.67051,-1.45775 10,1 1.08717,-8.288205 9.64034,-6.467371 7,0 -1.56234,-5.846195 8.8617,6.991764 9.02727,1.027272 0.22883,-10.705125 4.51747,5.658002 7.91819,1.027272 5.70229,5.154835 8.3486,-3.606845 13.02727,3.918184 3.07722,-6.686883 -10.11357,5.653923 -11.49887,1.73806 C 477.69714,49.351473 464.90531,52.210142 464,60.375645 471.97239,62.937049 460.02685,61.380984 458,58 451.53553,54.21537 446.43553,45.980311 440.72275,43.510902 432.47109,51.867915 427.97807,37.901115 420.02727,43.972728 423.51799,44.950097 408.51606,37.133213 414,35 c 1.32956,0.769883 -2.13432,-5.368491 2.36882,-7.863118 C 422.36713,27.536155 433.60279,28.948776 435,26 c 4.83078,-1.382367 -1.29591,6.75913 7,1 0.77933,5.740769 11.49923,-5.838032 5,-4 0.42584,-2.82641 7.14879,-3.652427 2.76959,-9.615207 6.53693,-2.875017 0.88659,6.364341 -9.07464,4.050224 -9.38047,-4.239283 2.59037,5.251885 -4.66768,5.537711 13.22305,0.19208 -1.78549,5.601265 -5.94545,0.109087 -5.48713,-4.558443 -1.10293,-8.312038 1.94545,-2.109087 C 436.20227,16.446026 435.83515,4.9439726 443,6 448.76815,4.4671328 436.3396,13.319157 436.12997,3.3898962 439.99916,1.8833434 445.963,1.6373943 453.25387,1 462.93467,0.7886949 466.32937,0.59352617 467,7 c 10.89193,-2.539496 0.32791,6.046031 4,-5 17.66667,8.666667 35.33333,17.333333 53,26 1.0821,9.950909 6.45733,8.664912 13.72303,2.184646 3.05278,-2.497552 12.30302,-10.857433 12.30424,-6.211918 C 553.876,20.052473 543.16248,17.411132 553,16 c 0.17878,-5.928522 -11.60275,1.440113 -5,-4 4.97877,-3.1073774 5.95716,2.384792 7,5 1.2371,-3.938516 10.23728,4.158129 11.02727,-1.972728 C 565.96103,11.434048 574.76676,6.9200861 568,5 c -8.94635,1.5387024 7.96607,-5.32299866 0,-5 -6.0472,-0.23041788 -6.79832,2.3437092 -10,5 -2.87862,5.275736 -0.18927,-9.7683525 -0.23041,-3.3847926 C 553.16989,4.8105598 549.60004,7.1184339 554,8 c 1.58915,1.8363221 5.89675,1.2280112 6,7 4.00832,-7.9244319 6.38895,-2.55664 1.62435,1 4.47594,3.134239 -5.69572,12.492687 3.37565,10 3.31465,-2.677723 -1.76535,-9.28893 1,-4 6.98898,7.498431 0.62277,-4.783461 1.97273,-3.972728 2.68795,0.883185 4.87957,-7.684535 1.08181,-4.972728 C 572.70941,7.530248 565.55015,8.5273404 563,8 c -2.9572,-2.3311724 2.99674,-1.253978 -4,-1.3756455 1.21795,1.9388507 4.54111,13.4290725 8.79052,3.2867097 C 578.99163,1.0592865 562.26461,1.7020982 555.74613,2 549.35699,-0.59802695 551.4,6.6133327 547,2 545.40536,-5.2621173 539.87362,8.6341614 538.97273,3.0272718 545.64574,-0.26110951 528.94571,0.06480898 536,5.3756455 c 0.17035,8.0009865 2.08453,11.1544575 8.97273,5.6516265 C 543.77106,7.1287899 542.86875,2.4235312 546,10 c 3.08241,2.605147 4.33572,-5.5560576 0.33271,-4.6691443 C 544.25953,-4.086917 557.71802,0.33191265 553,10 c 9.59023,6.066064 -12.13236,5.486607 -6,8 4.36632,1.582155 11.80092,7.248929 6,13 -2.24761,-0.728106 -7.9042,4.383368 -1,6 -5.91567,-1.536415 -3.95843,9.83798 4.6101,7.129965 C 558.63957,34.31419 560.01163,39.665328 566,37 c -3.40176,-6.770608 2.0385,-3.164874 1,-8 -5.63542,-4.291014 -2.63751,1.462888 -4,6 9.06349,2.867278 6.50233,0.694846 5.38479,-7.230415 C 563.72014,20.537021 576.2951,30.2289 563,23 c -3.34731,-7.411596 -10.76462,7.218582 -14.02727,5.027272 1.97584,12.659314 7.42329,6.52425 13.50491,10.171039 4.92052,2.893411 -7.78764,13.538228 -10.45037,13.828961 -1.26521,-0.640946 11.27172,7.792537 9.58794,12.203143 0.27358,3.553829 -10.51174,4.617653 -2.33796,12.258683 12.09911,-3.260787 0.78267,8.374948 6.01196,2.077083 2.13178,-7.845025 8.05021,-5.401705 7.68352,-11.538909 C 572.19196,65.286538 578.22695,60.551451 580,67 c -3.18917,7.285313 7.43453,4.627905 5,0 0.91373,-3.675049 2.00802,-9.218698 4,0 -0.14727,3.29498 -4.04779,9.153993 -9.61521,8.769585 -0.39381,-8.96173 -7.10678,-0.635083 -11.35752,-9.742313 -1.4021,-11.000185 9.68519,0.541472 6.02727,-6.972728 -6.07316,-8.988828 -10.47446,4.529641 -0.61594,3.782163 9.66855,-2.18218 9.57365,10.962113 10.58867,0.190565 5.2976,-4.513884 10.59542,-10.179916 7,-0.218174 C 575.23628,47.527042 558.97278,30.827434 543,15 c -2.55436,-6.9542829 -4.53272,-4.199632 -8.36182,2.805454 -8.70116,-3.409449 -6.27803,11.194535 -13.9524,15.154193 C 513.54941,41.45309 508.74743,52.83792 497.02731,55.653924 487.26268,57.518266 495.11067,69.275022 494,76 c -0.79603,4.702613 13.68159,-2.86552 4.08364,7.66618 -8.88111,3.021322 0.9187,11.062245 -4.05637,11.361092 -5.30197,-5.263623 -15.19734,0.332739 -14.93189,7.400438 -5.2426,-1.61616 -10.25805,-12.216379 -17.31559,-5.687641 C 452.32662,98.672886 444.49369,106.10728 435,107 c 0.45298,-0.2776 -1.84021,10.69305 -8.23041,8.38479 C 422.43069,111.64166 421.75351,107.2845 419,103 c 2.91728,-2.96229 -11.59157,3.87609 -5,-3 -3.28928,-7.668793 -5.69705,-6.785676 -2,-11 -7.85159,-4.373539 -1.03909,8.634739 -3.10052,11.82539 -6.67178,4.44113 2.02032,9.35591 4.47617,14.17461 7.79916,-0.18163 13.52696,-1.11403 18.62435,-5 -1.77787,-8.4908 -8.26634,5.30875 -7,-5 3.6397,-5.281728 -2.42545,-1.88696 -3,-8 -4.08919,12.15226 12.31877,5.99898 9,5 0.87768,6.84546 1.81935,18.22861 -7.01265,20.34036 C 419.26665,127.36093 412.58366,131.88573 405,133 c -4.57199,-3.46791 -5.82184,-13.0934 -6.30505,-6.08484 -3.50552,11.5386 -5.08758,-1.61742 -14.19753,1.08484 -6.3691,-4.36596 -11.64779,0.19434 -17.22045,-7.81535 C 369.50188,117.67302 380.57891,106.27756 381,114 c 2.14056,4.68886 7.08313,4.49751 15,4 -10.02113,-6.95224 -19.97941,-14.02929 -32,-17 -5.49297,-7.41696 -3.48073,-13.39996 -1.38479,-19.230415 C 358.30716,77.960801 357.52754,78.008789 366,79 364.00002,77.079978 371.9281,63.368439 370.02727,58.027272 366.95058,53.361903 382.87898,59.607029 379,52 c -5.17505,-0.784876 -5.87265,-9.377617 -8,-4 -4.56071,0.196368 -1.83814,-13.43525 -6.56498,-6.694948 C 361.98536,47.800513 372.84259,49.572889 371,54 c 6.99731,-4.827089 16.43138,-4.656508 12,6 4.57932,6.033144 16.69333,2.538612 19,12 -2.29144,3.692711 -7.97862,1.429064 -6,10 -2.02386,-5.653355 5.26707,4.289267 7,6 7.66789,-1.76117 9.57828,-5.156048 14,-6 -0.28405,0.629111 -4.45058,11.32017 -5.76307,2.855394 C 407.43065,75.685567 418.2209,87.830117 419,88 c 3.14258,-1.216801 5.36751,-8.356273 10.37565,-1 11.67245,0.09103 -1.82366,-9.155293 -5.37565,-8 3.1711,-3.348657 -0.28798,-12.653434 -5,-7 4.16707,1.525707 4.52381,8.030687 -1,5 -3.86039,-6.712107 3.49322,2.099988 2,5 6.88434,-0.680387 2.91913,-10.899372 7.02727,-11.972728 4.22415,-5.039115 -5.56407,-2.257937 -8,-4.054544 -5.33105,2.179373 -1.1287,7.738261 -5.33232,7.592255 -4.48557,-5.152444 0.40508,12.599255 0.18196,17.450265 -0.79308,8.424899 8.45655,-8.097045 10.93811,-11.972364 C 427.27121,70.090016 438.75399,73.200356 433,64 c -7.54807,1.476863 5.4885,-5.107678 6.43502,2.305052 9.61379,2.886639 -2.97314,-6.671092 -1.05937,-8.305052 -3.55607,0.0284 -8.08432,3.412441 -12.34838,-2.972728 C 416.69462,55.624167 429.19809,58.83699 426,60 c -5.94106,-3.312582 -1.67707,8.862043 0.41065,-0.106455 C 426.68243,53.294043 425.72087,49.21175 421,51 c -5.14598,9.209292 -10.58185,1.117595 -17.53361,-4.743099 -3.32638,-6.76033 -14.90612,-1.092083 -22.08318,-2.397868 C 373.7999,42.067482 379.0639,32.200861 370,35 c -8.65676,3.149983 4.59898,-12.779343 1,-3 -27.66166,13.343535 -55.36288,26.606455 -83,40 -2.64755,7.427906 -1.54473,9.2112 3,8.375645 -0.009,2.311266 -15.8114,9.915385 -6,11.624355 8.60587,5.906753 0.95799,8.07295 -6,5 -7.15898,-1.913497 -3.59061,1.388355 -4.85539,-4.763071 10.68487,0.156863 -1.6959,-3.729927 -6.52026,-4.236929 -3.59619,-5.179235 -3.65236,-7.015361 -3.65162,1.972728 6.18939,0.753909 -0.42439,1.137463 0.63493,9.496199 -1.34565,6.326063 7.47916,18.922433 -1.70818,16.356463 C 259.2449,124.63697 247.11798,116.79136 250,113 c -7.31532,-3.22087 -3.26025,7.7601 -9,10.37565 0.34301,1.4969 -9.91859,-10.70666 -7,0 4.73759,4.63198 -13.2731,4.15824 -1,9.62435 5.73827,-5.59395 19.75858,-2.62386 9.87306,-9.50258 C 237.69692,120.70844 234.27759,104.47082 231,113 c -4.35452,-3.5049 -4.73283,4.99338 -7.38479,7.23041 11.64544,3.25315 0.0726,3.1215 1.35752,7.74232 C 225.92012,139.69039 214.16421,124.65139 216,135 c -6.41763,-6.48022 -10.79002,-5.82622 -11,-12.37565 0.40289,-0.49413 7.85578,-8.93682 11.23041,-1.00914 7.16831,2.82508 2.22276,9.47742 1,2.92396 6.03553,-8.57365 4.85234,-10.68304 -1.23041,-7.91482 1.74183,-9.92133 -6.4136,-7.29575 -7,-12.62435 -4.20684,-4.49882 -6.20697,-9.401393 -11,-9 -1.23677,5.09 8.88464,5.58619 4,9 -7.18622,1.87798 -2.81156,-9.035055 -6,-2 -6.87264,0.0491 -3.55873,-6.903351 0.37565,-5 3.60916,-7.484084 -6.78209,-4.903759 -5.37565,-13 -4.87598,-8.458062 -4.71994,3.684594 -8,1 1.62915,-5.678544 -4.81422,-7.311664 -6,-12 -4.51261,-6.415559 5.01855,1.646895 4,-5 3.74668,-3.777662 3.55797,-11.564893 -0.76307,-11.855394 C 177.3861,63.951815 191.05958,55.76352 192,60 c 5.75355,-6.45567 6.98101,6.728114 11.37565,2 7.78331,-2.744025 4.05151,5.505872 0.62435,6 -3.53648,-4.305364 -9.61487,5.439943 -12,-1 -8.93865,4.068253 -2.1167,-8.855195 -2.24871,-4 5.06984,-2.483731 6.84669,6.735825 7.6335,-1.230415 8.37976,-3.381426 -2.30076,-9.501594 5.58794,-7.796857 C 211.45096,55.147029 201.63068,60.940594 211,60 c 3.62665,3.127605 3.42137,2.162214 7.97273,-3.972728 3.89317,1.606409 9.07701,-7.014328 2.05454,-5.054544 C 216.2444,55.315485 222.64014,43.757925 223,45 c -3.05941,-4.388878 -7.4898,3.749768 1,1 3.28616,-4.776489 -3.47239,-11.599108 3,-12 0.12468,3.241745 5.75343,10.295583 5,4 1.72813,-1.519146 2.84732,-7.811549 2,-11 4.03939,0.340163 2.4584,5.146262 7,6 -4.35744,1.729168 -5.01551,3.157298 -1,6 3.51926,4.384931 8.87449,-10.073169 9,-1.624355 -0.0931,2.724095 1.01352,7.162737 1.97273,11.597083 5.80735,3.085347 -2.96433,10.786192 -1.59708,5.027272 -1.29308,-7.889717 -4.92273,4.797503 -7.34838,3.027272 C 238.33496,56.898751 236.40416,52.299608 233,56 c -3.1498,-4.060168 0.26168,-8.057185 0,-13 -5.43049,5.178646 -7.25934,-0.03652 -3.02727,-1.027272 C 234.05657,48.21636 225.13228,51.100959 226,47 c -0.73811,5.999876 3.74516,9.176805 7,0 1.67264,0.0669 11.78187,-1.105987 6,-3 -0.75268,-3.548197 9.88018,-3.464754 5,-1 5.95756,2.804378 4.41126,2.877445 1.02727,6.027272 C 242.28066,48.411091 234.95711,48.287353 241,53 c 5.61601,-0.552251 -9.71569,0.483346 -6.90462,-8.427713 C 233.36099,38.295434 238.1156,37.378157 230,34 c -4.28542,-2.657909 -9.04187,-2.554965 -11,0 -2.77797,4.881014 -4.74894,9.069046 -3.97273,11.972728 6.11949,6.186431 -0.44102,2.907813 -3.40292,4.027272 -2.76647,2.311958 0.92284,10.56939 1.32111,6.054544 2.13362,-5.57175 -4.81591,-9.477788 -3.91819,-14.027272 C 201.4808,38.76467 211.62526,40.084965 215,38 c 1.66371,-4.069675 -8.58754,2.995697 -9,-4 8.49983,-1.823704 -5.14938,-6.736447 -3,-2 3.42751,3.351848 -11.09071,3.292753 -5,8 4.4989,-2.718768 7.13588,3.461353 4,-5 4.0758,-2.167789 5.46644,8.049329 10,0 -3.11837,-6.98641 5.94593,-3.379974 2,-3 2.66737,8.256084 5.96378,-5.461817 -1,-5 0.66047,-4.557626 4.90934,-7.278409 8.97273,-2.027272 C 224.33763,17.529963 218.90734,21.077579 220,27 c -1.54113,6.313556 8.5758,1.579312 -1.97273,-1.972728 C 220.75141,26.114441 208.09568,20.849482 209,26 c -4.85291,8.757509 8.53055,-4.436422 1.02727,-4.027272 C 211.47603,15.495456 205.97223,20.262382 204,20.375645 199.65436,20.489895 197.86191,16.76893 195,14 c -2.30965,-1.697367 -5.64113,11.446471 -7,6 7.37093,-0.89192 -4.73498,8.618142 4,8 1.84174,2.992655 -4.31405,10.233209 3.23041,11.615207 C 203.45037,33.73106 198.28222,41.83434 200,44 c 3.24916,8.707138 8.53427,-1.727848 4.11933,-7.0568 C 196.03372,31.403624 205.50816,29.056928 205,25 c 0.87289,-3.934257 -12.40985,1.985064 -4,3 4.48697,-4.231616 -8.03973,3.435036 -3,3 -1.69905,6.052435 -4.67802,4.528008 -8,3 -2.02351,5.548755 -8.75587,-1.707558 -5,-5 2.9874,-4.829706 -1.27654,-9.555269 -6,-5 -3.71158,-1.75288 -4.55973,6.103583 3,3 6.25401,-4.671031 -7.90871,9.289128 -0.3899,7.129965 C 178.53705,25.231342 186.51996,22.162374 193,28 c 6.84185,-1.456338 -1.53756,-8.138019 7,-6 2.20038,-2.130337 3.38716,-8.123909 11.04679,-7.809359 C 221.0429,18.422287 206.13243,20.300053 217,17 c 5.36959,-0.194855 9.35064,2.361421 11,6 1.68644,4.516084 1.68135,-7.273019 6,1.375645 -2.57307,6.389336 -8.12362,0.621014 -6,4.624355 3.2313,6.722383 7.06545,-0.605274 12,4 5.4884,-3.237408 3.68151,-10.398368 10,-5 -0.50767,7.937351 -6.93933,1.596196 -8,9 3.78606,0.500105 -8.41754,2.948181 -4,6 6.53766,1.844788 9.30906,9.085129 15.97273,4.972728 C 262.11031,45.260183 253.23437,43.284059 254,37 c -6.75145,0.70317 1.88556,14.528095 2,2.624355 5.06303,-3.533644 -3.59349,-8.40638 -5,-5.624355 0.0199,4.116896 7.97026,3.039899 10.97273,8.972728 C 257.7818,44.550898 259.86704,51.630705 263,56 c -3.26891,4.395457 -8.90614,-9.804376 -6.54769,-3.286143 -1.20129,7.071226 5.98661,5.769774 5.57496,10.258871 1.55612,8.238964 2.90849,-9.778562 6.94546,-3 9.72572,0.803789 4.12105,3.824781 6.02727,9.027272 -2.00416,8.757429 4.39986,-2.460331 7,-2 11.32999,5.879734 -2.37844,9.987554 -9.06375,5.216057 -3.14813,-3.934396 -5.23074,-6.78455 -11.90898,-5.188785 C 256.92182,68.485758 258.74117,59.251468 254,59 c -0.53288,5.946194 -14.95234,1.662556 -7.05454,-2.945456 8.86442,2.783697 -1.03074,9.777309 1,11.890912 C 247.37409,72.778908 242.97896,70.713868 240,69 c -4.81438,1.24922 -11.812,1.983001 -8,-4 -7.79232,2.194719 0.64427,-9.691293 0.0273,-2.027272 8.06049,4.915105 3.47791,-5.473519 3.34838,-3.972728 5.91788,-5.867658 2.75997,8.945834 8.59708,4.027272 C 248.25855,61.723326 239.26469,71.033793 238,65 c -4.88976,0.66298 -10.98034,6.51421 -14,1 0.96656,-5.185949 -7.09344,-8.197336 -5,-1 2.67128,4.247163 7.14884,6.871673 3,11 -5.32765,2.494663 2.38596,0.584117 5,1 5.83292,0.801506 3.1308,8.592751 -2,3 3.96937,-3.691172 0.32825,-8.457508 5,-7 3.54729,0.565379 16.62182,-0.909997 4,4 -6.88751,-0.912186 -17.24293,-4.581889 -16,-10 -7.91617,-5.935998 -4.27432,2.262514 -5,7 -2.59698,5.307736 -4.48622,2.984873 -9,3 5.35677,7.407859 -9.02423,3.797975 -9.76959,5.615207 C 199.3538,79.365351 201.20328,73.179878 201,69 c -8.50454,6.926785 -10.00541,-7.18891 -13.67229,1.810122 -2.66839,10.0087 -12.64103,-4.409277 -15.30044,-2.837394 C 169.08423,74.817139 171.05479,55.237783 173.62435,58 165.00547,56.625743 165.16217,61.322114 163,66.375645 c -8.23814,3.30911 2.3612,-13.155781 -1.30505,-5.810662 -9.70772,-1.753065 -2.34623,-9.895717 -14.0706,-7.564983 2.52908,3.179579 2.93491,7.846511 2.37565,15 -4.89007,0.788003 -10.57443,-9.079798 -10.87003,0.610104 -2.16508,2.996636 3.69452,7.980442 8.10044,3.774689 1.31781,3.135466 8.74766,6.752016 5.79686,0.642479 -1.60601,-0.550926 -1.13944,-11.671981 3.6822,-0.705183 C 163.54306,75.072426 156.8451,80.399276 156,82 c -0.26135,-0.71675 -6.24629,11.958637 1.97273,11.027272 7.72988,-8.602956 -2.66703,0.592717 5.32882,-2.503434 C 167.25001,89.740164 168.13284,90.901118 169,86 c 0.18682,-4.140715 -9.72071,-7.231148 -8,-2.624355 2.44704,7.19908 11.98509,0.772312 16,5.624355 2.24162,11.33213 10.64502,-3.146384 0.46118,2.123291 -6.45288,6.421353 -7.00577,5.116134 -1.48845,11.849439 -0.28504,3.50228 6.42104,7.90847 -1.94546,5 -3.31557,0.59775 -9.20671,2.35876 -4.02727,-3.34838 8.62883,-3.76768 -4.17434,-4.03622 -4,1.12694 -4.04211,5.83008 -1.75344,11.20204 1,6.24871 5.61295,-0.99646 11.83196,0.89601 14,5 -1.09163,4.00304 1.1608,5.17247 -4.37565,8 -3.70346,-2.44929 1.03405,-7.66337 -5.62435,-10 -4.42794,6.47219 -12.68368,-1.76404 -12.02727,4.97273 5.16313,3.88231 17.23212,2.57537 16.05454,-4.94546 9.54464,0.30712 4.21247,-8.71038 10.97273,-6.02727 -0.38399,7.33145 10.30727,-2.3852 2,-2 -5.33744,-7.302625 -7.99092,0.25882 -6.14461,-2.76307 C 173.69728,103.32065 176.22798,94.518583 186,100 c 6.12368,3.63011 6.37274,-10.770315 3,-3 8.84059,-2.896424 -0.20956,11.90945 7.33364,10.33457 2.23451,9.53124 12.57835,-3.50093 3.66636,0.66543 -4.92509,4.47455 -2.94551,10.01353 -2.97273,13.97273 6.94506,5.72275 -1.09471,8.61009 -3.02727,3.02727 4.29723,-4.07225 -10.45504,-3.42474 -7.02727,0.97273 -4.81477,2.89235 -3.08763,-11.501 -2.79312,-9.26497 6.72386,8.11559 5.62533,-1.89624 13.48953,-3.37505 1.10882,7.49336 11.67261,3.3996 12.33086,-2.33271 -10.19612,-3.08338 2.22594,-0.36994 8.75129,-4 4.27725,1.30425 8.63584,2.10837 15.24871,-1 -2.09722,-12.418937 7.71225,2.83352 -5.21998,-1.74727 -7.97749,0.84286 -13.06578,0.0334 -19.50305,-5.068084 C 203.39803,94.41469 205.64116,95.530636 202,88 c 7.35437,-2.072535 5.7337,-8.311718 15.8091,-7.027272 C 222.95883,80.954208 213.42406,70.100722 211,70.624355 207.86871,58.957958 214.58128,70.411066 219,63 c -4.49612,-2.374262 5.98163,-7.624599 9,-6 -5.41793,4.783283 3.20141,9.021054 -4,6 5.08948,11.5219 -10.3727,-7.978015 -6,-9 10.88275,0.518966 -2.55259,-11.201935 -1,-14 6.18873,1.054618 4.83691,-1.022988 5,-6 1.58402,5.95522 -8.55179,5.196045 -9,10.375645 -0.6321,-2.312183 3.45922,-15.255638 10.71645,-17.173111 3.12218,-6.487374 3.52607,3.560148 4.26175,7.351976 C 221.69164,45.688282 236.03366,31.468183 240,29 c 10.16292,-2.853116 -12.18897,-9.157725 -1.30876,-6.154378 4.91747,5.566854 5.22451,17.968152 15.17359,15.58343 8.97034,-1.763963 11.84625,4.478065 13.51996,9.801363 C 257.46171,50.467701 269.75615,44.630151 271,54 c -9.44432,0.481047 -6.90833,4.794301 -1.08182,12.918185 6.7983,11.503158 -8.19698,2.222338 -13.07346,-1.41135 -2.14139,-5.1848 -12.58355,-5.897168 -18.9163,-9.164787 -9.87838,-1.773033 -20.46425,-5.785751 -30.07303,-5.578977 C 202.94047,50.069161 195.77752,53.133495 189.62435,54 179.41854,57.9534 193.33921,44.62269 188.39933,38.389234 185.20935,25.706241 191.86434,32.913377 193,26 c 1.91735,-5.116797 2.13995,-9.601239 -7,-10 -2.64915,-7.0495299 -3.88586,10.303433 -1.23041,2.384793 C 180.08291,12.482201 171.97887,19.945491 179,19 c 3.12113,5.332746 -13.77881,4.706774 -13,1 1.78814,10.763664 7.08577,-12.2864923 -4.10014,1.207235 -6.223,5.294557 -9.56648,8.558025 -19.25543,10.577955 -4.4449,1.710517 -17.31894,3.584124 -16.97714,-1.454334 C 136.59476,21.114778 132.58456,35.386362 130,43 c 0.26842,8.907866 2.73837,7.278383 12.34434,7.949565 C 143.86785,48.540353 141.72316,64.830728 142,70 134.51959,70.855609 135.27529,81.768713 138.97273,82.027272 142.09008,80.794853 150.10884,83.926121 145,77 c -4.282,6.146988 -7.00932,-9.507037 -12,-2 -4.07764,-4.30944 -1.94984,-8.253187 -4.36182,3.532737 -2.71475,8.681577 9.48134,9.356339 12.11311,12.467263 7.07714,-3.228155 13.41888,8.240442 4.49742,8 -2.65888,-4.787664 3.75642,-12.045356 4.75129,-16 7.24911,-5.923342 -9.73454,-6.682762 -3.23693,4.144606 C 153.90024,93.797315 151.79108,103.24959 152,112 c 12.47569,-3.36224 25.18693,-6.62235 38,-8 0.66854,8.2542 -1.33419,17.139 1,25 -10.47832,1.26449 2.79294,-13.00361 3.27077,-18.90462 4.83176,-10.798931 9.66378,-19.705119 12.39304,-31.502763 5.94351,-10.572364 -0.33891,-10.524144 -10.03894,-9.967621 -7.30168,1.643327 -20.32792,-4.407733 -22.25055,2.168257 -3.26219,8.437443 -3.67203,15.360362 -11.65832,5.803413 -9.85796,-2.035021 -18.90844,6.762467 -28.31886,9.515139 -7.1322,2.194814 -17.59238,12.356788 -18.29527,-0.840147 -7.47541,-13.738501 -1.77244,-29.444216 -2.1245,-44.227882 C 114.06932,29.140675 115.97467,17.491822 119,6 113.88742,-1.4966425 128.14321,1.0686487 129,5 138.09155,-1.1385403 124.57365,6.7696244 117.76835,4.3947316 97.845566,2.9298211 77.922783,1.4649105 58,0 c -1.093656,30.862222 -0.562379,61.942834 -2.667286,92.669144 3.256062,4.453294 -4.252929,13.950736 0.640014,14.358126 3.723488,-5.27659 11.934747,5.01953 4.651627,4.97273 -0.90367,-5.05322 4.953877,-8.63773 5.348373,-12.972728 C 63.2083,94.70007 56.363546,102.78757 62.198311,105.47764 68.259075,109.81688 66.314573,112.74843 63,118 c -6.265291,-5.84595 -0.115099,13.15744 0.02727,5.02727 C 70.57948,125.44255 59.959006,129.56896 66,130 c -0.218873,5.20173 -8.42149,9.7882 -2,9 -8.011693,1.73939 -6.074059,8.69665 -3,10 0.794447,3.52407 5.678007,11.27716 4.476162,16.30155 5.471459,8.51132 6.183966,1.06715 8.85841,6.36481 6.708987,-3.67425 14.759773,-3.95811 13.435013,3.94885 -5.701814,2.01613 3.786518,14.83638 4.519627,13.91093 C 88.472201,193.50629 78.265449,197.14911 72,201 c -5.78908,-2.9128 -3.068786,-8.11469 0.921659,3.84332 4.979324,3.95084 4.169814,-13.44298 6.857757,-17.91687 3.222465,-6.98648 1.312903,-18.88126 7.866016,-22.68229 C 99.932256,159.61204 81.024673,159.39511 76,160 c 1.310891,-11.00244 7.005496,-21.97485 5,-33 -6.837219,-4.54909 -5.494294,-3.17204 -11.615207,-1.76959 -7.200647,4.55139 2.209268,-7.33997 1.990852,-7.23041 8.210578,-5.01382 -5.373583,-3.37271 -4.760438,-0.76959 C 69.214877,124.6986 84.145373,118.56478 76,112 c -3.61786,0.69377 -8.113439,-2.61901 -7,-7 -3.849738,-2.68237 -10.363078,12.24161 -13,14.37565 -0.01805,3.62193 6.84088,7.18221 3.027272,12.59708 1.697655,7.93108 6.044315,-11.52916 0.179215,2.31267 -1.456533,5.40822 12.801282,-7.14816 17.538792,-8.82096 8.193903,-9.7832 11.814075,3.153 16.870796,8.95334 C 104.74405,149.94519 115.87202,165.47259 127,181 c 35,-15 70,-30 105,-45 0.28023,-6.09972 -6.49829,-19.11378 -0.2543,-20.17526 C 246.49714,114.88316 261.24857,113.94158 276,113 c 5.34091,5.26174 2.92227,10.14118 12.35921,4.58447 6.28977,-5.55719 14.94341,1.71884 22.36393,1.92713 21.42562,5.1628 42.85124,10.3256 64.27686,15.4884 -1.33333,24 -2.66667,48 -4,72 -4.72428,4.8113 7.77044,12.22413 3.63498,8.61121 1.14711,-8.01349 -15.9125,-9.60088 -13.40457,-5.15038 15.73202,14.35911 33.77491,26.98461 49.15245,42.12858 8.1341,6.4485 15.26107,15.5163 23.99279,20.41059 8.32457,-3.6801 3.2809,5.80695 6.62435,10 5.42953,2.86061 -1.8625,-4.27798 -4.29842,-1.65711 C 436.21653,288.60567 430.04082,297.35885 436,303 c -2.40776,5.00646 7.13386,3.02259 4,9 4.9601,0.66879 -1.78988,8.5855 2,11 -3.00032,3.20534 -2.38733,8.79848 -3.76307,13.14461 -5.02926,10.7919 -11.10583,21.82685 -13.46734,33.31622 2.44459,3.48106 15.97093,-0.20984 22.59611,0.5656 0.11651,-7.77779 12.48711,-12.50808 16.45494,-6.40038 3.99524,8.27575 4.48069,14.4249 -1.12569,21.28911 1.21415,5.51593 -5.5318,17.10541 1.30505,12.08484 5.83789,-2.65981 8.58358,3.25849 -0.14461,5.76307 -1.09105,4.28328 -1.65328,5.71624 -2.47974,9.23693 3.83428,-1.47508 10.53479,-4.17747 8.65162,-7.97273 C 475.98965,403.63716 476.06005,392.11186 472,391 c 7.29518,-9.61234 6.33661,9.06802 6.88047,-3.17129 5.76184,-12.57195 -7.31721,5.11705 -11.21797,8.06451 -5.08416,4.20425 -12.68708,14.74825 -11.98967,13.74482 -7.79867,-6.13021 -17.94877,5.44146 -18.10018,-7.52692 C 431.7151,383.07408 425.85755,364.03704 420,345 c -5.22344,-0.55683 -6.97981,-14.22872 0.97273,-7.02727 4.25678,5.35346 -12.99146,8.69758 -7,5 -10.77623,10.04435 0.71892,-4.64199 -4.89091,-7.89091 -0.84495,-3.80908 -4.5036,-1.6044 0.89091,-8.05455 4.78634,-0.1401 6.60004,-3.72162 11.02727,-2.02727 3.35385,-2.56181 6.86207,5.95644 9.61521,-4.23041 5.87447,-8.6996 6.24298,9.64711 -1.23042,7.46082 C 428.27882,335.56774 422.44082,325.48715 419,328 c -2.44591,-1.35497 -4.60815,9.04091 -7.30505,3.43502 -10.20478,0.58727 2.69751,-14.43042 7.13681,-9.90231 2.37504,-3.12566 7.3162,-4.58591 8.51717,2.73708 11.66545,2.43572 -6.22986,-10.63384 7.32021,-12.93708 10.8802,8.56421 -1.24423,-6.49348 -3.03656,-12.13784 -3.08151,2.56492 -5.13193,15.80022 -7.81363,22.5026 -7.10182,8.16352 2.65213,13.31108 -2.04936,13.68732 C 418.19931,327.03011 405.00839,335.81823 405,340 c -6.83053,-1.74559 -11.62605,8.83684 -8,15 -18.23504,-2.12115 -35.40791,-9.08164 -53,-14 -4.24961,-11.75539 -9.43469,-22.91689 -19.0431,-31.27011 -9.24048,-9.83982 -18.69778,-19.53523 -23.02364,-32.64856 -4.96672,-8.45852 13.39385,-1.98497 18.70031,-3.86751 C 378.08905,273.80921 435.54452,274.40461 493,275 c 1.87378,11.34493 1.28416,-10.66584 2,-15 15.54011,-21.45331 29.41681,-44.32501 46.00022,-64.8891 5.32033,-4.65949 13.68135,-13.31268 16.30483,-15.67588 6.4217,0.68986 8.70086,16.73414 6.87366,1.35207 -1.7519,-5.46692 -9.1774,-6.13207 -12.03194,-15.72182 C 537.76451,141.37685 523.38226,117.68842 509,94 c -7.44374,-2.51778 -14.39892,-10.474411 -22.23041,-9.384793 -11.19868,0.442711 2.24326,6.766906 -8.08737,3.970702 C 391.45482,65.390606 304.22741,42.195303 217,19"
   style="fill:none;stroke:#000000" />
&quot;</svg>
