<?xml version="1.0" encoding="UTF-8" standalone="no"?>
<svg
   xmlns:dc="http://purl.org/dc/elements/1.1/"
   xmlns:cc="http://creativecommons.org/ns#"
   xmlns:rdf="http://www.w3.org/1999/02/22-rdf-syntax-ns#"
   xmlns:svg="http://www.w3.org/2000/svg"
   xmlns="http://www.w3.org/2000/svg"
   xmlns:sodipodi="http://sodipodi.sourceforge.net/DTD/sodipodi-0.dtd"
   xmlns:inkscape="http://www.inkscape.org/namespaces/inkscape"
   width="11in"
   height="8.5in"
   version="1.1"
   id="svg4"
   sodipodi:docname="result.svg"
   inkscape:version="0.92.3 (2405546, 2018-03-11)"><metadata
   id="metadata10">
  <rdf:RDF>
    <cc:Work
       rdf:about="">
      <dc:format>image/svg+xml</dc:format>
      <dc:type
         rdf:resource="http://purl.org/dc/dcmitype/StillImage" />
      <dc:title></dc:title>
    </cc:Work>
  </rdf:RDF>
</metadata>
<defs
   id="defs8" />
<sodipodi:namedview
   pagecolor="#ffffff"
   bordercolor="#666666"
   borderopacity="1"
   objecttolerance="10"
   gridtolerance="10"
   guidetolerance="10"
   inkscape:pageopacity="0"
   inkscape:pageshadow="2"
   inkscape:window-width="1366"
   inkscape:window-height="704"
   id="namedview6"
   showgrid="false"
   units="in"
   inkscape:zoom="0.35355339"
   inkscape:cx="236.47883"
   inkscape:cy="167.44759"
   inkscape:window-x="0"
   inkscape:window-y="27"
   inkscape:window-maximized="1"
   inkscape:current-layer="svg4" />
<path
   style="fill:none;stroke:#000000"
   d="m 435.24213,497.30233 c -4.80062,-0.25298 -3.1756,9.35104 0,7.62435 -2.20097,-7.12758 10.07685,-6.85346 5,-1.2487 2.14581,7.15066 5.87039,7.77263 9,7 2.14539,3.79478 2.14341,15.79375 4.97273,6.65162 -0.55194,-2.59821 -0.29448,-10.37298 4.02727,-10.02727 -2.21609,-2.56164 -0.40534,-8.9954 -5.97273,-8.02727 -1.67097,-4.94057 -0.85557,-11.16663 2.94546,-7.94546 2.78286,7.83418 0.30091,-6.2314 -1.30637,-3.36184 -0.75636,-12.09051 7.77098,7.83262 10.33364,0.95892 -2.45807,-1.66977 9.96395,1.63092 12.61521,4.60606 1.78559,4.1168 4.23965,7.94377 0.38479,13.14524 -10.88293,5.359 3.15786,-5.97204 -4.37565,-4.37565 5.00305,-2.82258 -5.98364,-1.91529 -8.59708,-2.02727 -2.23366,-6.81949 -4.20825,-6.63683 -6.02727,-6.97273 4.48898,4.88186 12.22061,2.05993 10.22182,-4.44728 -2.4093,-7.49002 -12.64891,-6.99297 -19.22182,-7.55272 -8.73504,2.11939 -2.62168,7.20199 -0.62435,10 6.03331,0.89867 -5.23987,5.35608 -9.34838,2.02727 2.93187,-3.78085 9.11881,-1.87471 -1.02727,-5.02727 2.38858,-8.48315 -8.99663,3.30078 -8,4 9.55209,1.97447 -5.41341,8.45631 -3,1 -4.52874,5.2472 -7.96941,-7.12179 -3,-6 5.10786,5.16249 5.42655,-8.528 4.38479,-8.23041 -1.76263,-0.45815 -0.66315,-12.44684 -6.33025,-3.82413 7.16097,9.39068 -4.84853,8.63082 -4.70561,11.78475 6.82648,-0.5938 18.04413,-7.32342 17.65107,4.26979 1.27156,2.37589 2.26851,4.57782 10,6 6.21746,4.14614 -2.39928,6.85507 -5.28921,9.52614 -2.37151,8.91329 10.21611,-3.11793 10.28921,-2.52614 2.28166,7.20971 8.30056,-1.17586 1,-3 3.3789,-6.08933 11.13429,-2.43363 11.02727,0.97273 0.26615,1.9073 2.49135,10.80962 5.94546,7.05454 1.90227,-4.93477 3.0042,2.94627 3.02727,4.97273 -5.69411,7.09504 -5.10266,-5.66131 -6,5 4.2345,1.78174 4.22279,4.03026 10,-1 1.48901,9.34574 0.13453,-5.4856 3.97273,-3.97273 2.89648,-7.89502 -8.73643,-1.47864 -5.84276,3.58283 -9.06889,0.96536 3.17137,9.15197 2.84276,9.41717 3.19571,-4.46075 9.09689,-7.28425 12,-8.05454 -2.65269,5.80572 12.87244,2.84103 2.02727,7.02727 -1.23687,7.91573 -8.57007,-12.06112 -11,-6.62435 3.39529,2.97906 16.62441,-10.3818 7.02727,-5.40292 0.74127,-3.69701 -7.1404,-4.36924 -3.02727,-8.97273 -2.39719,-4.85409 6.50972,2.24731 7.97273,4.97273 2.97305,2.51479 8.68028,9.03394 1.02727,10.02727 0.0729,-5.42069 2.41101,-13.67218 5,-16 7.44812,-1.59189 6.44761,4.87378 7.37565,8 5.26328,-5.53203 -1.06124,-7.73112 -1.37565,-14 -6.70738,-10.18383 -6.74703,4.27662 -5,10 6.12854,4.75823 -5.86786,5.06938 5,7 -3.09877,5.55422 -9.95381,8.84373 1.37565,5 2.22894,-7.31787 8.96708,0.5051 7.65162,-7.97273 3.55735,-3.86845 -9.13846,-4.08645 -1.41206,-9.25768 3.54472,1.00156 2.80524,-9.06291 6.38479,-5.76959 4.12434,-2.66473 -3.33904,-12.58938 3,-6 4.40572,-0.1046 9.48907,-2.57829 12,-3.37565 2.54979,3.98635 6.20406,-3.78251 10.97273,1.34838 3.60977,4.96171 2.64202,10.04504 7.40292,3.02727 6.47969,-7.23819 -12.36726,-1.01633 -0.14524,-7.61521 0.90089,-4.71345 -5.51802,12.43377 -10.60606,11.61521 -4.70839,2.77163 3.29971,9.72972 2.24568,4.3899 -1.54786,-5.50406 -9.86608,-0.29765 -10.87003,-4.3899 2.7949,-5.33999 -6.83791,-7.87486 -2,-11 6.04928,-2.63814 12.54597,12.91136 4,9 -2.28636,10.76304 5.06874,3.99919 2,11 -3.0267,-0.52752 -5.99113,-5.33981 -10,-4 -2.3269,2.28554 -3.6142,5.14531 -8,5 3.27264,8.11451 11.70142,2.97799 8,-3 7.73853,6.71661 5.71496,5.32707 3,-4 -2.71428,1.19351 -10.52897,-8.4049 -4.02727,-5.02727 2.91856,-1.18122 -3.70356,-8.79608 -8.97273,-7.97273 -4.90889,5.84732 0.86315,15.93572 -8,10 0.22237,9.79677 9.0922,5.36682 11.97273,3.02727 4.83983,6.96147 -0.0924,-9.93242 -3.04877,3.1248 -0.51238,7.48709 -0.15674,15.94571 -9.31275,8.48291 -6.70616,-2.41735 -13.26042,-9.57429 -19.84162,-9.01977 -5.75441,-6.83095 4.27651,6.51591 4.23041,-2.61521 -7.09348,1.98607 -18.42253,3.52735 -22.23041,6.38479 -2.97231,-8.86698 -2.88492,4.40476 -8.76959,-2.76044 -1.08465,-7.72153 1.07972,6.47633 -2.02727,8.34838 6.44952,-3.1783 5.56001,-0.7817 3,5 2.82259,8.71443 -9.12274,-6.92896 -1.97273,5.02727 3.42983,6.95005 10.09916,5.76034 5,0 9.85962,10.99237 -6.39698,1.21028 -11.69124,-0.84562 -13.78796,-1.94421 5.16636,-12.15037 -5.60555,-17.52537 -3.9916,-9.89832 -12.66862,6.587 -19.31842,-2.85942 5.55112,-2.79328 16.47703,-2.80715 24.08889,-4.53477 3.72478,-4.17339 -5.04586,-14.61402 -2.47368,-20.23482 -0.33702,-7.34039 4.34617,-15.14848 -2,-18 -1.94918,8.57538 5.03154,-6.9993 2,-10 3.17593,-4.05752 -6.14326,3.19062 -5,8 -5.51583,-4.77073 -8.90993,6.62948 -15.37565,1 2.56071,-9.36674 2.30451,3.66034 8.32111,-3.94546 -10.88346,-0.88842 1.59521,-11.13138 4.48956,-4.74949 -1.17611,3.60198 -6.78992,18.73157 -11.30505,12.08485 -3.95463,-0.73149 -11.98044,16.99849 -8.74193,7.72359 0.50506,-10.93407 9.52014,-11.87557 18.49108,-12.86888 11.82821,0.79546 13.61918,-5.69003 10.30278,-15.88039 -3.33206,-21.79704 -6.79869,-43.57459 -10.1819,-65.36422 8.22389,-0.68984 6.56843,-8.73934 11.97273,-9.02727 0.73894,6.89526 7.25156,-6.41827 0.0273,-7.97273 1.86478,-2.31702 0.43778,-11.79135 4,-7.62435 9.37802,-0.45485 -6.90989,6.69815 5,8.62435 -2.21915,-6.06202 6.43831,-7.10676 4,-13 -1.96815,-1.21769 -5.75125,-6.55261 -10.37565,-4 -9.79773,-1.62708 -0.45128,4.20393 5.37565,4 8.74373,1.48409 6.35681,-14.56823 1,-12 -7.51142,-6.42689 9.28354,-0.68952 -1.97273,-6.97273 -4.54124,-0.68426 -5.90165,-6.87966 -11.02727,-4.02727 -3.65797,0.0187 -0.98661,-4.08205 -6.97273,-6.97273 0.70437,-7.25402 -6.70365,-7.18525 -8.40292,-2.02727 -3.59003,2.22048 -6.10625,-6.74458 -5.65162,-5.97273 -5.5327,-4.1412 -3.1261,7.68424 -9.97273,5.97273 0.0276,4.1975 -4.72365,1.36039 -7,-2 -6.27681,3.8647 1.15954,6.086 1,12 0.81082,-4.72443 11.98365,-2.48537 10,0 -1.59399,7.51317 -3.83723,1.94608 -4.97273,7.97273 -0.88178,1.67082 8.21316,3.89066 4,8 -2.11432,6.43984 4.5252,2.68461 5.91819,3.08181 2.30934,-3.54596 7.19303,-10.79231 8.43933,-1.82413 -0.52889,1.37886 -7.58277,8.30893 -3.38479,-1.23041 -9.17072,-0.95804 -6.68916,-4.75189 -4,-7 -0.68208,-10.51396 3.55766,6.91414 6,-1 0.41475,-2.36802 -4.01382,-7.45476 -8,-5 -5.18854,-3.7377 3.60947,-3.00747 6,-7 2.65382,-6.80145 5.27182,1.176 5.97273,-5.97273 3.94744,-2.25747 0.44595,12.27518 6.02727,5.97273 5.24726,-1.65152 11.43939,-10.52103 12,-2 -5.50045,-0.0913 -10.97963,5.85662 -3,8 1.26822,7.23216 -8.38403,-3.56141 -9,4 1.64599,-6.16122 -2.2543,-5.74706 -5.97273,-8.02727 -4.64474,6.56577 -6.97185,-0.60638 -10.02727,-2.97273 2.07576,-4.10476 -5.22749,-11.11207 -3,-1.62435 -3.58771,-2.69989 -5.93188,5.2834 -9.97273,-0.34838 -3.1417,7.99147 -9.52937,0.20001 -10.02727,6.97273 5.59883,-0.45537 1.3522,8.33532 8,2 7.10024,0.2402 7.45141,-7.35516 13,-7.37565 0.15189,2.69058 -1.03421,13.14703 -2.97273,12.40292 4.49659,5.20366 -7.74747,8.29942 -4.65162,11.97273 -0.50196,0.4666 -11.61149,-2.73248 -1.40292,-6.97273 -9.73352,-5.58151 -4.18698,-6.13457 -2.02953,-6.90794 -5.172,-6.33164 -11.80816,0.17787 -15.91593,-4.1466 -2.05625,-5.2752 -7.4972,-0.25073 -7.02727,-2.97273 -0.026,-5.85729 -6.03217,-7.4574 -5,-2 5.8238,2.27318 -0.045,3.00753 -1,5 5.69693,1.30972 4.01334,3.42752 5,8 2.66689,3.02953 8.56204,7.08485 1,9 -3.49688,-8.03504 -4.35882,7.09647 -6,-3 5.42559,0.24552 0.44855,-13.43205 -2,-9 -1.79697,-0.58597 -5.20262,11.86853 0,11 -0.87769,-9.73382 1.9955,2.51983 7,-2 1.8683,-0.26564 -2.13954,-3.45879 2,-8 7.09049,1.31812 -0.0889,-11.09807 1,-3 5.50941,3.16868 3.92309,10.24711 -1.284,1.59667 -7.46698,-4.45249 -7.35276,11.38263 -10.716,-0.59667 6.92369,-5.60932 -10.88438,0.20249 -4,-5 -3.94586,-5.59077 3.03824,-6.07862 2.37565,-11 3.78078,6.2645 -5.9805,-1.53992 -8.37565,1 -6.08066,-1.88056 -9.20091,6.32375 0,3 5.34504,-2.79501 1.5301,13.55337 -1,6 4.34284,-4.64453 -4.24369,-3.41959 -5.28921,-4.47386 -5.60942,-0.47091 1.70178,6.53866 -0.71079,7.47386 -5.03448,3.41915 -3.93098,0.59739 -5,-4 -3.91539,-1.6268 -7.39827,-5.01929 -1.02727,-3.02727 4.85635,-0.34519 5.69587,-8.2959 0.0273,-7.97273 1.77868,5.71487 -1.22748,0.76532 -4,-4 -4.90331,-6.05277 -9.69061,1.94067 -13,-1 -7.09977,0.34059 2.96835,4.70511 -1,9 4.40664,-1.31089 8.12805,1.13987 5,4 3.35826,6.99976 6.47807,-1.45246 10,-4 -5.24493,-1.83453 -8.78696,5.1844 -9,8 2.29296,3.84317 -8.21776,1.32595 -2,5 -2.7218,7.1899 6.55183,0.6462 4,-3 9.12028,-3.75873 1.03653,2.95583 3.97273,3.02727 6.26632,-1.40222 6.47826,11.84499 7.02727,0.97273 3.25865,7.29155 5.56156,-4.75205 10.97273,1.97273 0.41839,-2.30957 -0.0587,-7.192 6.02727,-1.97273 6.07225,0.6404 -2.54736,6.00666 -6,5 -2.13715,4.96505 -9.30892,-6.13787 -10,3 -1.93106,-4.59634 -3.8421,5.42326 -10,1 -1.91119,-4.38596 -11.39456,-5.7734 -9,0 -3.57109,8.01224 -1.87679,-4.25904 -4,-6 -7.75065,1.38114 -0.67067,5.64155 -1.97273,7.97273 -1.49748,4.8419 0.76168,6.99813 -5.02727,8.02727 0.17444,1.70915 0.47408,12.73766 -5,3 -5.02813,-1.22105 -0.79028,-14.24111 -6.97273,-5.02727 -3.94616,1.12273 -3.56653,-6.23881 -3.02727,-8.97273 -3.14061,0.55062 -9.50268,1.03417 -1.62435,-3 -2.42048,-2.65626 4.57885,-9.62782 -2.37565,-6 -6.652,-2.72197 -3.01687,-7.02917 -7.37565,-9 -5.87637,-5.88889 1.9004,6.63182 -2.85476,8.61521 -3.98304,-4.94688 -16.34837,-0.15479 -5.10045,3.05208 0.2259,5.16462 14.59797,-4.49721 9.71565,4.56312 -2.6753,0.54293 7.95625,6.25099 5.61521,10.76959 4.58488,7.56816 15.20441,-3.04795 12,-9 -0.71001,-5.07255 -1.30144,-10.00459 4,-7 -4.54544,4.80889 2.7266,6.73709 0,11 -2.75516,7.86443 5.30582,1.13993 2.97273,-0.97273 -0.72839,-3.68381 -0.60893,-6.96195 0.0273,-11.40292 -5.83668,-2.83935 3.32811,0.0831 6,-2.62435 9.53687,-0.55703 -1.03378,-6.47897 6,-7 -2.99656,-3.80045 -9.70098,2.97146 -5,-5 5.12782,2.20488 -9.13635,-5.1183 -9,-4.37565 3.91876,-9.43938 -6.55905,-7.55539 -10,-9.62435 -6.51043,5.71594 -3.08089,-5.81243 -7.97273,-1.97273 0.0614,-3.251 0.95721,-9.40028 2.97273,-13.02727 -6.26591,1.09802 -2.43603,-11.88398 0,-6 -1.64776,3.58899 7.79585,7.35646 7,1 -6.69407,-4.42487 -2.20908,-7.03877 4,-5 2.51119,10.8555 -7.83567,-3.00071 1,-2 -0.0493,-0.42187 7.53108,8.62478 4.05454,0.0545 -2.51335,-5.16618 1.74849,-5.16289 -0.0273,-9.02727 -1.25204,-8.68688 -2.61689,8.18898 -7.02727,3.97273 -3.6416,1.44991 -11.69378,-0.0971 -5,4 0.88643,4.16506 -8.29036,1.40509 -9,-1.37565 4.44197,1.08299 6.64483,-1.81146 2.02727,-4.65162 -2.15685,-2.65639 -14.24478,3.8564 -7.02727,7.02727 3.03339,6.57077 6.95994,1.80719 10.30505,2.43502 6.2861,8.32816 3.99585,-8.20315 12.69495,-5.43502 1.59106,3.32334 11.38388,2.85252 10.97273,-0.97273 -4.40812,-6.14326 -9.6709,4.68307 -2.53771,-1.33232 3.65543,-2.75826 7.71915,-0.12962 7.56498,4.30505 -4.82726,1.90521 -13.40264,1.87936 -1.49742,3 2.42589,-3.63157 10.65075,-7.87688 6.49742,1 -5.77952,-2.12925 0.52922,-13.85397 0,-14 -2.56745,-7.49628 -5.36834,-2.19025 -8,2 -1.80135,2.62838 8.76148,-0.27635 0,-4 -4.55015,-2.49256 -5.28502,2.16792 -6,6 0.0697,-9.5823 -9.77674,-6.16341 -14,-3.62435 0.84114,6.37995 9.78608,0.82509 0.85539,2.38742 -5.89391,-0.36341 -4.81089,1.11626 -12.46549,-3.6331 -8.29293,-6.20879 -3.77175,10.60989 -11.36263,2.8973 -3.1552,0.13299 -5.36943,-10.89163 -1.27598,-10.02727 7.8463,-0.29608 -4.98687,-4.04468 -6.72402,-5.97273 -7.9433,-2.11041 -0.87194,-6.7443 2.97273,-4.02727 2.07188,4.54178 11.15466,3.73195 8.97273,7.97273 7.30224,3.16155 4.23389,3.51515 -1.97273,8.02727 0.21959,7.62059 -8.41353,6.82099 -3,14 0.61649,4.36845 0.59567,9.58384 5,11 4.72327,8.79536 -7.54348,-2.01051 -3,6 -6.67215,6.34839 -13.03113,-12.0662 -13,-2 -0.60289,10.44353 -8.95586,0.26786 -6.94546,-5.94546 -6.42282,1.56999 -4.41805,-9.61884 -12.28495,-6.43933 -1.46595,-0.42842 -6.70607,-8.31302 -8.74232,-0.64248 -2.33245,8.28174 4.06244,-0.95279 4.97273,2.02727 1.87342,5.7584 -2.1246,2.82791 -5.97273,3.97273 -4.6282,6.35512 2.27015,1.51403 5.97273,2.02727 -1.2458,8.18185 -0.13814,-2.21788 5,2 8.44363,-8.06099 -4.03558,-4.9096 -3.02727,-7.97273 2.21106,-5.07149 3.13321,-14.84026 -1.97273,-8.02727 -2.39194,-3.81024 8.03185,-4.94661 5.37565,-9 1.26245,-6.71208 -6.1305,-0.72325 -6.37565,3 -1.52667,1.03533 6.6469,-0.25358 12,2 -4.20435,-3.23588 -4.92359,-10.82335 2,-8 -1.19124,5.61082 7.7276,9.46016 2.62435,12 -0.53928,9.81599 4.89179,-0.73894 6.37565,-4.37565 6.16308,-7.60583 -4.74133,-0.45589 -6.33364,-5.95892 1.72399,-6.34664 -8.85226,-13.44837 0.70929,-13.66543 6.51532,-3.64818 -4.45267,-7.92883 -4.37565,-2 -5.09587,-1.12317 -11.54421,-3.33084 -9,2 3.65217,-3.41211 6.79884,1.75818 2,4 -5.23933,-0.84462 -7.05698,5.29483 -6,-3 -3.84281,-0.98534 -1.85853,9.81861 -1.43502,6.30505 0.43379,3.35523 3.49344,5.44396 6.40775,2.72222 -2.01356,-6.92879 5.15012,-1.61266 8,-1.05454 -0.90423,-3.35915 -9.90312,-11.73334 -7.40775,-4.66768 -0.94674,6.29847 5.3029,13.77857 11.12626,7.84933 3.97409,-2.26583 15.4195,0.0865 8.30876,0.84562 7.4405,-5.02981 -0.62916,-8.9952 -3.61521,-8.76959 -5.25673,6.66203 -5.78401,-5.73008 1.23042,-4 -3.38888,10.19006 11.21249,9.7064 7.81981,19.07464 4.81222,12.50729 -5.26031,4.38686 -4.43502,11.69495 3.50974,1.09208 13.35601,10.29725 4,8 -0.99122,4.47724 6.2942,-12.97804 10,-8 6.09685,-0.5221 -6.27462,7.84745 4.37565,5 3.64439,-6.5906 -0.71278,4.14748 2.62435,3 1.6577,1.1566 -2.99568,7.79695 -3,12 -0.29834,2.94468 -2.26241,5.70029 -4.23041,11.61521 0.82804,5.71329 -3.5244,11.34798 -10.37969,13.25482 -1.92233,9.33506 -10.03117,6.22195 -10.3899,-2.87003 -2.81623,-5.22496 0.77827,-11.15697 -3.84809,-7.36723 -2.61298,-8.18392 8.13439,-11.20535 12.84809,-7.63277 3.70003,4.67999 0.38336,9.53496 2,14 7.56856,-6.63485 -12.77707,-4.12969 -4,-11.75129 5.42733,-7.28881 1.46865,-9.52373 11.14461,-11.01178 2.28134,-5.27565 6.68893,3.05219 10.85539,5.76307 2.92935,9.61205 -3.91961,9.81162 -4.37565,4 -6.96921,0.0243 -12.34586,-2.94734 -20.23725,-7.30645 -6.74583,-3.11548 -14.89187,-10.97181 -21.3871,-7.69355 -1.96253,5.99951 -2.19819,5.22426 -6,9 0.99396,4.14264 7.84606,5.49005 5.62435,9 -4.08709,8.20583 -4.22621,-7.60851 -7.62435,-1 -4.92202,-5.63149 0.10098,-5.1111 -4,-9 -4.70551,-5.05865 -5.82759,4.34875 -1.02727,4.97273 -1.92593,1.8223 -9.36124,-0.7286 -1.97273,4.02727 0.0713,1.55264 -4.2988,9.34851 0,13 -5.01311,4.11767 -2.97687,-6.01044 2,1 3.27693,-0.82326 12.8961,-5.50014 3,-6 -3.17874,4.10762 -5.66462,-4.77694 -2.02727,-7.97273 1.16017,-6.32217 -3.28555,2.10432 3.02727,1.97273 4.34451,-3.57358 4.89571,3.04738 7.02727,5.97273 -5.34994,-1.18894 0.89243,5.65175 -4.02727,8.02727 -5.6608,-1.3499 -5.44756,0.46025 -5,7 5.93252,-3.96389 3.29123,6.10442 -1,2 6.4469,7.84601 -9.32716,-0.37911 -2.02727,-0.0273 3.51602,-10.61125 -4.04799,1.49935 -5.97273,-0.97273 -7.55733,-3.43328 -8.41894,7.578 -11,8 -1.57836,-6.7709 2.61333,-8.27445 -1,-13.37565 4.9436,0.41703 10.7567,1.84208 12,-4.62435 -1.86629,-5.42144 1.91691,-11.79043 -2.37565,-14 -1.07281,-7.4651 -2.9609,-0.45568 -5.62435,0 -2.32342,0.29345 -14.39256,5.0552 -5,5 7.94823,-0.38224 6.41456,16.04568 1.02727,8.02727 -4.60045,-5.01 -3.26847,-6.27576 3.07325,-2.85266 7.53743,-1.91214 3.05331,-13.98728 6.76951,-6.56451 2.13541,8.03746 -5.25023,1.77301 -7.51546,-1.36594 -6.32392,-5.86863 -13.24966,4.49711 -11.35457,-5.24416 4.34437,-6.67923 -12.22143,4.81377 -0.0545,-0.94546 3.73078,-5.06945 8.92343,-1.65763 12.05454,-6.05454 3.47753,-4.534 4.04397,6.80522 8,3 8.60247,1.78915 -1.17186,-9.55884 4,-5 1.34504,-2.84618 2.17318,-8.68154 6.97273,-8.02727 -7.51143,7.57261 4.3225,0.0858 4.64248,0.25768 2.45574,4.82081 11.69795,8.31206 8.21018,5.87011 2.55386,4.33072 -5.17271,13.00519 -6.82539,4.89948 -3.79624,6.56042 -9.49701,-6.11949 -3,-3 -2.40675,9.38903 5.09402,7.03016 -2.05228,14.57842 -5.29951,4.2268 2.74868,3.2651 2.05228,10.17287 1.25886,10.93361 0.22932,4.23629 6,2.87306 -2.2676,-2.68289 5.93073,-16.133 -5.96347,-6.19305 -4.02079,3.07577 -8.1884,6.67924 -9.03653,9.5687 -4.52768,4.52436 -3.95963,-7.17988 0.26979,-4.34893 0.19606,-5.80801 -6.07193,-8.81478 -1.26979,-12.65107 -5.03969,-1.87434 -4.6451,-9.64019 -2,-8 -0.99463,-8.4153 -6.99301,-0.77923 -11,-1 -4.37518,3.59878 -9.81794,-8.97541 0,-10 3.02504,-3.57334 10.91607,-5.41064 4,-8 -1.95537,3.03989 -4.47396,4.17892 -9.75129,2 -1.58159,2.15869 -11.96084,7.92194 -2.24871,5 2.51212,1.3596 9.88384,-4.10381 8,4 0.20392,2.60407 14.43826,1.95094 9.12997,-0.6101 0.0941,-3.18487 10.79584,-3.95092 1.87003,-6.3899 -7.561,1.63481 2.9157,2.86031 0,-4 -1.49665,-3.69507 -1.98749,-6.63109 0,-12 2.84846,-1.60661 0.60442,-8.55728 5.97273,-8.02727 8.1261,4.82622 -4.15972,2.55765 1,8 -6.02895,0.79243 -3.54693,1.43128 -0.97273,6.02727 6.39575,2.65745 2.85246,5.54422 -1,10 -2.89221,-8.87776 -9.15078,0.80643 -8.38479,-6.23041 -2.242,-6.33857 8.58493,1.66545 5.41206,-3.79686 -2.98883,-3.68004 6.93895,-12.79367 0,-11.94546 0.5195,-3.86121 -2.71537,-8.60617 -1.02727,-12.02727 2.88402,-3.64832 -2.28427,-12.6444 -5,-8 -6.22457,-3.38156 0.57526,8.80264 -6,5 -1.55376,0.6611 -4.28566,-9.31454 3,-7 6.30499,-2.26739 10.19132,-0.76487 11,4 -0.0401,1.22279 0.68823,5.08743 0,10 6.28903,5.92084 -4.20386,0.67719 -5.61521,6.23041 -3.77718,1.65817 -10.00232,9.19496 -1.38479,5.76959 1.85134,-8.36844 4.64935,3.76709 -2,3 -3.72323,7.28285 -6.14778,0.47386 -2.97273,-0.97273 6.86018,2.50045 2.10332,6.34242 0,8.94546 5.75845,3.67047 2.79584,13.61728 2.97273,14.02727 6.86345,-3.23606 16.31697,6.96059 11,-2 6.48876,2.05107 13.13783,4.47263 5,0 3.95548,-0.37358 -9.41983,-13.81195 -2,-15 2.12274,-3.17598 -7.0257,-2.22172 3,-4 -2.39306,-4.80831 -3.00221,-3.27722 3,-5 -2.1175,8.20202 2.40104,-3.91892 -3,-6 -2.68244,-1.62737 -0.0936,10.12876 -5,-1 1.73569,-6.87458 6.93299,-5.15469 6,-2 -0.81142,-1.76296 3.21705,7.88289 3.20103,0.34923 5.87755,-5.06885 1.94597,-9.99302 0.79897,-15.34923 -3.72915,1.44822 -7.98826,9.46376 -7.02727,1.02727 -1.45357,-4.73026 3.32649,-2.00765 8.02727,-2.02727 4.82519,1.57331 -6.47227,4.86955 -6,11 -2.94927,3.36591 -6.10463,-11.51709 -3.76307,-2.85539 -1.98557,10.13024 -3.63818,1.72722 -9.23693,4.85539 -8.63182,-0.0886 0.42093,8.33109 -3,-3 -0.0358,-3.89313 2.9932,-8.73659 3,0 8.95755,-1.25304 -8.38555,-3.99147 -7,3 -4.70759,-7.81583 6.34577,-1.68582 1,4 0.18849,-1.79283 -6.07163,4.80204 -3.97273,-3.97273 -7.13308,-1.4337 6.26718,3.18095 6,6.94546 -7.77342,-3.58195 -3.45009,13.32347 -6.76734,1.80706 7.49965,1.99846 5.22212,-12.57695 -0.87003,-12.90976 0.68549,-10.80847 6.27872,-4.47574 9.84051,-5.48524 5.42346,-5.5607 7.33103,-3.44328 11.76959,-2.38479 7.40967,1.56558 -0.5188,3.75548 12.67658,0.33086 13.61967,-5.02832 6.38712,2.03397 7.49504,10.41507 1.60048,8.52771 0.51726,14.26707 -3.17162,17.25407 0.52252,3.89453 6.5737,7.72272 11.76307,7.85539 0.39477,-5.37911 -11.63649,-9.58563 -17.76307,-6.85539 -8.40575,8.3e-4 -13.84599,6.8855 -14.30523,14.49411 -1.31023,6.82972 2.70606,19.28897 -7.48802,13.88021 -6.96831,-2.98696 -15.42008,-7.2979 -20.49596,-6.90046 0.27505,5.1369 4.74518,15.88641 6.62853,23.17507 -0.16489,10.19054 16.33091,1.03269 11.35563,11.78609 -10.02576,3.56638 6.88613,5.16374 4.33232,8.53771 -3.17119,-1.51295 -5.95682,7.22447 0.34838,6.02727 4.5498,-3.22649 -2.24792,11.97216 5.59708,5.02727 9.10789,0.79634 -2.94126,-1.07075 1.02727,-5.02727 -4.50096,-1.30431 -8.75321,-5.76805 -3.38479,-5.76959 3.45043,0.16003 4.1187,6.87845 8.38479,0.76959 4.90298,9.92217 -7.40003,2.56958 2,7 4.59939,-0.54065 -0.97545,-12.70388 3,-17 -3.42761,6.83906 -15.57341,13.21509 -11.34923,21.20103 -1.05831,7.21159 7.08626,6.89612 6.34923,0.79897 -2.7981,-6.42272 10.617,4.35417 -0.23041,5.61521 1.1218,6.38066 -4.73792,4.91213 -5.79686,6.35752 1.79331,8.4532 8.16388,-1.3106 9.02727,2.02727 3.50474,7.7385 -4.78432,9.20581 -6,6 -5.3142,0.37699 -2.0975,5.59042 -3,10 -5.04929,-1.00149 -6.10261,0.43601 -10,-4 2.29587,-3.03004 3.85794,-0.67444 3.97273,-7.97273 4.78626,1.49106 -1.49912,11.75822 9,7 5.40068,1.8834 6.93251,-3.68963 7,5.94546 -4.93688,-0.46665 -1.00682,13.31769 1.02727,4.02727 -0.0798,7.82191 5.33225,13.60645 -1.97273,15.97273 -2.06784,-4.69277 0.49058,-3.29526 -1.02727,-8.97273 -8.01938,-1.06091 0.56456,-11.06055 -3.97273,-12.97273 -5.10254,5.70741 -4.83566,8.14147 -2.04907,10.52724 -1.76728,4.21548 -0.73683,13.76354 -6.9782,8.44549 1.94225,-5.25304 -7.10893,-5.39895 -8.61521,0.23041 -6.03031,3.41589 -2.30156,-8.32682 2.61521,-6.23041 0.0506,-4.07241 -7.02165,-6.19821 0,-11 0.68046,-1.82067 8.33511,2.88871 7.02727,5.97273 -6.45649,-1.14923 -7.54721,-3.50241 -3.64248,2.25768 9.01862,6.74744 -0.68823,-4.76252 -1.38479,7.76959 -2.26301,5.24803 11.3167,7.22088 2.62435,10 -4.84877,0.331 2.60885,-11.948 5.37565,-2 -1.33318,0.58503 -2.20979,9.17333 4,5 -7.09029,-9.31864 1.93739,-3.72781 2,-7 -3.06244,-6.90462 -0.67248,-8.6184 2.97273,-0.0273 4.25478,2.19432 11.75159,4.52732 6.02727,9.02727 -9.92898,-0.60915 6.98212,-8.03231 2.46729,1.83176 -0.0153,9.24851 -4.06252,3.67086 -8.44002,11.14097 4.46973,6.14914 -9.67361,6.61598 -4.02727,1.02727 0.16594,-4.97568 4.77349,-2.17791 2,-8 2.77801,-4.85036 -13.71804,-0.59246 -5.76959,3.61521 4.16583,8.55561 -13.26617,5.50335 -3.23041,3.38479 4.78414,-3.65257 -10.37128,1.47989 -5,6 2.1095,4.86697 7.24631,8.25697 4,1 0.70367,-4.95443 8.06283,3.29001 4.02727,7.97273 -8.53791,-1.81526 6.911,5.20638 2.97273,9.40292 3.4318,-2.06742 8.74006,-3.10203 10,-9.37565 -2.02782,-3.71604 10.13325,1.14187 3.02727,-5.97273 4.77007,2.25605 10.12494,0.72902 2.97273,-3.02727 0.24046,-5.61782 0.79481,-11.57175 4,-1 2.49477,5.78527 0.35443,11.48886 5,16 0.0412,8.45936 -5.23746,6.2276 -4,-1.75129 -4.50608,-2.7223 -6.09591,5.20286 -11,0.75129 3.82685,4.95713 6.49406,12.27276 9,6 -3.49655,-6.15899 -4.08129,-13.74369 3.6101,-10.87003 5.71066,-1.23243 3.04223,-10.74392 9.3899,-3.12997 3.18797,-2.79861 5.32495,-9.84696 5,0 1.58333,9.43953 9.50521,-1.98836 1.34923,-6.20103 -0.0595,-7.91371 -11.87134,-9.42593 -6.40377,-0.85351 5.0821,1.99053 14.86958,-7.96286 4.05454,-7.94546 -2.84895,-3.72356 -9.45555,-14.21177 -10,-4.87306 6.92841,8.69301 -10.9344,8.17635 -9.61521,-0.35735 -2.73226,2.53376 -4.77228,12.1406 -9.38479,9.23041 -2.06005,2.9846 -7.74563,7.24325 -3,11 5.77681,6.26136 -9.56741,8.18041 -1.02727,0.0273 5.89948,-2.94452 5.41541,-6.33959 8.15056,2.51155 -0.21672,4.51992 0.56969,15.94518 -5.12329,15.46118 -3.95922,-5.03259 9.63637,1.5327 14.23041,0.38479 4.14059,0.20726 5.30672,5.97789 9.76959,6.61521 7.77289,-4.34039 3.73453,2.63706 0,7 -3.30275,-7.95173 -11.02976,-0.80301 -3,3 5.89754,10.52083 -5.51774,3.8887 -0.43502,-3.30505 0.72964,-7.65077 -7.10825,-3.44342 -6.94063,-9.69495 4.98173,6.24803 7.67026,-7.84899 9.37565,-6.37565 0.55352,-6.42385 3.15512,-9.91573 6.23041,-2.00914 -0.56882,4.55284 -2.23376,9.516 5.76959,7.38479 2.2787,-6.04443 2.52005,10.47395 -2.76307,6.14461 -3.15015,5.31778 1.88476,10.23953 2.13872,13.85539 3.32006,2.84687 4.88551,12.128 8.62435,5 6.35275,-1.52838 0.216,-12.78081 2.37565,-15 8.07276,-2.2554 -4.46611,-12.4927 -4.32111,-2.05454 0.11552,0.5197 -5.4895,4.63209 -2.05454,9.05454 8.79377,1.72598 -0.76847,9.51487 -2.84562,-1.69124 -1.76684,-9.1653 -12.8893,-3.55195 -10.15438,4.69124 -5.61451,6.16509 13.05187,5.50659 4,10 -0.13673,8.01621 6.337,1.26761 10.14461,0.23693 5.31614,0.96891 12.42373,2.15195 13.85539,6.76307 -5.59285,6.7467 6.36333,10.03171 -0.38479,12.23041 4.43439,1.9887 10.93634,4.60924 13.38479,-1.23041 1.77881,-11.87603 7.20031,5.53275 3.02727,8.97273 6.66434,0.63002 -1.02423,8.19413 -4,5.05454 2.61844,-10.64993 -0.90708,-7.98712 -7.02727,-2.02727 2.0362,6.15464 6.4796,6.52465 7.97273,12.97273 9.15018,3.53914 -2.5563,4.31961 -5.58283,-0.84276 0.92166,-4.42507 -9.38416,-1.12025 -5.3899,-9.12997 -3.13043,1.09235 -8.74194,-10.93694 -6.05454,-11.94546 1.82982,-4.62967 7.83935,8.85541 0.0545,9.94546 -0.82,0.45264 4.44613,7.59874 2,10 0.2776,6.90292 1.62388,7.13359 1.97273,11.97273 6.64351,1.38423 11.12991,4.69855 4.65162,9.02727 -6.69061,-0.7335 -7.71674,-7.46601 0.37565,-4 -4.60428,7.54946 -7.02404,2.92373 -13,3 0.09,-2.74988 -10.29799,-11.3376 -4,-9 10.04405,1.99122 5.64675,3.22463 0,7 -2.54576,5.31807 7.81907,13.95806 7.02727,8.02727 6.58211,-2.35952 0.64343,11.49725 8.34838,3.97273 3.5402,-0.30376 2.64302,8.79676 -2.34838,7.97273 -2.68427,-0.51365 -11.37201,4.47976 -7.79686,-1.35752 3.9961,-1.63304 -10.0793,-14.935 3.27217,-12.61521 4.74164,0.22773 12.35177,3.96871 12.12177,0 -6.52558,3.0525 5.36897,10.5676 5.34838,15.97273 -2.16713,2.52963 -10.29037,-7.17934 -9,3 5.44571,-0.12419 3.20035,12.49121 7.02727,4.02727 5.94729,-2.03645 3.62589,10.68662 0.38479,12.23041 3.16481,2.3761 4.6142,15.93295 10.61521,7.76959 9.06659,-3.44998 -2.50032,-4.28602 0.43502,-9.30505 -3.32771,-6.27861 -8.77964,-1.25132 -2.05937,-10.69495 11.67065,-1.15311 1.35048,10.47749 7.62435,16 5.03199,2.39555 11.6897,4.81569 12.38479,11.23041 0.86737,3.53929 -11.75552,5.82263 -5.41206,12.74232 8.16389,4.7037 3.74153,-11.69117 6.97273,-6.02727 5.83539,5.25326 -2.37391,9.04713 -4.17587,10.66975 -8.03933,-3.69056 -0.78177,5.69585 -1.76959,8.38479 -4.30439,-7.00373 -8.14975,3.26511 -3,6 4.82248,2.55423 9.9329,-7.31177 13,1 4.49498,4.02282 -1.03221,-14.5322 5.97273,-6.02727 4.06872,5.39206 -5.07646,2.75238 0.0273,11.02727 1.87173,5.64032 0.13179,6.09487 2,12 5.30084,-1.64427 12.2046,-5.54873 5,-8 -9.30563,-3.95381 8.75326,-4.48702 -3,-8 0.13392,-5.2341 -2.8564,-13.95991 -9.6101,-11.12997 -7.12538,4.00078 3.2311,4.04898 -7.3899,4.12997 3.11343,-1.7539 0.43138,-9.31248 -8,-6 -1.08908,-4.76596 -5.29944,-10.33113 0.38479,-9.23041 -5.29778,-4.25272 -7.62786,-4.27662 -11.38479,-9.76959 1.75108,-3.64962 13.32914,-6.11009 11.38479,1.23041 -4.63048,-4.03702 -7.75849,-0.20568 -6.28941,8.1973 2.64034,6.99699 -5.97763,5.56858 -6.48017,-0.65812 -0.31737,-6.19255 -11.84276,-4.3493 -9,-10 3.73809,-5.6012 2.5798,-9.88417 -1.23042,-9.53918 -5.15702,0.80048 -8.32621,-3.97419 -5.38479,-7.23041 5.47188,-8.62314 7.31282,-0.65675 1.73021,4.34893 -2.70421,8.63649 4.87898,10.94661 11.26979,10.65107 3.08426,7.10794 2.87045,12.91249 -5,7 1.06112,9.03636 -0.0938,10.11373 2,17.37565 0.77971,8.53579 12.74182,-4.0791 9,4.62435 5.65151,2.63904 5.86564,4.4209 10.94546,6.94546 -3.86654,7.33579 -7.79172,-3.82108 -11.17587,1.43933 -5.82806,1.1347 -3.27586,9.50562 -10.76959,7.61521 2.40718,-4.85353 0.81324,-5.41659 5,-10 7.97578,-8.23473 4.46776,5.4075 -3.94546,-1.94546 -0.33183,-4.95277 1.41088,-10.24511 7.17587,-12.43933 -1.6711,3.87825 8.99225,-5.10667 8.74232,4.35752 0.37691,-3.08648 -5.50824,7.46114 7.25768,5.41206 8.96672,1.84937 6.11887,8.655 0.53918,10.23042 0.87562,1.72102 5.64844,6.09568 9.20314,10.35752 3.50082,-3.36446 -5.41686,-6.00933 -1.94546,-10.94546 5.77557,-6.18264 6.35671,0.013 2.94546,3.94546 8.56181,-3.93721 0.17913,13.18774 10.17934,3.95123 1.52822,-5.53289 18.09991,-6.96293 7.84793,-7.92396 3.24308,-5.7061 -0.38776,-6.32633 -4,-8.75129 4.88835,-4.1477 -6.30601,-2.4508 -4,-10.24871 7.95766,-3.11742 8.82467,5.81259 -1.22021,2.25993 -4.72982,-2.84846 1.77478,-12.7447 -4.75252,-14.23266 -6.0177,-1.37761 5.99178,12.12839 -4.77856,9.97273 -0.38038,3.24023 -2.29238,-8.34956 -6.17451,-9.85936 12.41293,-9.78638 -8.20105,-5.21268 -6.0742,-12.51629 -3.72256,-5.73711 -18.32784,3.00802 -15,-8.62435 -4.69752,-2.86776 -21.95634,-2.26855 -15,-10 -6.56734,-5.70641 -0.13517,-7.846 -5,-10 -7.07964,5.12898 -0.62601,12.34216 6.86907,5.41335 7.44887,-2.41085 11.13392,-9.02828 14.13093,-11.41335 2.27505,9.46722 0.65292,8.17455 3,-1 4.12005,-4.12972 2.47341,-8.56249 6.61521,-10.76959 4.05743,6.017 9.66581,6.97472 6.38479,-1.23041 -4.80109,-1.82002 -5.6257,-3.25106 -9,-9 -6.18696,1.45443 0.55808,9.99891 -2.37565,4 -3.90859,1.58261 -10.2064,-7.01279 -4.2487,-8 -2.67999,-4.69677 13.02908,0.32876 6.2487,-4 -7.18172,0.41302 -5.24103,-9.29533 -0.65162,-4.02727 4.49341,2.04351 1.99933,-9.61388 7.02727,-6.97273 6.39322,6.15067 6.14415,-2.42081 13.6101,-1.12997 5.03916,-3.32911 6.24276,-11.66974 12.3899,-2.87003 2.89101,7.70902 12.1621,5.99551 15.91818,-0.91818 9.70522,-8.75174 9.36311,-8.24337 0.0939,0.43302 -4.00661,2.82145 -12.80542,14.57124 -14.01212,10.48516 -1.28595,5.71124 -8.85456,4.52658 -4.62435,8 -2.25404,3.98093 -7.94927,1.71627 -4.37565,9.37565 -5.67651,4.1734 -0.70138,-0.12452 -2,9 -1.17044,3.73117 -1.48171,13.03366 0.62435,13.62435 -6.07439,6.96147 5.92248,2.41581 1.37565,-8.37565 -1.36131,-7.95234 8.99452,-10.17126 12,-4.2487 3.32708,-0.96048 5.46744,-6.76638 8.97273,-10.34838 3.16582,-10.5584 3.30791,11.25554 -2.97273,9.97273 -1.07599,-2.16251 -7.58072,7.74447 -2,9 3.27581,2.79984 4.25955,10.95895 9.37565,6 2.67897,5.30678 8.31042,2.93146 12.62435,5 7.32495,-2.61807 -4.11779,-1.39092 -2.97273,-5.97273 8.44325,4.34907 4.91804,-7.87937 10.27428,-2.55111 0.73695,1.58878 -2.49625,7.39174 2.67118,11.49657 2.30701,-2.54527 -2.85485,-4.86496 2,-9.94546 7.44583,-3.75744 -3.48198,9.16966 4.02727,6.97273 3.87318,-3.34112 7.21574,-4.18304 8,3 4.60152,3.48367 6.23411,5.14404 4,-2 -0.10533,-6.36134 7.218,-4.88292 2,1 4.64497,3.40468 6.7422,-0.38563 10,1 4.41007,-6.06104 4.68313,2.1839 1,4.37565 4.64116,4.71118 -4.67082,12.0229 0.97273,12.65162 7.05607,1.54663 2.44847,8.3688 4.02727,9.97273 -4.91411,5.87322 5.78885,5.38411 4.76959,9.61521 -4.69421,6.17907 9.09332,2.21086 8.20314,3.41206 0.97101,-7.67759 -10.29227,3.98764 -10.97273,-0.0273 -5.80883,0.0812 -3.66923,-9.30977 -9.97273,-6.02727 -4.00634,-2.44674 -8.63162,-3.69638 -13.02727,-4.97273 -6.74329,-1.12626 -7.63869,6.46974 0.37565,6 13.05642,-1.84086 -0.55758,6.58363 8.95892,8.33364 6.35053,5.96595 9.9718,2.7534 4.66543,-2.33364 -8.53703,-2.52039 4.65841,-9.62129 1,-2 10.62239,-0.10169 1.09716,-12.82004 -4.37565,-14 -8.7506,6.60069 -2.19215,-3.3531 -9.62435,-5 3.31389,-6.3645 -13.60023,-5.32397 -8.02727,-0.0273 -3.11383,4.32089 8.90981,7.77419 7.02727,3.02727 -3.04118,-8.14036 -3.97601,0.78382 -8.71872,5.1484 -4.96124,9.76595 -6.65705,-0.0186 -8.75744,-6.44995 -1.67589,-2.78249 9.55121,-5.6433 -0.52384,-8.69845 -0.57566,1.27035 -7.0258,-2.34381 -9.38479,0.23041 6.77853,2.9817 -2.61261,-14.13892 -1.64248,-6.25768 4.25818,-2.0311 8.95564,-2.31511 8.02727,-8.97273 7.03009,-3.76226 -6.54069,-0.18141 -5,2 -5.22684,6.6319 -4.06085,-4.8627 -12.37565,-2 -0.33871,2.55086 10.3587,10.87503 0.22725,4.28128 -5.90433,-7.4444 -6.23076,-3.96993 -10.8516,-10.28128 6.99142,-2.27821 9.28061,-7.93953 16.23041,-5.61521 5.87042,3.30294 -9.77552,12.19365 -4.23041,2.61521 6.36703,-8.92779 -11.96248,-5.98417 -11.12329,-2.46118 -4.83492,8.61601 -11.16935,-9.33044 -6.70914,-13.59649 1.66096,-7.40925 -9.79521,-7.34748 -12.16757,-14.94233 -4.66961,3.39548 -10.88958,-5.52725 -7.02727,-6.97273 2.73172,-12.0951 8.12951,6.03882 14.56609,-1.15056 1.62971,-10.93504 -8.30331,-2.49009 -11.53882,4.12329 -5.33179,6.69652 -11.6458,2.06886 -12.97273,7.97273 -2.31384,-3.64995 3.2797,-12.59278 -2.02727,-10.97273 -1.45624,-9.86101 -12.69092,-3.47733 -10.76307,-2.14461 -2.49549,-7.70299 -10.14967,-2.90181 -9.23693,-8.85539 -7.62843,-7.27242 -5.08503,-8.38405 -2,-16.37565 11.2521,-0.36129 -5.51172,-6.94092 0,-8.62435 -5.16185,-7.3712 -2.86553,9.71753 -4,8 4.64552,-7.00109 4.86402,12.11529 11.48357,-1.16902 0.63162,-12.46813 1.41621,-3.11444 9.20376,3.79382 5.40291,1.14284 5.14305,13.99112 -1.68733,13.3752 2.51538,-4.99685 -3.90666,-10.80582 5.87823,-9 11.58209,1.22529 -3.86528,9.40142 5.12177,11 7.13131,1.38571 2.11875,-13.91061 2.67846,-5.92921 3.45986,8.46107 -5.07104,12.55313 -0.70573,19.90194 0.97578,-6.23007 5.01494,-4.59408 3.97683,6.37161 -6.34272,8.55281 2.04377,4.25401 5.42609,6.65566 0.40863,4.71013 8.20783,15.75164 -3.20076,13.85314 -9.0072,3.37975 -14.5422,-10.69012 -23.17489,-5.85314 -3.74691,-4.76689 -5.65248,-9.67387 -4,-16 -5.70876,2.31904 -7.38696,-7.40866 -13,-8 6.52961,6.59068 5.50872,12.07938 -3.33829,6.66543 -0.77623,-7.1283 -10.75804,-0.36436 -6.66171,-7.66543 -7.87023,-10.3946 9.32323,-3.43125 0.27636,-0.61091 -9.89357,-4.12683 -6.44568,11.03537 -4.27636,3.85962 0.58322,-7.76206 -6.91229,-10.72953 1,-13.24871 4.9266,-7.02834 -6.96098,-0.22644 -5.23693,-4.14461 -3.3852,-7.32543 -3.22472,0.367 -0.76307,-8.85539 5.95213,-4.85206 -9.61094,-12.11917 1.30505,-10.56498 2.50956,-6.93914 5.75085,3.62391 10.69495,1.56498 -1.78424,-6.08979 7.48203,5.26352 -2,3 2.79778,7.29199 5.30695,0.12583 -2.84562,9.69124 -4.76252,-1.16902 -11.91102,-2.81301 -11.15438,-10.44253 -2.47166,-5.4946 -9.68965,-12.76215 -3.58744,-19.22068 0.4973,-3.38451 2.82198,-12.45641 9.34952,-18.33996 -0.18125,-11.56506 6.39456,-5.50118 8.23885,-10.69179 3.53388,-4.58213 -17.52904,-4.50701 -5.00093,-10.99628 -5.16877,-0.2165 -18.72032,4.79375 -13.62435,0 -2.2109,-6.42686 -7.46618,5.60939 4.23956,5.23041 1.12453,6.88377 -1.55508,1.20198 7.15607,9.77657 4.75079,5.83978 13.6454,11.1441 11.22872,17.99302 -2.38681,7.07886 4.69686,13.08123 4,0 -4.33624,1.9913 -6.62721,14.60283 -10.21219,20.4951 -8.48195,6.99002 7.52744,16.11578 1.75136,20.73531 -3.24901,7.68037 11.9344,7.13549 17.67703,8.85839 7.67784,5.50913 5.00599,3.06748 12.7838,-2.0888 6.26686,-5.57071 4.55562,4.37516 2.85451,11.58812 0.20205,7.43761 -9.80353,8.49171 -6.46972,14.64229 10.12475,2.89453 -3.90882,2.3401 -2.38479,8.76959 -0.71097,8.06567 -2.51253,-0.85649 3.11933,1.9432 -4.03413,-4.12349 -14.79508,-15.71864 -3.99429,-16.0682 9.62499,-0.29167 19.24997,-0.58333 28.87496,-0.875 -5.36539,11.68747 -13.65604,22.53159 -17.20078,34.74396 -0.93307,12.75201 -1.86615,25.50403 -2.79922,38.25604 -8.40574,1.41363 -9.38511,4.5945 -5.3899,13.83031 4.24181,5.08576 0.47104,16.84241 8.3899,15.16969 4.35475,4.59663 2.90335,11.09192 9.97273,7.97273 3.12181,-5.97444 -7.18278,-2.22486 -8.97273,-3.34838 -2.28066,-6.74342 -5.21927,11.3897 -9,0.37565 -1.8115,6.93899 -9.71131,1.78741 -5.82826,0.31087 6.18805,-5.29971 11.18118,-4.31645 15.28909,-7.08046 3.77334,8.87185 10.00991,-11.37461 10.21763,-1.15962 -1.00178,14.47598 9.51118,0.65403 15.7428,-2.64638 4.55307,-2.76197 16.86521,-12.7891 17.57874,-5.04876 4.90607,7.644 8.15582,-3.5088 -0.37565,-6.37565 -7.49315,1.64063 8.88449,-9.24283 -2.37564,-11 -4.84446,-5.65308 -15.35446,11.54279 -10.6335,-2.23041 0.18179,-12.64942 8.31559,-3.78719 16.62271,-1.42046 8.41554,0.47 12.31642,11.3027 16.76208,12.02652 -0.57965,7.19228 -8.8709,13.89212 -14.37565,17.62435 -6.73512,1.33105 -11.90747,-3.95583 -1.74612,-3 0.76127,7.6128 -1.57358,9.41576 3.41098,13.52614 6.68286,-7.45087 -10.42338,-8.57744 -12.28921,-3.52614 -4.38269,6.68201 12.54135,-4.1262 17.15882,-4.66353 12.60551,-5.132 25.34794,-9.93343 37.84118,-15.33647 -12.51642,-2.20053 0.6983,-14.92399 -9.50258,-12 -12.55815,3.94639 1.42649,-12.47048 6.18835,-11.40316 13.28609,6.22923 4.36063,0.40448 11.31423,-4.59684 -10.31341,-4.13339 -9.21708,-8.10378 -4.87003,-11.6101 5.0115,-4.22453 -11.09113,-4.17988 -2.15724,-7.41717 9.28292,5.3538 -1.16836,-14.06135 1.02727,-4.97273 0.32963,4.38263 4.18748,-12.06115 7,-4 3.07514,4.79841 1.63987,-3.02054 0,-7.37565 -1.76093,-8.75509 -7.62523,6.52429 2,1.37565 3.12977,-4.21354 5.80971,7.18016 2.43502,7.30505 5.96863,4.32233 0.85456,6.90268 -1.43502,9.69495 8.12225,3.06341 7.59549,-8.62459 10.97273,-6.02727 3.40594,-8.25164 -9.09911,2.63636 -5.97273,-5.72402 2.94953,-3.43029 9.89442,0.47455 12.97273,3.72402 -3.25765,3.13401 3.13129,9.85381 -2.97273,5.02727 3.89863,-8.89724 -9.35306,0.86422 -2,1 2.13703,9.48301 14.49013,-2.80973 7.02727,-3.02727 -3.9875,-1.94379 7.02623,-4.22363 2.97273,-8.97273 5.92526,-4.05474 3.83112,-7.53044 -1.97273,-6.02727 -6.65127,1.79796 -8.74752,2.53554 -4.65162,7.02727 5.13174,-6.27694 2.26288,5.2434 8.62435,-2 2.87385,4.8068 2.0072,7.24006 7.97273,5.97273 -6.55084,6.1619 -0.85763,1.16753 3.02727,5.02727 -0.31497,10.37359 -4.30447,-2.02957 -5,2 -6.41316,-2.77464 -3.87664,9.55398 -7,-1 -2.9932,-7.09714 5.73159,-2.10952 5.38879,-2.36502 6.09988,1.62664 8.7371,-14.01427 10.61121,-4.63498 -1.38303,5.15789 6.74569,2.43578 6.37565,5 3.12261,2.61728 6.72269,-1.96156 2.62435,6 -7.00375,0.1835 -4.17464,-2.43153 -12,0 4.81789,-7.62188 -0.54287,-5.22633 4.61521,-11.23041 -3.11378,-5.26246 7.7775,-7.09076 7.41206,-1.79686 -3.3831,6.67404 0.39077,3.53091 5.97273,5.02727 3.05305,-1.08642 10.65234,5.96956 8,-3 -8.64048,6.30729 -4.71568,-9.72736 -9.94546,-3.05454 0.97987,4.44447 -9.44975,0.43956 -15.05454,2.05454 -6.1478,-4.88904 -5.55189,-6.89339 -9.97273,-11.97273 -5.6214,-7.33191 -11.06201,1.45945 -15.04907,3.52724 0.96348,7.44455 -8.73194,4.13753 -7.9782,-0.55451 1.04517,-4.39765 -13.30456,2.20467 -17,1 -3.59981,1.98689 12.59951,14.4292 3.24298,10.29226 -7.81298,-7.93431 -9.91687,1.80813 -10.11301,-1.90236 -4.58648,-4.57871 6.4538,-11.44642 2.49438,-5.3899 -6.60624,-1.66723 -6.60981,-3.64262 -9.62435,3 -4.01449,-0.54338 2.66921,9.67282 4,8 -1.28892,5.78877 -9.02089,-4.68936 -7,6 3.73076,-4.73408 2.83273,0.0123 8.37565,2 -0.97482,0.44591 12.20186,-0.51681 5.70617,3.91818 -4.97189,6.96484 -9.77107,-8.4049 -15.08182,-2.91818 -7.80062,4.81704 0.89566,-1.77503 -3.23041,-6.61521 -6.52032,5.67576 -0.0853,-13.67329 2.23041,-1.38479 8.54093,-1.6812 12.71685,-9.42751 5.76959,-15.61521 -7.55658,1.21672 -10.27348,3.695 -19.76959,1.61521 -6.26493,-7.48435 -2.44832,12.05713 -4.37215,16.21009 -2.65292,7.73913 1.54356,14.84987 7.37215,18.78991 -2.09653,-2.9621 1.94151,8.56466 9.99224,-0.6118 2.00397,-6.28092 7.99644,-10.17635 13.39255,-11.61861 -5.81267,-7.79012 2.37167,-8.28363 0.30197,-19.13134 -1.40141,-12.20068 10.748,4.06576 15.91195,5.65736 5.80415,5.19057 17.53413,8.10669 11.67186,17.77505 0.51812,7.88377 -2.87751,16.34823 -1.27057,17.92934 7.74786,8.80306 4.6374,-9.31807 11.41553,-1.64079 5.39411,2.63465 6.22872,10.23278 7.58447,12.64079 0.67827,2.46163 -8.41539,6.60727 -8,0 4.1036,-3.27738 -2.58458,-9.11982 1.23041,-5.53917 6.83387,5.56943 -4.46356,10.56974 -6.20314,7.56644 -6.95453,-4.62289 -8.14448,7.63906 -2.02727,2.97273 6.68567,1.98414 12.02824,4.51718 14.97273,-0.97273 3.68121,6.58639 10.30163,-3.91552 10,5.94546 6.06211,5.72719 3.61709,-5.20982 5.05454,-7.94546 -2.79726,2.78092 -0.94038,-11.13893 -5.02727,-3.02727 -3.63016,4.28147 -4.78781,-2.31979 -5.97273,-3.02727 -7.41714,4.77074 3.40059,-9.99945 -5.73503,-11.15234 -6.24394,-12.07071 8.77173,-0.85273 14.02985,0.88908 -1.07965,5.42846 0.67598,12.46589 5.65064,10.3178 -2.15537,5.57851 -0.19568,3.80044 5.02727,5.97273 4.33727,-2.52511 6.38927,0.12287 10.97273,3.97273 -3.30283,4.57021 -3.52445,1.87518 -9.97273,3.02727 0.98079,-0.80549 -6.59808,-0.41945 -8.37565,-5 -6.49393,2.64083 -3.90075,-9.33615 -7.62435,-12 7.90142,-3.47358 12.86664,8.08363 18.37565,4 0.92642,2.35723 -10.26027,5.93648 -0.37565,10 0.98573,-2.90512 2.87082,-7.99204 8.97273,-7.97273 -0.24824,-5.41713 4.70953,-5.87091 9.25768,-7.64248 1.79049,-3.19819 13.31262,-8.35986 12.79686,-1.41206 -2.52846,8.09967 -6.63653,-0.57085 -6.02727,8.02727 -6.07965,-0.1496 -4.93483,2.66799 -1,7 8.83726,5.88869 -1.1858,-7.78792 7,-4 7.46842,3.01063 -0.33319,-8.98599 8.23041,-5.61521 -1.44683,-4.1681 -4.34877,-13.00393 0.76959,-4.38479 6.66018,9.88613 2.97942,-0.60603 9.30505,-1.43502 7.69088,-4.2887 -4.48397,-8.7555 -1.68984,-12.79539 5.5428,-1.39575 3.23774,-8.38826 0.94977,-6.07464 -6.82552,-3.07627 -1.04392,-8.21368 -5.94063,-11.69495 -4.44777,2.81801 -11.0096,5.28805 -9.62435,-2 -4.16766,-2.77211 -4.11355,-7.41342 -2,-10 6.43842,-0.213 0.5218,12.65313 6,9 3.25374,5.64483 -3.61352,-13.54572 3,-5.62435 1.13643,0.6415 7.95509,-6.95733 4.02727,1.59708 -4.20415,6.93329 3.7815,6.37624 3.97273,0.0273 4.70221,-0.79441 2.4943,6.45353 8,4 1.83181,7.94317 1.61105,-0.57418 -2.97273,-4.97273 4.98346,-6.70076 -6.54624,2.23748 -5.02727,-6.02727 -6.15669,-2.33204 -9.49466,-0.83306 -14,-3 1.73312,5.20814 -8.86433,-0.53436 -7,5 0.96016,5.40607 -0.91221,10.31269 -3,2 -5.72094,-3.52819 -1.57433,9.61382 -6,2 -4.01753,0.7313 -8.86712,-5.48573 -5.02727,3.97273 1.26822,5.14301 3.48405,0.19534 8.02727,5.02727 2.15803,-5.50683 3.70491,-7.1576 -3.30505,-1.56498 -3.84954,6.69718 -9.21206,5.23279 -8.0706,1.56498 -7.6245,0.27414 -1.05616,2.48009 -8.62435,-1 2.09021,11.52923 -2.05984,0.54696 -9.12694,2 -5.37957,2.65494 -18.46517,-12.84966 -7.75828,-11.31652 7.44551,1.20087 19.25792,-5.31104 23.50043,1.54693 4.40116,-5.8811 9.70918,-1.62894 13.38479,-6.23041 5.3205,-7.20835 11.7267,-4.93006 19.12694,-4 7.22376,-0.32145 12.10257,4.84458 16.84579,3.97273 -0.31944,8.76565 3.79792,-4.78164 5.41206,2.25768 -3.91027,4.77786 0.28887,6.8086 3.61521,4.76959 0.93177,8.32993 1.38584,3.00544 4,-2 0.65872,4.39917 1.21218,5.77023 4.02727,5.97273 1.91067,6.75609 -9.72983,-1.2814 -2.72222,5.46229 3.83064,4.51552 3.01178,9.10316 -3.27778,7.53771 -3.1604,4.37462 -4.76645,12.63636 -10.02727,7.02727 3.97937,-2.22842 2.09635,-11.29291 -3,-13 -2.60859,-6.39962 -11.60177,-4.73576 -4.38479,0.23041 1.58112,2.52818 9.39819,4.32686 3.81981,12.07464 8.49472,7.4767 -6.43283,1.76707 -0.43502,8.69495 3.22224,5.06209 7.90338,-4.67526 16.87823,-1 8.93289,-0.24986 -3.48816,-13.56101 7.12177,-13 -1.84584,-4.62609 5.47763,-9.5164 0.0273,-13.97273 -0.20607,-1.77605 -2.13151,-11.73471 -4.02727,-6.27598 1.30997,10.81107 -6.775,-8.59053 -9,0.62436 3.10733,9.43856 -6.84089,6.57065 -4.69495,10.18933 4.24647,-0.35912 -1.72654,10.23227 5.69495,7.81067 -8.9156,6.47182 4.11805,-8.19126 -3.71872,-10.52405 -2.76253,-10.60275 -15.54796,5.51863 -16.94935,-4.05413 -2.06305,-12.33093 -11.81416,-4.12637 -15.17755,2.89377 -2.59526,-0.78327 -7.66963,2.50384 -5.84933,6.74378 1.52709,7.08942 9.57056,-11.50464 14.17111,-1.13347 7.84094,6.07509 2.86048,10.31148 5.52384,16.69845 -8.47666,-4.56415 -7.78147,11.73737 -10.97273,1.02727 5.84551,-11.38121 6.75033,0.59677 11.97273,4.97273 7.79093,-1.47706 -7.64791,4.92824 -11.6101,7.87003 -2.44876,6.4804 -1.23928,3.92549 -6.3899,5.12997 -3.54962,-8.15528 -10.51669,-4.40624 -11,3 3.02701,-3.16417 4.11069,11.67648 3.64307,4.77385 -6.58045,2.9622 -11.17821,-12.17957 -5.64307,-7.3982 -10.28546,0.17554 4.24321,14.21845 -2.30155,7.14819 -7.09465,-2.45335 -6.50335,-7.95311 -11.69845,-12.52384 2.49558,-0.57685 8.90801,-3.15666 8.23041,-6.38479 9.57969,4.87239 -4.13059,4.80514 -8.23041,-0.61521 -1.88866,-15.20168 -0.32125,5.17303 -1.35009,10.33035 -3.21282,7.01604 -0.95732,18.45199 -10.34115,19.51527 -8.71929,3.26962 -8.4946,-16.17468 -12.85521,-14.80389 -7.53539,2.35472 -15.33204,7.67076 -22.68396,8.34306 -3.37982,-10.09014 -6.62266,-4.88295 -6,2.23042 -5.30387,2.50086 13.17698,-2.31291 3.23041,8.38479 9.31978,0.59713 17.45074,-2.48334 24.73813,-8.1733 14.08729,-8.6089 28.17458,-17.2178 42.26187,-25.8267 -1.31548,-4.08237 12.66171,-5.10097 12.38479,-1.76959 -10.10536,8.82694 9.13697,11.18134 7.64248,17.74232 -2.74518,1.81341 -10.97609,11.01868 1.78183,8.05454 4.04257,-6.99454 8.08361,-4.20772 2.1909,-12.02727 -0.56101,5.93693 11.63868,-3.70895 12.02727,-5.97273 11.6079,4.95881 -6.74151,10.31368 5.01952,11.78209 4.01473,8.94418 -11.10366,9.16075 4.79653,3.26898 8.0093,-7.47312 14.36315,-3.12625 20.29731,4.21724 4.53019,-2.29957 14.04665,-0.48917 21.85937,2.70442 11.54942,3.06869 -4.02475,9.1144 9,8 2.20444,-4.37358 9.44854,4.02995 12.02727,-2.97273 -1.41508,-4.99481 -10.90896,-10.85144 -8.02727,-4.02727 9.86007,2.53144 10.30245,1.23536 11.47616,-5.30155 -0.055,-5.54204 -16.78857,3.22787 -8.47616,-5.69845 -8.98375,3.93161 -4.32992,-13.48353 -8,-4.24871 -1.7799,9.94655 -11.62621,-0.62771 -3,11.24871 4.45026,-8.20603 11.93,-12.38297 15.30505,-15.91516 -0.2329,-11.3548 12.51175,-2.86501 14.69495,-8.08484 5.8302,0.17763 -0.0439,-14.30153 11,-7 10.06631,6.04565 -5.50697,-5.75386 6.8091,-2.97273 0.64521,3.70779 14.99199,-0.83694 8.71474,6.27428 -1.16918,6.60998 -7.20647,10.57046 -8.52384,15.69845 -0.20366,3.80664 -4.85328,-10.93186 -7,3 -3.01337,8.41699 -11.44589,-8.60168 -10,1 4.95712,6.45362 -3.44361,13.14714 -3.97273,5.02727 -5.56831,-7.01342 -6.62365,-2.3559 -3.02727,-10.77856 3.49963,-9.01011 5.0463,-0.80019 11.61521,-2.47912 6.53477,4.5842 1.95948,-4.92383 3.6152,-7.15438 7.17435,1.94325 10.61192,-4.58262 13.10416,-8.9535 0.64939,-6.69363 9.77179,-13.01721 13.66543,-13.66171 3.89517,-5.62812 -2.46687,-14.33216 0,-21.75645 3.77047,-3.76958 3.25381,-9.64998 8.04679,-12.05291 9.02116,6.91507 -9.3182,-1.31327 -13.77684,0.15062 -11.6138,-3.73805 -6.61627,8.46433 -13.19161,3.19791 -3.26264,-5.22849 -10.12862,-4.07354 -10.5545,-12.84072 2.88335,-7.23323 -6.77796,-3.61086 -2.29343,-9.31366 8.97444,-1.15827 -0.67142,-3.1916 -0.20314,-8.35752 -4.41441,-3.93279 6.24644,-2.51863 0.97273,-10.77856 -4.35206,-2.22391 -2.72867,10.22282 -8,4.75129 -0.77455,-1.31672 -7.26261,-11.53052 -6.23041,-1.53917 -7.21106,2.21126 -1.38984,13.72754 3.84051,6.66914 6.74648,-3.88354 -7.71358,9.32721 2.36263,8.84276 0.53207,2.35644 -2.44437,10.21123 -0.49887,12.31648 -5.76119,-4.17357 -4.88486,8.11493 -9.84951,0.71079 -3.29933,-5.86202 2.57996,-7.08819 6.99086,-8.23041 -2.18233,-8.70752 7.31918,1.73707 9.38479,5.23041 -5.0768,2.6444 2.71523,9.6093 -3.12694,9 -5.56116,0.10186 -11.81004,7.36831 -13.87306,-2 2.77982,-10.66364 13.86487,-1.56672 12,6 -11.56298,-0.71052 -6.71137,13.29588 0.32345,16.35555 9.67878,2.81862 2.91211,15.36556 8.0522,19.64445 9.85046,1.24104 17.05749,-1.19406 9.43414,-11.17623 -3.59763,-3.85874 -5.0821,-22.01424 2.10839,-14.90559 -8.24664,-4.91249 -3.63652,-12.10921 -1.27716,-19.7515 -0.41885,-3.99679 -4.25114,-8.07657 -0.64102,-12.16668 -5.79538,-4.8065 6.76713,-7.22457 4.02727,-1.02727 -0.19209,4.93652 2.84006,11.22576 6.40775,5.72222 -0.0796,-8.70081 -7.44556,-7.33934 3.56498,-5.69495 9.84783,-1.41527 -8.75371,-7.31384 -1,-8 0.82942,-5.24446 2.10767,-11.88938 8,-7 2.57512,7.59497 5.48561,8.2681 7,-2 -6.44809,-6.26494 12.74057,-8.23581 2.02727,-8.97273 -4.58631,-1.48894 -8.22507,-14.33608 -10.46229,-4.72222 0.80322,4.8757 -15.0076,-1.95253 -10.18933,2.69495 11.36199,-0.74793 -3.11726,9.14422 4.23956,7.76959 12.79582,-4.71107 2.37616,7.02082 8.38479,-4.76959 -3.85919,-4.33418 -10.00123,-13.45188 -8.76307,-12.85539 -3.98334,8.74373 -8.79102,-0.66827 -13.23693,6.85539 -2.16608,6.71796 12.33993,2.88458 4.79897,8.65077 -6.10855,5.00534 8.16803,5.69174 1.58582,11.57964 -4.50498,-0.19461 -4.64079,-5.24517 -9.38479,-9.23041 -4.47074,-4.91105 1.26564,6.94498 0.38479,11.23041 -6.03869,-1.96618 -0.87036,10.22196 -3.38479,14.76959 6.9301,-10.72797 8.36579,2.50924 14,7 6.86131,-4.39627 -3.91016,7.71969 6.55242,-4.05645 10.21821,-5.2053 1.61187,-11.74194 3.31761,-19.55365 1.62562,-0.56562 10.13813,-6.33035 15.12997,-10.3899 6.82458,6.5142 0.88731,17.69851 -8.54863,15.24547 -8.55609,4.26977 -14.8363,-2.18091 -18.68178,-1.86068 -7.28152,2.15469 -7.09889,-2.98825 -16.60135,-4.9175 -7.66027,-5.38128 -8.45987,-9.33907 -10.16824,-13.46729 -12.34434,-3.13 -10.30579,5.34193 -12.83106,12.71843 7.92591,8.83773 -7.27072,6.09687 -3.16894,13.28157 5.64571,1.10653 16.09369,6.67348 9,-4 5.19467,-2.16538 19.40533,4.89351 12,-2 4.52778,-5.85131 7.42907,-16.34214 10,-18 7.73428,-1.96344 3.96149,-9.9662 -0.64543,-10.24416 -12.01003,7.45666 0.95833,3.61055 5.68486,-4.10531 5.74671,-7.49319 15.35567,-8.80285 23.6839,-5.17591 6.15308,0.1098 9.09763,11.21653 0.27667,7.52538 -1.72968,-9.04992 14.65911,-12.5551 8.24871,-15 -5.06952,-1.53655 11.32447,10.07902 3.9259,15.10052 -4.79011,5.86075 4.60604,-11.71671 4.82539,-16.10052 3.73663,-7.77365 5.23279,-13.08529 7,-17 1.45335,-5.06694 -0.32469,-7.37931 3,-13 -3.4211,0.15325 2.776,-13.88696 2,-4 3.14446,5.75202 11.83123,-2.28068 7.76959,-6.61521 -4.62837,5.80859 -9.78621,0.2945 -5.76959,-6.38479 2.88715,-5.48658 -1.58831,-12.15764 6.37565,-10 1.47872,3.13054 -5.53629,4.74895 3.85476,5.38479 6.5967,2.2002 8.73064,-1.90124 4.15438,-5.6152 -0.98719,-4.51971 10.88807,1.17209 7.31016,4.66543 0.007,2.44605 8.23874,7.63541 -1.58586,12.45589 -6.04119,5.10988 -14.4316,-4.92279 -15.3395,-9.35174 -0.012,-3.81394 15.38081,-6.33959 5.25768,-8.56644 -0.47194,-3.30861 4.83514,-7.86207 -0.0273,-10.97273 -0.60064,-3.02941 -4.31088,-9.30147 0,-10 0.86073,-4.59315 4.54101,-8.29702 3,-13.37565 4.88695,-3.02138 4.17753,-12.5896 -2,-5.62435 -6.15113,-1.97312 5.81178,-8.36924 4.02727,-8.97273 -3.11428,-9.84279 2.87493,-0.0188 3.81835,-5.71851 -4.56185,-6.06768 -10.82186,-1.50709 -6.84562,4.69124 -8.78659,4.96502 13.82602,9.17467 10.12997,4.3899 4.36119,-5.22328 4.13073,-10.01833 5.84276,-14.36263 -7.55183,0.46354 -3.09723,-10.35503 -6.97273,-11.02727 -4.65443,6.74674 -7.07409,-5.86487 -3.62435,-6 7.47097,-0.58432 2.29995,8.31534 4.62435,0 -4.90332,-4.67244 8.09233,-1.37772 5.38479,-6.23041 -2.65689,-1.16563 -7.76556,-5.32794 -6.38479,-8.76959 0.50371,-5.10549 8.38531,-3.37535 7,-10 -3.35857,1.08045 -8.94828,-5.2261 -6,-9 1.33719,-5.40008 -2.87307,-7.10533 5,-6 -4.07526,6.33244 1.67813,5.86813 5,10 4.82692,-2.4606 -1.23707,11.42472 5.61521,3.76959 -2.0969,-6.57378 5.40752,6.53155 10.38479,-0.76959 -2.83157,6.26693 -5.43589,12.31519 -7,15 -6.96572,-3.27544 -8.23961,5.35915 -2,8 -0.0633,0.0659 -14.19376,6.54658 -6.02727,4.02727 5.37702,1.53064 17.22322,-1.22636 5.1631,-3.47633 -8.03389,-1.38935 -7.31335,-5.58342 -7.13583,-12.92659 -5.87049,-0.6142 2.42449,-11.05261 2,-1.62435 4.53406,7.92287 -13.72001,9.0613 -5.53917,3.76959 6.19044,-5.32514 8.46046,-6.29511 12.53917,-8.76959 -1.14065,13.34132 -9.43615,0.5516 -10,-6 -1.70932,0.2601 -10.50618,0.0831 -4,-4 2.56082,-9.62156 4.72147,1.75482 7.97273,-4.97273 -2.78197,-4.5849 -9.67904,-0.70643 -3.97273,-6.02727 -2.86972,-1.19544 -4.77799,-2.96108 -8,-7 0.35164,-3.40623 3.05523,-7.79782 5.97273,-11.97273 4.52596,2.02101 -1.39925,9.97148 5.02727,10.97273 5.53215,-2.31787 -1.74512,-0.25766 -2,6 -2.6923,-3.88782 -8.87237,-3.75172 -1,-6 -5.90436,-2.73447 -2.96263,-10.4837 -0.69495,-5.43502 10.74446,3.46836 2.01236,-4.138 0.69495,-7.56498 2.41674,-4.04551 -8.61063,0.23774 -7,2 2.30946,8.95534 -3.86357,-2.38976 -6,-3 2.2051,-7.17353 5.61954,-2.43006 8,-7 -3.95643,-0.56011 -1.76521,-5.53054 -4.97273,-8.97273 5.98551,-7.68058 -11.31109,-3.56429 -1.05454,-3.05454 -2.37282,3.69071 -6.40848,6.88173 0.0273,8.02727 3.8612,3.28951 -1.63638,7.83865 -6,4 4.06094,-2.72733 -1.89688,-8.73321 -5,-10 -3.68779,-9.13106 -8.74125,3.93159 0,3 0.10022,0.99389 4.32144,9.72446 0,7 -6.24987,0.79269 6.20389,4.91546 -4,4 1.83282,8.59923 6.00477,4.14065 9,4 6.19517,0.5648 4.44088,6.49218 7,8 3.67925,-1.51052 8.88569,3.8013 1.05454,7.94546 5.1839,0.57555 0.005,9.92826 -3.05454,7.05454 4.28838,-5.71536 -0.98525,-2.79411 2,-9 -0.56644,-3.82872 -3.07814,-5.04263 -7,-9 -6.63871,-0.65173 -1.78996,3.11007 -0.23041,3.61521 -2.72513,5.2332 -9.92666,3.14024 -6.76959,-2.61521 0.56219,-0.25716 -3.2365,11.941 4,10 5.83815,-3.85499 3.88486,9.46823 0.38479,8.23041 -0.17387,3.75707 8.16673,9.91381 3.61521,8.76959 -5.22158,3.92069 -1.97695,7.74401 2,2 8.13771,2.46854 -1.35523,3.26802 1,8 5.47086,0.97867 8.80627,-2.58844 3,-2 -3.65265,-5.76436 -9.22719,-0.14 -10.02727,1.97273 -0.49782,4.06236 0.97794,9.44163 -2.97273,11.02727 3.09598,9.75883 3.82527,-5.45582 8,3 -4.26086,3.17477 -1.31298,5.44169 -2,11 -5.12006,3.40928 5.48242,5.57671 -1,9 -0.96308,-0.602 12.12071,-0.69802 10,7 -0.48024,0.56786 15.70256,8.09484 9,1 -0.96996,-5.37541 -4.60368,-10.44952 -6,-14 10.91572,-3.27053 4.16173,12.15562 9,-3 -5.82377,-8.18721 -2.48571,-3.91319 -10,-1 3.96759,-7.30165 -8.45488,-5.98926 -3,-12 -5.15415,-1.53404 -6.81638,-6.68559 -4,4 2.07046,6.90763 5.86227,-3.91273 -4.69786,1.46043 -10.31001,3.37143 8.60636,11.11579 -2.30214,12.91522 1.69376,5.29897 10.7236,14.85566 1.58447,11.26514 -3.41062,-4.81554 1.49672,13.79712 1.41553,18.35921 -6.94527,1.99183 -2.65234,10.40687 -3.97273,13.97273 -9.51604,0.65403 5.65488,12.26872 5.97273,2.02727 2.05204,-0.93812 9.83687,-8.26438 7.02727,-11.97273 0.91762,-2.09663 7.70378,1.75649 7.09206,-1.97047 -3.78459,8.92921 -8.56501,7.85659 -13.55435,9.24825 5.80004,5.52367 2.41774,12.00898 -1.94063,14.69495 -2.99621,-6.60996 -6.59518,0.36611 -5.85476,4.61521 -4.48906,2.11501 -4.4648,-1.86012 -3.76959,7.38479 1.73915,-4.05233 -12.26037,-2.77713 -14,3 -3.92375,6.23132 -0.018,12.88189 -7.61521,11.23041 -9.84009,9.38297 9.97172,2.53272 9.34542,3.11852 -0.96093,3.63608 -0.84448,17.43905 -6.26903,12.52778 -6.56296,-6.10856 -14.75951,-6.80731 -22.43391,-6.84944 -7.44759,-10.22443 -1.49628,9.8149 1.09602,13.51155 5.05549,13.89365 6.67656,-4.90721 9.69024,-10.4509 2.76038,-8.06429 7.64156,-16.22103 1.27555,-23.88749 9.92731,-3.64054 10.88385,2.31864 18.91092,3.79957 -2.66321,-5.45709 -0.91395,-16.24981 -2.75129,-15 0.42694,-10.65094 10.13682,-0.94663 -2.93566,3.75652 0.73219,-8.65908 2.99389,-20.09521 4.68695,-29.75652 8.52117,3.50198 17.99395,2.20936 27,3 -1.75646,-7.05678 8.4678,-12.64118 11.93606,-19.00806 3.2476,-5.84259 17.54438,-12.26791 9.14576,-18.91012 -7.69394,-7.69394 -15.38788,-15.38788 -23.08182,-23.08182 5.08848,-8.28767 -3.31884,2.39769 -5,-4.37565 5.5794,-4.64317 -3.26183,11.35448 3,5.37565 -11.25103,-0.53136 -8.13369,-7.4098 -7,-15 -4.84612,-5.52156 6.14891,-7.39618 8,-4 -1.6211,6.43785 5.65349,-3.20077 1.76959,-1.61521 -7.94904,-3.09066 -3.79677,-4.23179 -1.76959,-6.76044 -4.05913,-5.01852 4.22651,-8.1387 -5,-8.62435 -2.9561,-0.83431 0.71688,10.73868 -6,7.37565 -1.33553,13.67303 4.14314,0.72632 -4,-4.37565 -8.81729,10.45433 -10.67978,4.11828 -10.70628,-6.65023 -3.57803,-10.82139 -9.02998,-5.00144 -9.04501,-2.34977 -4.61137,0.92772 -18.19023,3.41065 -10.24871,-2 -2.47667,-7.34327 -15.64301,-1.31186 -8.62435,-7 7.13747,-4.58769 -5.85576,-3.15844 -7.32111,1.94546 -5.17573,-0.18219 -0.055,-6.56455 -4.05454,-7.32111 -2.49316,-2.85935 -1.75723,-4.09929 -3,-8.62435 2.9243,-3.28841 -3.57029,-13.02703 -3,-6 2.58153,5.06523 0.74422,5.37782 -2,8 -3.35542,0.75953 -10.63825,2.82947 -9,-5 0.27714,-2.24683 0.64924,-10.27759 4,-5 2.84501,-7.66306 -2.88447,-4.27314 -7,-2 4.88916,-5.41209 -3.28048,-4.4126 -6.97273,-3.97273 1.60726,-1.89641 -5.79543,-6.6177 -5.02727,-3.02727 -1.29643,2.31694 6.56052,5.0547 -2,4 0.76966,-6.71653 -6.49614,-2.20695 -2,3 3.51109,-0.87161 4.11581,-1.48364 7,4 5.69575,-3.93923 6.96581,3.21465 -0.23041,3.61521 -2.17818,-7.18152 -6.52736,4.0173 -8.76959,-5.61521 -4.792,2.27623 -4.74875,-1.36275 -7,6 -3.5705,-2.98064 -11.63668,-3.27963 -10.97273,0.97273 -3.79792,6.22587 -3.24734,4.8967 -5,0.0545 -3.16759,-0.887 -7.06297,0.90347 -11.02727,2.97273 -1.13398,6.76095 0.9592,5.72011 7,6 2.01545,-5.18546 -9.41465,-0.79891 -3,-6 6.92182,-3.74883 1.95762,5.44831 10,3 7.08023,5.44765 -7.77615,0.52815 -5,6 -4.22995,-1.33561 -8.73144,-1.49237 -11,4 -6.00183,-3.57825 -5.26098,3.68403 -9.97273,4.97273 -1.16619,-3.08672 -10.30261,-7.83873 -7.02727,-0.97273 -4.49209,1.17806 -6.05288,0.36739 -7.97273,5.97273 -2.59736,3.57125 0.92966,8.77929 -5.02727,11.02727 2.51622,1.64609 6.7593,8.86186 1.02727,10.02727 -0.35966,8.06871 -7.95114,-7.18157 -4.02727,4.97273 -7.49426,-5.12997 -0.73652,7.2105 -10,4 -1.1606,-3.77581 1.12045,-13.319 -5,-8 -2.88592,-6.26518 1.67815,-9.31771 1,-12 -5.90672,-6.01794 -1.92183,9.70067 -7.97273,4.02727 -4.28681,-0.20149 -8.96544,-0.46196 -1.05454,4.94546 4.62202,7.02708 5.07137,-5.01902 5.02727,5.40292 -3.16973,3.99489 -9.58982,2.23171 -11,-1.37565 0.10138,-6.41811 10.02086,3.65929 4,7 -2.84965,-3.29404 -8.88977,-1.4223 -11,-4 -2.1138,3.2554 -4.50346,11.0022 -5.66636,8.33457 5.40276,8.96773 4.6893,-4.70021 8.66636,0.66543 4.30711,0.79773 5.58459,12.35727 7.02727,5.02727 -4.39042,2.48291 -12.20242,-5.43376 -8.02727,3.34838 7.57007,0.51529 -5.35057,7.08774 -4,-2.37565 -8.15496,-4.4647 -1.66244,8.65232 0,10 5.5681,-8.10564 11.88028,8.73398 1,5 -5.82588,0.98185 -4.1095,2.26293 5,7 -0.0868,5.36163 0.22106,19.77757 7.97197,11.58744 0.16609,-6.67494 5.97663,-15.60155 12.64324,-8.35703 4.65893,4.29905 7.98282,3.28624 14.38479,5.76959 6.38832,-3.5358 10.12206,6.03788 12.97273,-0.97273 0.21979,-3.45488 0.13071,-15.78804 6.02727,-7.02727 -0.77251,4.84179 -4.0673,10.97887 2,11 2.68614,-2.27728 13.78757,1.52856 9,-6 -2.55376,-0.41224 1.00367,-15.58504 -5,-6 0.87727,9.27175 -5.82392,5.48644 -1.47386,-2.28921 2.9986,-6.28791 7.46411,-1.8099 10.08907,-0.48038 2.80371,5.59247 2.91366,5.24249 0.38479,10.76959 5.30149,-1.72034 10.7772,3.53941 16.97273,1.02727 -1.2591,-1.86971 1.35872,-13.403 5,-13.05454 1.74209,-0.19432 7.90111,-9.73053 8.02727,-2.59708 -2.12616,1.88281 -0.90131,13.17075 2,6.62435 -1.65985,-8.44211 6.46969,-8.55873 2,-1 4.76962,2.6119 6.49467,3.9354 6.97273,9.02727 5.96696,-6.48241 2.3023,8.75562 6,-5 -7.52091,-4.41551 0.86447,-5.69067 6.02727,-6.02727 -8.11092,-1.80218 2.47893,-5.17742 2,-5 4.19586,2.48455 1.83319,-8.36035 10,-5 4.78957,-1.11578 4.73657,-6.00025 6.37565,-9 -0.68804,-8.37746 -4.22957,4.93117 -8.34838,0.0273 -1.49905,2.12833 -3.17204,9.86038 -7.02727,4.97273 -2.072,-3.01522 7.86213,-6.27544 2,-7 -5.50819,4.35377 -4.08334,-0.14703 -9,0 -6.80222,6.42319 -2.69377,-3.66818 -2.97273,-6.97273 -5.5289,-0.9873 -4.00393,6.64524 -6.02727,7.97273 1.7555,7.37001 6.22699,0.0961 10,3 2.32331,0.6048 6.12542,10.48538 -0.97273,5.02727 -4.50441,-4.0767 -3.14243,0.23185 -10.02727,-1.02727 -1.55036,-3.37573 -6.96042,3.69285 -7.02727,-2.97273 3.2261,-1.40394 4.86525,-0.19076 3.02727,-8.02727 3.10579,-3.59559 -5.81288,0.65365 -7,-6 -3.70443,2.12457 -9.39878,0.52712 -9,6 0.78013,1.44104 10.6166,-0.49045 4,4 1.69663,3.84645 5.43944,-0.81302 10,-3 3.14138,5.34882 -6.92784,4.38798 -5.23041,9.61521 -3.03854,2.5804 -10.15905,-4.31344 -8.76959,2.38479 -3.08539,-2.79711 -5.98333,-9.56747 0,-9 4.05021,2.24982 -3.71961,-5.35052 -6,-4 -1.76213,9.89923 -0.48987,-0.34695 -4.97273,0.97273 1.06118,4.95057 -4.90416,2.84642 -6.02727,-1.97273 -4.29326,3.22029 3.06588,6.0855 0,10 -9.36215,-4.5497 2.15701,-1.63987 -3.97273,1.97273 -10.39346,1.17043 3.25756,2.9803 1.97273,3.02727 1.20767,-3.72328 6.85907,0.29039 7.97273,-1.97273 3.97905,-0.7817 4.61552,7.13507 9.02727,4.97273 0.51336,5.74031 4.55259,1.33767 6,-3 6.27851,2.76082 5.0078,-2.90509 -2.75129,1 -6.56776,1.31023 -9.40054,-7.90431 -12.24871,-5 -7.75341,-0.96597 -0.87195,-5.28424 2,-5 7.28668,3.03385 0.30428,7.6027 5,4 6.15095,-3.39822 9.20992,-1.19027 13.10052,-0.17461 2.83022,6.19464 6.0326,8.74151 8.92675,11.14734 8.21786,-0.32545 1.93022,5.93884 0.97273,12.02727 -2.91587,8.30296 -4.32577,4.31615 -10,1 -9.05385,-7.14731 0.66529,-10.98388 -5,-1.62435 -4.33461,9.47697 5.70128,5.25124 5.85539,8.38742 -2.39511,0.10242 10.24344,-10.77257 16.58503,-10.24321 7.73688,0.43407 9.63621,-5.85635 16.78999,-9.13507 4.76768,-4.248 5.05036,5.88113 5.76959,-5.38479 10.02043,-8.27249 1.3993,8.16046 7.91818,0.0818 8.18309,-3.3812 3.82788,-4.80311 3.08182,-13.08182 9.86593,-2.25946 -3.60681,-1.32731 -6,-6 -1.77816,-6.4644 -0.0213,-5.88267 -6.23041,-7.38479 -1.81786,2.96879 -0.38825,-7.69296 -0.76959,-10.61521 0.81882,-4.56577 1.69408,-14.89765 6.97273,-7.02727 5.56753,-0.0784 -1.19419,-6.32191 2,-10.94546 -7.56044,-3.92937 -3.15978,-6.3336 -5.97273,2.97273 -0.23762,5.45379 -0.66206,20.52918 4.97273,12.02727 6.23181,-3.90392 7.02032,2.30217 5.02727,7.97273 -7.40048,4.56882 1.41292,-10.57144 -9.69124,-0.15438 3.32612,3.52169 10.53023,10.58793 11.92165,4.76959 3.79781,-1.03947 3.55546,-10.3705 -0.20314,-15.58794 -7.17913,-2.51591 -0.62515,-16.26887 3.91819,-12.08181 0.74651,-10.15511 6.40669,-2.30512 7.05454,-10.94546 -2.36052,-8.61771 6.03297,-15.05517 11,-15.37565 -1.6885,-6.99511 13.27017,-2.93128 5,-8.62435 -0.27088,-6.62995 -8.31269,-9.13101 -8,-1 -3.86836,-7.44448 -3.97859,-8.31984 -10.26979,-6.65107 3.15877,7.5733 -1.51553,11.10814 -8.43022,17.35108 -3.41727,1.94217 4.36591,14.1791 -4.29999,9.29999 1.37763,-1.70042 -9.85592,-4.4302 -4,1 5.97887,6.04289 -1.95871,-3.39746 2,-5 6.84913,-0.40523 -6.01254,-8.89898 -6,-2 2.11034,-1.1848 -10.49369,12.62048 0.23041,7.53917 2.23911,0.61428 12.08727,9.49447 10.76959,-2.53917 -4.3269,-3.47324 -11.17666,-15.96493 -12,-9 -1.22552,-12.18725 -10.60365,3.14017 -5.87003,-5.6101 -11.44785,-4.86955 2.52469,-9.5497 2,-2.7798 0.42303,3.32707 -6.60645,15.4341 -2.12997,9.3899 -7.88598,0.65812 -8.04765,0.12208 -4.04447,3.10474 -3.52777,-4.53593 -10.72425,-9.18346 -7.95553,-3.10474 -10.59714,3.07616 -2.15773,-3.98645 -3,-8 -1.49694,2.99632 -6.32838,-0.72224 -6,-9 -10.52768,1.21469 -3.52836,-3.4749 -8.97273,2.97273 -6.51891,-2.49069 -0.14702,6.96912 -5.02727,4.02727 -0.90953,-0.0936 5.33227,9.41431 -1.97273,2.02727 -1.9512,-0.94221 -9.52042,-1.30623 -8.02727,1.97273 4.35985,0.90152 8.72024,-1.02301 8,4 -4.94703,-2.6782 -10.14698,1.16385 -10,-3 -1.9784,-3.869 -2.56799,10.198 -3.97273,0.0273 -0.73234,-1.08241 -5.01536,-5.5842 -0.65162,-9.02727 3.57301,10.23457 0.8364,-4.0758 6.62435,-1 0.0489,7.89652 -5.27065,7.22086 -12,6 -1.29712,8.01283 -6.86964,0.26321 -7.02727,-1.97273 5.55511,2.68454 9.19097,-1.34949 5.05454,-4.05454 1.52398,2.90821 7.74069,0.82198 2.59708,10.02727 1.4094,3.88261 -2.06118,9.79765 -1.62435,3 -9.24485,-6.27704 -1.68419,8.26077 -3,1 0.10603,-4.54063 -9.81848,-4.1235 -11.97273,-3.97273 -5.37529,2.96958 5.02636,9.10924 -1.02727,8.97273 -2.60648,-0.83073 -5.90866,5.30643 -11,2 -4.47692,-4.89998 -3.31233,-7.16883 2,-3 5.08105,-4.63649 -2.39465,-10.51367 -1,-3 2.49558,-6.70441 -13.2795,6.947 -7,-2 -4.96298,-6.54268 -13.75704,6.95661 -6.62435,5 5.75273,-1.13482 0.0193,8.42086 -3.37565,5 -1.70701,1.50459 -5.29944,9.01827 1,5 -2.2159,6.14521 8.82495,1.34385 2,-1 -6.22691,0.43861 5.09389,-5.38281 6.37565,-7 4.66074,0.55123 1.44121,11.58795 -1.37565,6 2.77998,0.82832 8.83979,5.62059 10,2 3.86096,2.08557 4.942,7.58073 7,3 7.53039,0.90993 5.76638,-4.0091 1.02727,-4.02727 -6.22356,4.24471 -3.38757,-7.79305 0.97273,-4.97273 8.54268,8.51126 -2.71385,-6.71285 4.23041,1.61521 2.40116,1.78485 3.82826,-3.59769 4.76959,-5.61521 -3.33418,-5.38284 -7.89656,3.5913 -2,0 8.93189,2.0645 0.43407,-8.66037 -3,-5 -6.84296,-2.06585 9.56956,0.004 -2.22021,3.74007 -4.78589,-0.40277 -9.0803,-6.23289 -6.80706,-9.7128 4.17708,9.9797 2.74481,-3.05487 7,-0.0545 5.33157,-3.29373 13.88733,7.15364 5.62394,-3.25673 -6.77656,-1.33804 -19.19367,1.52447 -12.59667,11.284 -2.85225,4.53193 -4.9936,5.19169 -4.02727,10.97273 -1.04264,3.89748 13.58196,-1.63799 3.65162,-2.97273 5.1644,-9.3468 -8.64002,0.74516 -6.62435,3 -2.5066,2.39708 -12.08557,8.32836 -7,8 -4.42504,-4.85679 -10.13124,6.07841 -4.02727,3.02727 2.51916,5.92853 1.04546,4.38885 7.97273,6.91819 -2.24689,4.72154 9.63223,-6.16153 4.08181,3.02727 6.66755,-1.52369 8.03179,0.53762 9.97273,4.02727 7.03279,3.44802 4.08209,6.98848 0,4 -3.60097,0.31816 1.86905,8.61484 -2,6 -2.26095,-1.98611 -6.08911,4.13207 -3,-2.37565 6.27021,-5.27944 -7.89072,-5.76742 0,-9.62435 4.89737,7.6537 -5.5518,3.65568 -6.97273,5.97273 -2.80293,8.29541 -4.25274,2.56215 -2.02727,-2.97273 3.99648,-8.53195 6.40593,2.55523 -2,-1 -5.60275,-2.39671 -8.19264,-1.5016 -11,3 3.48132,11.98362 -5.88465,-6.40561 -3,5 3.13811,6.27641 -5.76481,8.02531 -3.02727,-0.97273 3.43241,8.25247 13.8872,-1.5319 15.04907,6.52724 1.98956,4.88087 -1.91203,13.76291 -5.0218,7.44549 -2.97873,3.13772 -5.72676,8.50497 -7.61521,6.76959 -6.33507,-3.51514 0.28386,11.03213 -5.38479,8.23041 -3.36423,11.98444 -5.68724,-2.7315 -10,2.37565 -7.20949,5.53047 3.22109,-6.11059 8,-6.37565 -2.7594,-4.38172 -7.5778,0.77201 -10.97273,-2.02727 -1.9943,-4.73625 -6.55598,-7.20674 -5.12779,-2.79812 -6.05067,-5.14894 -4.22675,-15.06917 1.55066,-18.41107 8.24999,-7.87821 8.25035,-5.19035 16.16507,0.46687 0.7808,9.75684 -5.44047,6.54036 -0.61521,12.76959 -6.99078,6.86114 11.87638,3.34205 4.62435,-2 -0.5935,-9.34435 10.38551,1.15413 12.37565,-1 7.14716,0.6143 5.34409,-8.95819 10.97273,-3.97273 8.79141,1.23844 -3.10717,-2.28062 -0.97273,-6.02727 5.64283,-5.53145 -7.33897,-1.08934 -2,7 -3.64595,4.32175 0.87176,10.77152 -6,10 -0.12244,-0.608 -10.65617,-0.35743 -6,5 -2.71468,7.41554 -0.6474,8.67857 4,7 7.83652,-6.57023 -2.60515,-5.15897 -0.62435,-8 6.34862,-0.77688 4.09371,1.71774 8.62435,-2 4.66186,-1.44005 10.52962,1.50914 4.76959,3.38479 -7.90493,-5.21461 -0.0482,6.11322 -8.14524,5.61521 4.10378,-7.15596 -10.82131,-3.20742 -3.62435,5 6.00282,3.24959 4.24177,3.65639 7,9 -6.42431,1.80482 -4.44865,-0.4083 -8,-4 -0.68195,-7.57521 -12.79125,-7.63095 -8,-10 0.60144,-7.18697 -6.32495,-8.13629 -10,-1 11.68822,-3.6262 3.69139,9.91344 3,8 2.57255,2.25399 7.32737,2.99526 9,2 5.33545,3.99282 3.92838,11.58609 10.6101,13.87003 5.77142,-1.21138 -3.25738,-5.29773 6.69495,-9.30505 10.46573,-4.43788 -4.07216,-3.32753 -6.27778,-9.53771 1.39301,-2.57227 11.36896,-5.08261 14.97273,-9.02727 5.62525,-6.77649 -1.51081,-0.80977 -1,-7 1.63696,-3.31199 3.343,-4.14937 -4,-6 -0.83694,7.7977 3.643,1.19524 -3,7 3.125,0.4723 10.46897,1.31119 13,-3 2.33339,0.14859 8.95937,2.61983 2,-4 -3.6178,-4.54277 -4.30897,-0.0664 -7,-2 -0.1219,-4.76077 4.00501,-5.20997 8,-6 -3.40328,-4.01422 -11.14246,-4.15337 -8.19064,-13.04679 4.76657,-1.94048 3.93891,-8.92507 5.19064,-10.95321 9.13249,3.53864 -1.32449,5.08215 4,11 -3.85185,5.97904 6.10243,8.73716 3,2 -5.21428,-5.30737 5.08059,-3.2689 2,1 3.9447,2.00292 -4.09558,7.15311 -7,6 3.49007,-4.30639 -0.82687,-6.17978 -1.70776,-12.17961 -3.95273,-9.37775 -7.68516,1.46084 -11.29224,-1.82039 1.14917,-6.73167 -0.84496,-14.23919 -4.6101,-13.12997 -6.22003,4.81171 0.80177,8.44753 -1.3899,1.12997 -5.92732,-2.60415 -4.21319,10.25102 -13.6101,8.87003 -0.50158,5.57294 -6.82439,-3.79483 -1.3899,-6.24568 -3.19518,-0.19665 -7.46138,2.16647 -7.02727,-0.59708 6.12324,-3.22077 -2.16202,-9.21091 3.40292,-11.02727 4.36301,4.42245 -1.54021,-9.63213 6.62435,-2 5.8903,7.95052 2.58195,3.76244 11.97273,-0.97273 0.22974,0.32175 10.14114,9.4127 13,13.94546 2.21489,4.98036 11.96315,-2.23445 12.40292,-0.97273 3.10066,-2.83275 7.14272,-0.70265 5.62435,5 -4.80771,4.98783 4.59272,2.86524 7,7 -1.48238,10.1571 -5.83287,-3.15722 0,6 -0.88584,3.35696 -7.89663,7.90864 -2,11 3.92061,0.82761 9.85436,-3.56804 8,3 -0.14696,6.68071 -9.52797,-1.26986 -7.02727,3.97273 5.31327,3.15661 -8.54883,2.05853 -1.97273,4.02727 4.82593,2.42804 8.58569,4.91193 11,-1 -6.77672,-0.24665 -10.04688,1.62407 -1.62435,-2 0.84313,-2.49979 1.55299,-2.82719 7.62435,-4 -3.36334,3.76298 2.72673,6.87502 4,9 -3.12994,1.26848 7.85965,0.20511 7,7 -3.4746,2.83088 5.70281,7.52697 2,13 -2.21091,4.46513 7.48819,-3.05229 11,2 -10.58474,2.90129 6.72962,1.07861 4.38479,-5.23041 1.85675,-5.41366 -6.30575,-7.37328 -3.41206,-12.74232 0.24923,3.67527 9.96841,0.99765 7.02727,-3.02727 -4.5653,-6.51154 -5.59962,5.06116 2.04679,1.80936 9.02705,2.37018 10.52346,-4.30658 1.95321,-4.80936 -4.65209,-2.30331 -2.40247,-9.31544 -6,-11.37565 -6.01728,-7.1235 8.01138,-1.81627 5.56498,2.6807 1.02074,4.59972 -8.42148,8.74829 -9.56498,5.69495 -8.57676,-0.52049 3.77589,-10.45504 -4,-9 -6.03732,-0.58968 3.3543,7.61663 -5,4 -6.1051,-5.89712 -0.0776,3.96959 -4,7 5.7622,-0.15425 8.76949,-7.3915 9,2 -5.58685,-2.85315 -13.79312,4.26661 -9,3.62435 2.65635,-3.27988 8.8573,8.66244 7.14461,4.61258 1.59607,-3.74282 6.01587,-6.74393 5.85539,-14.23693 7.47914,0.41052 0.29202,-11.16736 -5,-10 -6.34571,0.43973 -6.29539,2.62983 -9.97273,1.02727 2.67008,-3.82037 -9.15465,-4.26766 -2.05454,-7 -2.40234,-7.08121 -5.83049,0.16131 -7.97273,2.97273 1.87157,8.3418 5.70088,3.40092 3,0 7.11745,0.11217 0.24793,10.09055 6.97273,7.02727 -4.93914,-7.27456 -0.22835,8.40761 4.77856,5.97273 1.75832,6.09378 -7.31039,3.86923 -9.75129,3 -8.20333,-3.43123 1.59228,-4.88046 1.97273,-6.02727 2.83227,8.58395 -1.20348,1.05684 -5.97273,6.02727 10.4232,3.5816 10.09113,3.12987 -0.72834,6.89813 -7.26941,-2.78331 4.4305,8.41097 -1.67039,-1.25636 -4.08026,-5.2449 -5.89029,-6.72548 0.39873,-12.64177 -1.20168,-7.02905 7.06473,5.39465 2.71079,-2.52614 -7.61728,-4.18858 -8.26288,-6.402 -3.09558,-9.70427 0.37034,-7.62478 -8.76438,0.79745 -9.61521,-5.76959 -2.55286,-4.94776 5.67051,-1.45775 10,1 1.08717,-8.2882 9.64034,-6.46737 7,0 -1.56234,-5.84619 8.8617,6.99176 9.02727,1.02727 0.22883,-10.70512 4.51747,5.658 7.91819,1.02727 5.70229,5.15484 8.3486,-3.60684 13.02727,3.91819 3.07722,-6.68689 -10.11357,5.65392 -11.49887,1.73806 6.22328,-10.35932 -6.56855,-7.50065 -7.47386,0.66486 7.97239,2.5614 -3.97315,1.00533 -6,-2.37565 -6.46447,-3.78463 -11.56447,-12.01969 -17.27725,-14.4891 -8.25166,8.35702 -12.74468,-5.60978 -20.69548,0.46183 3.49072,0.97737 -11.51121,-6.83952 -6.02727,-8.97273 1.32956,0.76988 -2.13432,-5.36849 2.36882,-7.86312 5.99831,0.39927 17.23397,1.8119 18.63118,-1.13688 4.83078,-1.38237 -1.29591,6.75913 7,1 0.77933,5.74077 11.49923,-5.83803 5,-4 0.42584,-2.82641 7.14879,-3.65243 2.76959,-9.61521 6.53693,-2.87501 0.88659,6.36434 -9.07464,4.05023 -9.38047,-4.23929 2.59037,5.25188 -4.66768,5.53771 13.22305,0.19208 -1.78549,5.60126 -5.94545,0.10909 -5.48713,-4.55845 -1.10293,-8.31204 1.94545,-2.10909 4.175,-4.5267 3.80788,-16.02876 10.97273,-14.97273 5.76815,-1.53287 -6.6604,7.31916 -6.87003,-2.6101 3.86919,-1.50656 9.83303,-1.75251 17.1239,-2.3899 9.6808,-0.21131 13.0755,-0.40647 13.74613,6 10.89193,-2.5395 0.32791,6.04603 4,-5 17.66667,8.66667 35.33333,17.33333 53,26 1.0821,9.95091 6.45733,8.66491 13.72303,2.18465 3.05278,-2.49756 12.30302,-10.85744 12.30424,-6.21192 3.84873,-3.92026 -6.86479,-6.5616 2.97273,-7.97273 0.17878,-5.92852 -11.60275,1.44011 -5,-4 4.97877,-3.10738 5.95716,2.38479 7,5 1.2371,-3.93852 10.23728,4.15813 11.02727,-1.97273 -0.0662,-3.59322 8.73949,-8.10718 1.97273,-10.02727 -8.94635,1.5387 7.96607,-5.323 0,-5 -6.0472,-0.23042 -6.79832,2.34371 -10,5 -2.87862,5.27574 -0.18927,-9.76835 -0.23041,-3.38479 -4.5997,3.19535 -8.16955,5.50322 -3.76959,6.38479 1.58915,1.83632 5.89675,1.22801 6,7 4.00832,-7.92443 6.38895,-2.55664 1.62435,1 4.47594,3.13424 -5.69572,12.49269 3.37565,10 3.31465,-2.67772 -1.76535,-9.28893 1,-4 6.98898,7.49843 0.62277,-4.78346 1.97273,-3.97273 2.68795,0.88319 4.87957,-7.68453 1.08181,-4.97273 3.65487,-5.52429 -3.50439,-4.5272 -6.05454,-5.05454 -2.9572,-2.33117 2.99674,-1.25398 -4,-1.37565 1.21795,1.93886 4.54111,13.42908 8.79052,3.28671 11.20111,-8.85177 -5.52591,-8.20896 -12.04439,-7.91106 -6.38914,-2.59803 -4.34613,4.61333 -8.74613,0 -1.59464,-7.26212 -7.12638,6.63416 -8.02727,1.02727 6.67301,-3.28838 -10.02702,-2.96246 -2.97273,2.34838 0.17035,8.00098 2.08453,11.15445 8.97273,5.65162 -1.20167,-3.89848 -2.10398,-8.60374 1.02727,-1.02727 3.08241,2.60515 4.33572,-5.55606 0.33271,-4.66914 -2.07318,-9.41778 11.38531,-4.99895 6.66729,4.66914 9.59023,6.06606 -12.13236,5.48661 -6,8 4.36632,1.58216 11.80092,7.24893 6,13 -2.24761,-0.72811 -7.9042,4.38337 -1,6 -5.91567,-1.53641 -3.95843,9.83798 4.6101,7.12997 2.02947,-9.81578 3.40153,-4.46464 9.3899,-7.12997 -3.40176,-6.77061 2.0385,-3.16487 1,-8 -5.63542,-4.29101 -2.63751,1.46289 -4,6 9.06349,2.86728 6.50233,0.69485 5.38479,-7.23041 -4.66465,-7.23257 7.91031,2.45931 -5.38479,-4.76959 -3.34731,-7.4116 -10.76462,7.21858 -14.02727,5.02727 1.97584,12.65932 7.42329,6.52425 13.50491,10.17104 4.92052,2.89341 -7.78764,13.53823 -10.45037,13.82896 -1.26521,-0.64094 11.27172,7.79254 9.58794,12.20314 0.27358,3.55383 -10.51174,4.61766 -2.33796,12.25869 12.09911,-3.26079 0.78267,8.37495 6.01196,2.07708 2.13178,-7.84502 8.05021,-5.4017 7.68352,-11.53891 -0.78077,-1.74073 5.25422,-6.47582 7.02727,-0.0273 -3.18917,7.28531 7.43453,4.62791 5,0 0.91373,-3.67505 2.00802,-9.2187 4,0 -0.14727,3.29498 -4.04779,9.15399 -9.61521,8.76959 -0.39381,-8.96174 -7.10678,-0.63509 -11.35752,-9.74232 -1.4021,-11.00018 9.68519,0.54147 6.02727,-6.97273 -6.07316,-8.98882 -10.47446,4.52964 -0.61594,3.78217 9.66855,-2.18218 9.57365,10.96211 10.58867,0.19056 5.2976,-4.51388 10.59542,-10.17991 7,-0.21817 -15.79099,-15.28206 -32.05449,-31.98167 -48.02727,-47.8091 -2.55436,-6.95428 -4.53272,-4.19963 -8.36182,2.80545 -8.70116,-3.40944 -6.27803,11.19454 -13.9524,15.1542 -7.13637,8.49344 -11.93835,19.87827 -23.65847,22.69427 -9.76463,1.86435 -1.91664,13.6211 -3.02731,20.34608 -0.79603,4.70261 13.68159,-2.86552 4.08364,7.66618 -8.88111,3.02132 0.9187,11.06224 -4.05637,11.36109 -5.30197,-5.26362 -15.19734,0.33274 -14.93189,7.40044 -5.2426,-1.61616 -10.25805,-12.21638 -17.31559,-5.68764 -9.45317,1.93282 -17.2861,9.36721 -26.77979,10.25993 0.45298,-0.2776 -1.84021,10.69305 -8.23041,8.38479 -4.3389,-3.74313 -5.01608,-8.10029 -7.76959,-12.38479 2.91728,-2.96229 -11.59157,3.87609 -5,-3 -3.28928,-7.66879 -5.69705,-6.78568 -2,-11 -7.85159,-4.37354 -1.03909,8.63474 -3.10052,11.82539 -6.67178,4.44113 2.02032,9.35591 4.47617,14.17461 7.79916,-0.18163 13.52696,-1.11403 18.62435,-5 -1.77787,-8.4908 -8.26634,5.30875 -7,-5 3.6397,-5.28173 -2.42545,-1.88696 -3,-8 -4.08919,12.15226 12.31877,5.99898 9,5 0.87768,6.84546 1.81935,18.22861 -7.01265,20.34036 -4.7207,5.02057 -11.40369,9.54537 -18.98735,10.65964 -4.57199,-3.46791 -5.82184,-13.0934 -6.30505,-6.08484 -3.50552,11.5386 -5.08758,-1.61742 -14.19753,1.08484 -6.3691,-4.36596 -11.64779,0.19434 -17.22045,-7.81535 2.22491,-2.51163 13.30194,-13.90709 13.72303,-6.18465 2.14056,4.68886 7.08313,4.49751 15,4 -10.02113,-6.95224 -19.97941,-14.02929 -32,-17 -5.49297,-7.41696 -3.48073,-13.39996 -1.38479,-19.23041 -4.30805,-3.80879 -5.08767,-3.7608 3.38479,-2.76959 -1.99998,-1.92002 5.9281,-15.63156 4.02727,-20.97273 -3.07669,-4.66537 12.85171,1.57976 8.97273,-6.02727 -5.17505,-0.78488 -5.87265,-9.37762 -8,-4 -4.56071,0.19637 -1.83814,-13.43525 -6.56498,-6.69495 -2.44966,6.49546 8.40757,8.26784 6.56498,12.69495 6.99731,-4.82709 16.43138,-4.65651 12,6 4.57932,6.03314 16.69333,2.53861 19,12 -2.29144,3.69271 -7.97862,1.42906 -6,10 -2.02386,-5.65335 5.26707,4.28927 7,6 7.66789,-1.76117 9.57828,-5.15605 14,-6 -0.28405,0.62911 -4.45058,11.32017 -5.76307,2.85539 -3.80628,-9.16982 6.98397,2.97473 7.76307,3.14461 3.14258,-1.2168 5.36751,-8.35627 10.37565,-1 11.67245,0.091 -1.82366,-9.15529 -5.37565,-8 3.1711,-3.34866 -0.28798,-12.65343 -5,-7 4.16707,1.52571 4.52381,8.03069 -1,5 -3.86039,-6.71211 3.49322,2.09999 2,5 6.88434,-0.68039 2.91913,-10.89937 7.02727,-11.97273 4.22415,-5.03911 -5.56407,-2.25794 -8,-4.05454 -5.33105,2.17937 -1.1287,7.73826 -5.33232,7.59225 -4.48557,-5.15244 0.40508,12.59926 0.18196,17.45027 -0.79308,8.4249 8.45655,-8.09705 10.93811,-11.97237 2.45619,-8.95286 13.93897,-5.84252 8.18498,-15.04288 -7.54807,1.47686 5.4885,-5.10768 6.43502,2.30505 9.61379,2.88664 -2.97314,-6.67109 -1.05937,-8.30505 -3.55607,0.0284 -8.08432,3.41244 -12.34838,-2.97273 -9.33265,0.5969 3.17082,3.80972 -0.0273,4.97273 -5.94106,-3.31258 -1.67707,8.86204 0.41065,-0.10646 0.27178,-6.5995 -0.68978,-10.68179 -5.41065,-8.89354 -5.14598,9.20929 -10.58185,1.11759 -17.53361,-4.7431 -3.32638,-6.76033 -14.90612,-1.09208 -22.08318,-2.39787 -7.58331,-1.79155 -2.31931,-11.65817 -11.38321,-8.85903 -8.65676,3.14998 4.59898,-12.77934 1,-3 -27.66166,13.34353 -55.36288,26.60646 -83,40 -2.64755,7.42791 -1.54473,9.2112 3,8.37565 -0.009,2.31126 -15.8114,9.91538 -6,11.62435 8.60587,5.90675 0.95799,8.07295 -6,5 -7.15898,-1.9135 -3.59061,1.38836 -4.85539,-4.76307 10.68487,0.15686 -1.6959,-3.72993 -6.52026,-4.23693 -3.59619,-5.17923 -3.65236,-7.01536 -3.65162,1.97273 6.18939,0.75391 -0.42439,1.13746 0.63493,9.4962 -1.34565,6.32606 7.47916,18.92243 -1.70818,16.35646 -3.65458,8.81158 -15.7815,0.96597 -12.89948,-2.82539 -7.31532,-3.22087 -3.26025,7.7601 -9,10.37565 0.34301,1.4969 -9.91859,-10.70666 -7,0 4.73759,4.63198 -13.2731,4.15824 -1,9.62435 5.73827,-5.59395 19.75858,-2.62386 9.87306,-9.50258 -5.17614,-2.78898 -8.59547,-19.0266 -11.87306,-10.49742 -4.35452,-3.5049 -4.73283,4.99338 -7.38479,7.23041 11.64544,3.25315 0.0726,3.1215 1.35752,7.74232 0.94739,11.71766 -10.80852,-3.32134 -8.97273,7.02727 -6.41763,-6.48022 -10.79002,-5.82622 -11,-12.37565 0.40289,-0.49413 7.85578,-8.93682 11.23041,-1.00914 7.16831,2.82508 2.22276,9.47742 1,2.92396 6.03553,-8.57365 4.85234,-10.68304 -1.23041,-7.91482 1.74183,-9.92133 -6.4136,-7.29575 -7,-12.62435 -4.20684,-4.49882 -6.20697,-9.40139 -11,-9 -1.23677,5.09 8.88464,5.58619 4,9 -7.18622,1.87798 -2.81156,-9.03505 -6,-2 -6.87264,0.0491 -3.55873,-6.90335 0.37565,-5 3.60916,-7.48408 -6.78209,-4.90376 -5.37565,-13 -4.87598,-8.45806 -4.71994,3.68459 -8,1 1.62915,-5.67854 -4.81422,-7.31166 -6,-12 -4.51261,-6.41556 5.01855,1.6469 4,-5 3.74668,-3.77766 3.55797,-11.56489 -0.76307,-11.85539 -2.85083,7.80721 10.82265,-0.38109 11.76307,3.85539 5.75355,-6.45567 6.98101,6.72811 11.37565,2 7.78331,-2.74403 4.05151,5.50587 0.62435,6 -3.53648,-4.30536 -9.61487,5.43994 -12,-1 -8.93865,4.06825 -2.1167,-8.8552 -2.24871,-4 5.06984,-2.48373 6.84669,6.73582 7.6335,-1.23041 8.37976,-3.38143 -2.30076,-9.5016 5.58794,-7.79686 8.47823,1.1743 -1.34205,6.96786 8.02727,6.02727 3.62665,3.1276 3.42137,2.16221 7.97273,-3.97273 3.89317,1.60641 9.07701,-7.01433 2.05454,-5.05454 -4.78287,4.34276 1.61287,-7.21481 1.97273,-5.97273 -3.05941,-4.38888 -7.4898,3.74977 1,1 3.28616,-4.77649 -3.47239,-11.59911 3,-12 0.12468,3.24175 5.75343,10.29558 5,4 1.72813,-1.51915 2.84732,-7.81155 2,-11 4.03939,0.34016 2.4584,5.14626 7,6 -4.35744,1.72917 -5.01551,3.1573 -1,6 3.51926,4.38493 8.87449,-10.07317 9,-1.62435 -0.0931,2.72409 1.01352,7.16273 1.97273,11.59708 5.80735,3.08534 -2.96433,10.78619 -1.59708,5.02727 -1.29308,-7.88972 -4.92273,4.7975 -7.34838,3.02727 -3.69231,-0.12852 -5.62311,-4.72766 -9.02727,-1.02727 -3.1498,-4.06017 0.26168,-8.05718 0,-13 -5.43049,5.17865 -7.25934,-0.0365 -3.02727,-1.02727 4.08384,6.24363 -4.84045,9.12823 -3.97273,5.02727 -0.73811,5.99988 3.74516,9.17681 7,0 1.67264,0.0669 11.78187,-1.10599 6,-3 -0.75268,-3.5482 9.88018,-3.46475 5,-1 5.95756,2.80438 4.41126,2.87744 1.02727,6.02727 -2.74661,-0.61618 -10.07016,-0.73992 -4.02727,3.97273 5.61601,-0.55225 -9.71569,0.48335 -6.90462,-8.42771 -0.73439,-6.27686 4.02022,-7.19413 -4.09538,-10.57229 -4.28542,-2.65791 -9.04187,-2.55497 -11,0 -2.77797,4.88101 -4.74894,9.06905 -3.97273,11.97273 6.11949,6.18643 -0.44102,2.90781 -3.40292,4.02727 -2.76647,2.31196 0.92284,10.56939 1.32111,6.05454 2.13362,-5.57175 -4.81591,-9.47778 -3.91819,-14.02727 -7.54647,-3.2626 2.59799,-1.94231 5.97273,-4.02727 1.66371,-4.06968 -8.58754,2.9957 -9,-4 8.49983,-1.8237 -5.14938,-6.73645 -3,-2 3.42751,3.35185 -11.09071,3.29275 -5,8 4.4989,-2.71877 7.13588,3.46135 4,-5 4.0758,-2.16779 5.46644,8.04933 10,0 -3.11837,-6.98641 5.94593,-3.37997 2,-3 2.66737,8.25608 5.96378,-5.46182 -1,-5 0.66047,-4.55763 4.90934,-7.27841 8.97273,-2.02727 2.3649,-7.44277 -3.06539,-3.89515 -1.97273,2.02727 -1.54113,6.31356 8.5758,1.57931 -1.97273,-1.97273 2.72414,1.08717 -9.93159,-4.17779 -9.02727,0.97273 -4.85291,8.75751 8.53055,-4.43642 1.02727,-4.02727 1.44876,-6.47727 -4.05504,-1.71035 -6.02727,-1.59708 -4.34564,0.11424 -6.13809,-3.60672 -9,-6.37565 -2.30965,-1.69737 -5.64113,11.44647 -7,6 7.37093,-0.89192 -4.73498,8.61814 4,8 1.84174,2.99266 -4.31405,10.23321 3.23041,11.61521 8.21996,-5.88415 3.05181,2.21913 4.76959,4.38479 3.24916,8.70714 8.53427,-1.72785 4.11933,-7.0568 -8.08561,-5.53958 1.38883,-7.88627 0.88067,-11.9432 0.87289,-3.93426 -12.40985,1.98506 -4,3 4.48697,-4.23162 -8.03973,3.43504 -3,3 -1.69905,6.05244 -4.67802,4.52801 -8,3 -2.02351,5.54875 -8.75587,-1.70756 -5,-5 2.9874,-4.82971 -1.27654,-9.55527 -6,-5 -3.71158,-1.75288 -4.55973,6.10358 3,3 6.25401,-4.67103 -7.90871,9.28913 -0.3899,7.12997 -3.07305,-8.89863 4.90986,-11.9676 11.3899,-6.12997 6.84185,-1.45634 -1.53756,-8.13802 7,-6 2.20038,-2.13034 3.38716,-8.12391 11.04679,-7.80936 9.99611,4.23165 -4.91436,6.10941 5.95321,2.80936 5.36959,-0.19485 9.35064,2.36142 11,6 1.68644,4.51608 1.68135,-7.27302 6,1.37565 -2.57307,6.38933 -8.12362,0.62101 -6,4.62435 3.2313,6.72238 7.06545,-0.60527 12,4 5.4884,-3.23741 3.68151,-10.39837 10,-5 -0.50767,7.93735 -6.93933,1.5962 -8,9 3.78606,0.50011 -8.41754,2.94818 -4,6 6.53766,1.84479 9.30906,9.08513 15.97273,4.97273 8.13758,-2.71255 -0.73836,-4.68867 0.0273,-10.97273 -6.75145,0.70317 1.88556,14.52809 2,2.62435 5.06303,-3.53364 -3.59349,-8.40638 -5,-5.62435 0.0199,4.1169 7.97026,3.0399 10.97273,8.97273 -4.19093,1.57817 -2.10569,8.65798 1.02727,13.02727 -3.26891,4.39546 -8.90614,-9.80438 -6.54769,-3.28614 -1.20129,7.07122 5.98661,5.76977 5.57496,10.25887 1.55612,8.23896 2.90849,-9.77856 6.94546,-3 9.72572,0.80379 4.12105,3.82478 6.02727,9.02727 -2.00416,8.75743 4.39986,-2.46033 7,-2 11.32999,5.87973 -2.37844,9.98755 -9.06375,5.21606 -3.14813,-3.9344 -5.23074,-6.78455 -11.90898,-5.18879 -4.10545,1.45849 -2.2861,-7.7758 -7.02727,-8.02727 -0.53288,5.94619 -14.95234,1.66256 -7.05454,-2.94546 8.86442,2.7837 -1.03074,9.77731 1,11.89092 -0.57137,4.83345 -4.9665,2.76841 -7.94546,1.05454 -4.81438,1.24922 -11.812,1.983 -8,-4 -7.79232,2.19472 0.64427,-9.69129 0.0273,-2.02727 8.06049,4.9151 3.47791,-5.47352 3.34838,-3.97273 5.91788,-5.86766 2.75997,8.94583 8.59708,4.02727 4.28582,-1.30394 -4.70804,8.00652 -5.97273,1.97273 -4.88976,0.66298 -10.98034,6.51421 -14,1 0.96656,-5.18595 -7.09344,-8.19734 -5,-1 2.67128,4.24716 7.14884,6.87167 3,11 -5.32765,2.49466 2.38596,0.58412 5,1 5.83292,0.80151 3.1308,8.59275 -2,3 3.96937,-3.69117 0.32825,-8.45751 5,-7 3.54729,0.56538 16.62182,-0.91 4,4 -6.88751,-0.91219 -17.24293,-4.58189 -16,-10 -7.91617,-5.936 -4.27432,2.26251 -5,7 -2.59698,5.30774 -4.48622,2.98487 -9,3 5.35677,7.40786 -9.02423,3.79798 -9.76959,5.61521 5.12339,-3.24986 6.97287,-9.43533 6.76959,-13.61521 -8.50454,6.92678 -10.00541,-7.18891 -13.67229,1.81012 -2.66839,10.0087 -12.64103,-4.40928 -15.30044,-2.83739 -2.94304,6.84441 -0.97248,-12.73495 1.59708,-9.97273 -8.61888,-1.37426 -8.46218,3.32211 -10.62435,8.37565 -8.23814,3.30911 2.3612,-13.15579 -1.30505,-5.81067 -9.70772,-1.75306 -2.34623,-9.89571 -14.0706,-7.56498 2.52908,3.17958 2.93491,7.84651 2.37565,15 -4.89007,0.788 -10.57443,-9.0798 -10.87003,0.6101 -2.16508,2.99664 3.69452,7.98045 8.10044,3.77469 1.31781,3.13547 8.74766,6.75202 5.79686,0.64248 -1.60601,-0.55092 -1.13944,-11.67198 3.6822,-0.70518 6.83359,2.75034 0.13563,8.07719 -0.70947,9.67791 -0.26135,-0.71675 -6.24629,11.95864 1.97273,11.02727 7.72988,-8.60295 -2.66703,0.59272 5.32882,-2.50343 3.94846,-0.78368 4.83129,0.37728 5.69845,-4.52384 0.18682,-4.14071 -9.72071,-7.23115 -8,-2.62435 2.44704,7.19908 11.98509,0.77231 16,5.62435 2.24162,11.33213 10.64502,-3.14638 0.46118,2.12329 -6.45288,6.42135 -7.00577,5.11614 -1.48845,11.84944 -0.28504,3.50228 6.42104,7.90847 -1.94546,5 -3.31557,0.59775 -9.20671,2.35876 -4.02727,-3.34838 8.62883,-3.76768 -4.17434,-4.03622 -4,1.12694 -4.04211,5.83008 -1.75344,11.20204 1,6.24871 5.61295,-0.99646 11.83196,0.89601 14,5 -1.09163,4.00304 1.1608,5.17247 -4.37565,8 -3.70346,-2.44929 1.03405,-7.66337 -5.62435,-10 -4.42794,6.47219 -12.68368,-1.76404 -12.02727,4.97273 5.16313,3.88231 17.23212,2.57537 16.05454,-4.94546 9.54464,0.30712 4.21247,-8.71038 10.97273,-6.02727 -0.38399,7.33145 10.30727,-2.3852 2,-2 -5.33744,-7.30262 -7.99092,0.25882 -6.14461,-2.76307 -8.15811,-0.91628 -5.62741,-9.71835 4.14461,-4.23693 6.12368,3.63011 6.37274,-10.77031 3,-3 8.84059,-2.89642 -0.20956,11.90945 7.33364,10.33457 2.23451,9.53124 12.57835,-3.50093 3.66636,0.66543 -4.92509,4.47455 -2.94551,10.01353 -2.97273,13.97273 6.94506,5.72275 -1.09471,8.61009 -3.02727,3.02727 4.29723,-4.07225 -10.45504,-3.42474 -7.02727,0.97273 -4.81477,2.89235 -3.08763,-11.501 -2.79312,-9.26497 6.72386,8.11559 5.62533,-1.89624 13.48953,-3.37505 1.10882,7.49336 11.67261,3.3996 12.33086,-2.33271 -10.19612,-3.08338 2.22594,-0.36994 8.75129,-4 4.27725,1.30425 8.63584,2.10837 15.24871,-1 -2.09722,-12.41894 7.71225,2.83352 -5.21998,-1.74727 -7.97749,0.84286 -13.06578,0.0334 -19.50305,-5.06808 -5.87894,-4.76996 -3.63581,-3.65401 -7.27697,-11.18465 7.35437,-2.07253 5.7337,-8.31172 15.8091,-7.02727 5.14973,-0.0185 -4.38504,-10.87201 -6.8091,-10.34838 -3.13129,-11.66639 3.58128,-0.21328 8,-7.62435 -4.49612,-2.37426 5.98163,-7.6246 9,-6 -5.41793,4.78328 3.20141,9.02105 -4,6 5.08948,11.5219 -10.3727,-7.97802 -6,-9 10.88275,0.51897 -2.55259,-11.20194 -1,-14 6.18873,1.05462 4.83691,-1.02299 5,-6 1.58402,5.95522 -8.55179,5.19605 -9,10.37565 -0.6321,-2.31219 3.45922,-15.25564 10.71645,-17.17312 3.12218,-6.48737 3.52607,3.56015 4.26175,7.35198 -6.28656,11.13377 8.05546,-3.08633 12.0218,-5.55451 10.16292,-2.85312 -12.18897,-9.15772 -1.30876,-6.15438 4.91747,5.56686 5.22451,17.96815 15.17359,15.58343 8.97034,-1.76396 11.84625,4.47807 13.51996,9.80136 -9.92308,2.23729 2.37136,-3.60026 3.61521,5.76959 -9.44432,0.48105 -6.90833,4.7943 -1.08182,12.91818 6.7983,11.50316 -8.19698,2.22234 -13.07346,-1.41135 -2.14139,-5.1848 -12.58355,-5.89716 -18.9163,-9.16478 -9.87838,-1.77303 -20.46425,-5.78575 -30.07303,-5.57898 -4.91492,-0.69391 -12.07787,2.37042 -18.23104,3.23693 -10.20581,3.9534 3.71486,-9.37731 -1.22502,-15.61077 -3.18998,-12.68299 3.46501,-5.47585 4.60067,-12.38923 1.91735,-5.1168 2.13995,-9.60124 -7,-10 -2.64915,-7.04953 -3.88586,10.30343 -1.23041,2.38479 -4.68668,-5.90259 -12.79072,1.5607 -5.76959,0.61521 3.12113,5.33275 -13.77881,4.70677 -13,1 1.78814,10.76366 7.08577,-12.28649 -4.10014,1.20724 -6.223,5.29455 -9.56648,8.55802 -19.25543,10.57795 -4.4449,1.71052 -17.31894,3.58412 -16.97714,-1.45433 10.92747,-9.21608 6.91727,5.0555 4.33271,12.66914 0.26842,8.90787 2.73837,7.27838 12.34434,7.94956 1.52351,-2.40921 -0.62118,13.88117 -0.34434,19.05044 -7.48041,0.85561 -6.72471,11.76871 -3.02727,12.02727 3.11735,-1.23242 11.13611,1.89885 6.02727,-5.02727 -4.282,6.14699 -7.00932,-9.50704 -12,-2 -4.07764,-4.30944 -1.94984,-8.25319 -4.36182,3.53274 -2.71475,8.68157 9.48134,9.35634 12.11311,12.46726 7.07714,-3.22815 13.41888,8.24044 4.49742,8 -2.65888,-4.78766 3.75642,-12.04536 4.75129,-16 7.24911,-5.92334 -9.73454,-6.68276 -3.23693,4.14461 7.13717,6.6527 5.02801,16.10498 5.23693,24.85539 12.47569,-3.36224 25.18693,-6.62235 38,-8 0.66854,8.2542 -1.33419,17.139 1,25 -10.47832,1.26449 2.79294,-13.00361 3.27077,-18.90462 4.83176,-10.79893 9.66378,-19.70512 12.39304,-31.50276 5.94351,-10.57237 -0.33891,-10.52415 -10.03894,-9.96762 -7.30168,1.64332 -20.32792,-4.40774 -22.25055,2.16825 -3.26219,8.43745 -3.67203,15.36037 -11.65832,5.80342 -9.85796,-2.03502 -18.90844,6.76246 -28.31886,9.51513 -7.1322,2.19482 -17.59238,12.35679 -18.29527,-0.84014 -7.47541,-13.7385 -1.77244,-29.44422 -2.1245,-44.22788 0.0919,-11.90311 1.9973,-23.55196 5.02263,-35.04378 -5.11258,-7.49664 9.14321,-4.93135 10,-1 9.09155,-6.13854 -4.42635,1.76962 -11.23165,-0.60527 -19.92278,-1.46491 -39.84557,-2.92982 -59.76835,-4.39473 -1.09366,30.86222 -0.56238,61.94283 -2.66729,92.66914 3.25607,4.4533 -4.25293,13.95074 0.64002,14.35813 3.72349,-5.27659 11.93474,5.01953 4.65162,4.97273 -0.90366,-5.05322 4.95388,-8.63773 5.34838,-12.97273 -2.76443,-4.3272 -9.60918,3.7603 -3.77442,6.45037 6.06076,4.33924 4.11626,7.27079 0.80169,12.52236 -6.26529,-5.84595 -0.1151,13.15744 0.0273,5.02727 7.55221,2.41528 -3.06826,6.54169 2.97273,6.97273 -0.21887,5.20173 -8.42149,9.7882 -2,9 -8.01169,1.73939 -6.07406,8.69665 -3,10 0.79445,3.52407 5.67801,11.27716 4.47616,16.30155 5.47146,8.51132 6.18397,1.06715 8.85841,6.36481 6.70899,-3.67425 14.75978,-3.95811 13.43502,3.94885 -5.70182,2.01613 3.78651,14.83638 4.51962,13.91093 -3.81701,3.98015 -14.02376,7.62297 -20.28921,11.47386 -5.78908,-2.9128 -3.06879,-8.11469 0.92166,3.84332 4.97932,3.95084 4.16981,-13.44298 6.85776,-17.91687 3.22246,-6.98648 1.3129,-18.88126 7.86601,-22.68229 12.28683,-4.63212 -6.62076,-4.84905 -11.64543,-4.24416 1.31089,-11.00244 7.0055,-21.97485 5,-33 -6.83722,-4.54909 -5.49429,-3.17204 -11.61521,-1.76959 -7.20064,4.55139 2.20927,-7.33997 1.99086,-7.23041 8.21057,-5.01382 -5.37359,-3.37271 -4.76044,-0.76959 2.59967,7.46819 17.53016,1.33437 9.38479,-5.23041 -3.61786,0.69377 -8.11344,-2.61901 -7,-7 -3.84974,-2.68237 -10.36308,12.24161 -13,14.37565 -0.018,3.62193 6.84088,7.18221 3.02727,12.59708 1.69766,7.93108 6.04432,-11.52916 0.17922,2.31267 -1.45654,5.40822 12.80128,-7.14816 17.53879,-8.82096 8.1939,-9.7832 11.81407,3.153 16.87079,8.95334 11.12798,15.52741 22.25595,31.05481 33.38393,46.58222 35,-15 70,-30 105,-45 0.28023,-6.09972 -6.49829,-19.11378 -0.2543,-20.17526 14.75144,-0.94158 29.50287,-1.88316 44.2543,-2.82474 5.34091,5.26174 2.92227,10.14118 12.35921,4.58447 6.28977,-5.55719 14.94341,1.71884 22.36393,1.92713 21.42562,5.1628 42.85124,10.3256 64.27686,15.4884 -1.33333,24 -2.66667,48 -4,72 -4.72428,4.8113 7.77044,12.22413 3.63498,8.61121 1.14711,-8.01349 -15.9125,-9.60088 -13.40457,-5.15038 15.73202,14.35911 33.77491,26.98461 49.15245,42.12858 8.1341,6.4485 15.26107,15.5163 23.99279,20.41059 8.32457,-3.6801 3.2809,5.80695 6.62435,10 5.42953,2.86061 -1.8625,-4.27798 -4.29842,-1.65711 -0.48505,7.26278 -6.66076,16.01596 -0.70158,21.65711 -2.40776,5.00646 7.13386,3.02259 4,9 4.9601,0.66879 -1.78988,8.5855 2,11 -3.00032,3.20534 -2.38733,8.79848 -3.76307,13.14461 -5.02926,10.7919 -11.10583,21.82685 -13.46734,33.31622 2.44459,3.48106 15.97093,-0.20984 22.59611,0.5656 0.11651,-7.77779 12.48711,-12.50808 16.45494,-6.40038 3.99524,8.27575 4.48069,14.4249 -1.12569,21.28911 1.21415,5.51593 -5.5318,17.10541 1.30505,12.08484 5.83789,-2.65981 8.58358,3.25849 -0.14461,5.76307 -1.09105,4.28328 -1.65328,5.71624 -2.47974,9.23693 3.83428,-1.47508 10.53479,-4.17747 8.65162,-7.97273 5.96238,-0.39011 6.03278,-11.91541 1.97273,-13.02727 7.29518,-9.61234 6.33661,9.06802 6.88047,-3.17129 5.76184,-12.57195 -7.31721,5.11705 -11.21797,8.06451 -5.08416,4.20425 -12.68708,14.74825 -11.98967,13.74482 -7.79867,-6.13021 -17.94877,5.44146 -18.10018,-7.52692 -5.85755,-19.03704 -11.7151,-38.07408 -17.57265,-57.11112 -5.22344,-0.55683 -6.97981,-14.22872 0.97273,-7.02727 4.25678,5.35346 -12.99146,8.69758 -7,5 -10.77623,10.04435 0.71892,-4.64199 -4.89091,-7.89091 -0.84495,-3.80908 -4.5036,-1.6044 0.89091,-8.05455 4.78634,-0.1401 6.60004,-3.72162 11.02727,-2.02727 3.35385,-2.56181 6.86207,5.95644 9.61521,-4.23041 5.87447,-8.6996 6.24298,9.64711 -1.23042,7.46082 -1.10597,7.33733 -6.94397,-2.74326 -10.38479,-0.23041 -2.44591,-1.35497 -4.60815,9.04091 -7.30505,3.43502 -10.20478,0.58727 2.69751,-14.43042 7.13681,-9.90231 2.37504,-3.12566 7.3162,-4.58591 8.51717,2.73708 11.66545,2.43572 -6.22986,-10.63384 7.32021,-12.93708 10.8802,8.56421 -1.24423,-6.49348 -3.03656,-12.13784 -3.08151,2.56492 -5.13193,15.80022 -7.81363,22.5026 -7.10182,8.16352 2.65213,13.31108 -2.04936,13.68732 -3.57028,-8.35468 -16.7612,0.43344 -16.76959,4.61521 -6.83053,-1.74559 -11.62605,8.83684 -8,15 -18.23504,-2.12115 -35.40791,-9.08164 -53,-14 -4.24961,-11.75539 -9.43469,-22.91689 -19.0431,-31.27011 -9.24048,-9.83982 -18.69778,-19.53523 -23.02364,-32.64856 -4.96672,-8.45852 13.39385,-1.98497 18.70031,-3.86751 57.45548,0.59539 114.91095,1.19079 172.36643,1.78618 1.87378,11.34493 1.28416,-10.66584 2,-15 15.54011,-21.45331 29.41681,-44.32501 46.00022,-64.8891 5.32033,-4.65949 13.68135,-13.31268 16.30483,-15.67588 6.4217,0.68986 8.70086,16.73414 6.87366,1.35207 -1.7519,-5.46692 -9.1774,-6.13207 -12.03194,-15.72182 -14.38226,-23.68842 -28.76451,-47.37685 -43.14677,-71.06527 -7.44374,-2.51778 -14.39892,-10.47441 -22.23041,-9.38479 -11.19868,0.44271 2.24326,6.7669 -8.08737,3.9707 -87.2274,-23.1953 -174.45481,-46.39061 -261.68222,-69.58591"
   id="path2"
   inkscape:connector-curvature="0" />
&quot;</svg>
